NotoSerifDisplay-LightItalic.ufo
<glyph name="exclam" format="2">
  <advance width="254"/>
  <unicode hex="0021"/>
  <outline>
    <contour>
      <point x="99" y="187" type="line"/>
      <point x="112" y="187" type="line"/>
      <point x="234" y="714" type="line"/>
      <point x="204" y="714" type="line"/>
    </contour>
    <contour>
      <point x="72" y="-7" type="curve" smooth="yes"/>
      <point x="98" y="-7"/>
      <point x="108" y="23"/>
      <point x="108" y="49" type="curve" smooth="yes"/>
      <point x="108" y="66"/>
      <point x="101" y="73"/>
      <point x="89" y="73" type="curve" smooth="yes"/>
      <point x="62" y="73"/>
      <point x="54" y="42"/>
      <point x="54" y="17" type="curve" smooth="yes"/>
      <point x="54" y="-1"/>
      <point x="61" y="-7"/>
    </contour>
  </outline>
</glyph>
<glyph name="dollar" format="2">
  <advance width="511"/>
  <unicode hex="0024"/>
  <outline>
    <contour>
      <point x="189" y="-79" type="line"/>
      <point x="199" y="-79" type="line"/>
      <point x="224" y="38" type="line"/>
      <point x="365" y="39"/>
      <point x="432" y="100"/>
      <point x="432" y="200" type="curve" smooth="yes"/>
      <point x="432" y="278"/>
      <point x="401" y="323"/>
      <point x="327" y="361" type="curve" smooth="yes"/>
      <point x="296" y="377" type="line"/>
      <point x="358" y="670" type="line"/>
      <point x="436" y="664"/>
      <point x="459" y="632"/>
      <point x="459" y="550" type="curve"/>
      <point x="471" y="550"/>
      <point x="485" y="559"/>
      <point x="485" y="576" type="curve" smooth="yes"/>
      <point x="485" y="621"/>
      <point x="457" y="675"/>
      <point x="360" y="680" type="curve"/>
      <point x="377" y="760" type="line"/>
      <point x="367" y="760" type="line"/>
      <point x="350" y="680" type="line"/>
      <point x="227" y="680"/>
      <point x="162" y="610"/>
      <point x="162" y="515" type="curve" smooth="yes"/>
      <point x="162" y="436"/>
      <point x="187" y="400"/>
      <point x="248" y="370" type="curve" smooth="yes"/>
      <point x="281" y="354" type="line"/>
      <point x="216" y="48" type="line"/>
      <point x="103" y="53"/>
      <point x="74" y="109"/>
      <point x="74" y="236" type="curve"/>
      <point x="57" y="235"/>
      <point x="48" y="223"/>
      <point x="48" y="206" type="curve" smooth="yes"/>
      <point x="48" y="128"/>
      <point x="85" y="42"/>
      <point x="214" y="38" type="curve"/>
    </contour>
    <contour>
      <point x="226" y="48" type="curve"/>
      <point x="290" y="350" type="line"/>
      <point x="383" y="302"/>
      <point x="404" y="267"/>
      <point x="404" y="200" type="curve" smooth="yes"/>
      <point x="404" y="119"/>
      <point x="363" y="48"/>
    </contour>
    <contour>
      <point x="286" y="381" type="line"/>
      <point x="217" y="411"/>
      <point x="190" y="448"/>
      <point x="190" y="515" type="curve" smooth="yes"/>
      <point x="190" y="635"/>
      <point x="261" y="669"/>
      <point x="348" y="670" type="curve"/>
    </contour>
  </outline>
</glyph>
<glyph name="percent" format="2">
  <advance width="840"/>
  <unicode hex="0025"/>
  <outline>
    <contour>
      <point x="195" y="0" type="line"/>
      <point x="207" y="0" type="line"/>
      <point x="695" y="714" type="line"/>
      <point x="683" y="714" type="line"/>
    </contour>
    <contour>
      <point x="187" y="283" type="curve" smooth="yes"/>
      <point x="315" y="283"/>
      <point x="368" y="457"/>
      <point x="368" y="560" type="curve" smooth="yes"/>
      <point x="368" y="659"/>
      <point x="336" y="721"/>
      <point x="260" y="721" type="curve" smooth="yes"/>
      <point x="135" y="721"/>
      <point x="79" y="551"/>
      <point x="79" y="453" type="curve" smooth="yes"/>
      <point x="79" y="334"/>
      <point x="123" y="283"/>
    </contour>
    <contour>
      <point x="187" y="293" type="curve" smooth="yes"/>
      <point x="137" y="293"/>
      <point x="106" y="338"/>
      <point x="106" y="453" type="curve" smooth="yes"/>
      <point x="106" y="532"/>
      <point x="149" y="711"/>
      <point x="260" y="711" type="curve" smooth="yes"/>
      <point x="308" y="711"/>
      <point x="341" y="673"/>
      <point x="341" y="560" type="curve" smooth="yes"/>
      <point x="341" y="459"/>
      <point x="296" y="293"/>
    </contour>
    <contour>
      <point x="618" y="-6" type="curve" smooth="yes"/>
      <point x="746" y="-6"/>
      <point x="799" y="168"/>
      <point x="799" y="271" type="curve" smooth="yes"/>
      <point x="799" y="370"/>
      <point x="767" y="432"/>
      <point x="691" y="432" type="curve" smooth="yes"/>
      <point x="566" y="432"/>
      <point x="510" y="262"/>
      <point x="510" y="164" type="curve" smooth="yes"/>
      <point x="510" y="45"/>
      <point x="554" y="-6"/>
    </contour>
    <contour>
      <point x="618" y="4" type="curve" smooth="yes"/>
      <point x="568" y="4"/>
      <point x="537" y="49"/>
      <point x="537" y="164" type="curve" smooth="yes"/>
      <point x="537" y="243"/>
      <point x="580" y="422"/>
      <point x="691" y="422" type="curve" smooth="yes"/>
      <point x="739" y="422"/>
      <point x="772" y="384"/>
      <point x="772" y="271" type="curve" smooth="yes"/>
      <point x="772" y="170"/>
      <point x="727" y="4"/>
    </contour>
  </outline>
</glyph>
<glyph name="ampersand" format="2">
  <advance width="668"/>
  <unicode hex="0026"/>
  <outline>
    <contour>
      <point x="200" y="-10" type="curve" smooth="yes"/>
      <point x="298" y="-10"/>
      <point x="371" y="39"/>
      <point x="423" y="104" type="curve"/>
      <point x="496" y="0" type="line"/>
      <point x="606" y="0" type="line"/>
      <point x="607" y="10" type="line"/>
      <point x="553" y="10" type="line" smooth="yes"/>
      <point x="523" y="10"/>
      <point x="516" y="12"/>
      <point x="495" y="43" type="curve" smooth="yes"/>
      <point x="439" y="127" type="line"/>
      <point x="476" y="182"/>
      <point x="511" y="273"/>
      <point x="534" y="352" type="curve" smooth="yes"/>
      <point x="546" y="392"/>
      <point x="548" y="397"/>
      <point x="593" y="397" type="curve" smooth="yes"/>
      <point x="666" y="397" type="line"/>
      <point x="669" y="407" type="line"/>
      <point x="531" y="407" type="line"/>
      <point x="520" y="355" type="line" smooth="yes"/>
      <point x="506" y="289"/>
      <point x="471" y="204"/>
      <point x="432" y="137" type="curve"/>
      <point x="250" y="395" type="line"/>
      <point x="432" y="445"/>
      <point x="495" y="504"/>
      <point x="495" y="596" type="curve" smooth="yes"/>
      <point x="495" y="665"/>
      <point x="448" y="724"/>
      <point x="348" y="724" type="curve" smooth="yes"/>
      <point x="216" y="724"/>
      <point x="157" y="656"/>
      <point x="157" y="558" type="curve" smooth="yes"/>
      <point x="157" y="511"/>
      <point x="185" y="448"/>
      <point x="218" y="396" type="curve"/>
      <point x="108" y="362"/>
      <point x="7" y="317"/>
      <point x="7" y="175" type="curve" smooth="yes"/>
      <point x="7" y="79"/>
      <point x="70" y="-10"/>
    </contour>
    <contour>
      <point x="201" y="0" type="curve" smooth="yes"/>
      <point x="93" y="0"/>
      <point x="35" y="78"/>
      <point x="35" y="175" type="curve" smooth="yes"/>
      <point x="35" y="299"/>
      <point x="97" y="344"/>
      <point x="225" y="386" type="curve"/>
      <point x="416" y="114" type="line"/>
      <point x="369" y="51"/>
      <point x="293" y="0"/>
    </contour>
    <contour>
      <point x="244" y="405" type="curve"/>
      <point x="204" y="466"/>
      <point x="183" y="523"/>
      <point x="183" y="558" type="curve" smooth="yes"/>
      <point x="183" y="655"/>
      <point x="230" y="714"/>
      <point x="346" y="714" type="curve" smooth="yes"/>
      <point x="425" y="714"/>
      <point x="470" y="669"/>
      <point x="470" y="594" type="curve" smooth="yes"/>
      <point x="470" y="506"/>
      <point x="412" y="450"/>
    </contour>
  </outline>
</glyph>
<glyph name="parenleft" format="2">
  <advance width="277"/>
  <unicode hex="0028"/>
  <outline>
    <contour>
      <point x="152" y="-114" type="curve"/>
      <point x="155" y="-105" type="line"/>
      <point x="93" y="-53"/>
      <point x="68" y="68"/>
      <point x="68" y="200" type="curve" smooth="yes"/>
      <point x="68" y="393"/>
      <point x="158" y="647"/>
      <point x="337" y="734" type="curve"/>
      <point x="339" y="744" type="line"/>
      <point x="125" y="656"/>
      <point x="40" y="403"/>
      <point x="40" y="199" type="curve" smooth="yes"/>
      <point x="40" y="53"/>
      <point x="74" y="-58"/>
    </contour>
  </outline>
</glyph>
<glyph name="plus" format="2">
  <advance width="559"/>
  <unicode hex="002B"/>
  <outline>
    <contour>
      <point x="288" y="143" type="line"/>
      <point x="308" y="143" type="line"/>
      <point x="308" y="347" type="line"/>
      <point x="513" y="347" type="line"/>
      <point x="513" y="367" type="line"/>
      <point x="308" y="367" type="line"/>
      <point x="308" y="572" type="line"/>
      <point x="288" y="572" type="line"/>
      <point x="288" y="367" type="line"/>
      <point x="84" y="367" type="line"/>
      <point x="84" y="347" type="line"/>
      <point x="288" y="347" type="line"/>
    </contour>
  </outline>
</glyph>
<glyph name="comma" format="2">
  <advance width="171"/>
  <unicode hex="002C"/>
  <outline>
    <contour>
      <point x="-32" y="-140" type="line"/>
      <point x="66" y="-114"/>
      <point x="81" y="-47"/>
      <point x="81" y="15" type="curve" smooth="yes"/>
      <point x="81" y="51"/>
      <point x="68" y="73"/>
      <point x="46" y="73" type="curve" smooth="yes"/>
      <point x="23" y="73"/>
      <point x="17" y="54"/>
      <point x="17" y="40" type="curve" smooth="yes"/>
      <point x="17" y="15"/>
      <point x="66" y="8"/>
      <point x="66" y="-18" type="curve" smooth="yes"/>
      <point x="66" y="-43"/>
      <point x="57" y="-111"/>
      <point x="-35" y="-131" type="curve"/>
    </contour>
  </outline>
</glyph>
<glyph name="period" format="2">
  <advance width="170"/>
  <unicode hex="002E"/>
  <outline>
    <contour>
      <point x="30" y="-7" type="curve" smooth="yes"/>
      <point x="56" y="-7"/>
      <point x="66" y="23"/>
      <point x="66" y="49" type="curve" smooth="yes"/>
      <point x="66" y="66"/>
      <point x="59" y="73"/>
      <point x="47" y="73" type="curve" smooth="yes"/>
      <point x="20" y="73"/>
      <point x="12" y="42"/>
      <point x="12" y="17" type="curve" smooth="yes"/>
      <point x="12" y="-1"/>
      <point x="19" y="-7"/>
    </contour>
  </outline>
</glyph>
<glyph name="one" format="2">
  <advance width="511"/>
  <unicode hex="0031"/>
  <outline>
    <contour>
      <point x="50" y="0" type="line"/>
      <point x="361" y="0" type="line"/>
      <point x="364" y="10" type="line"/>
      <point x="274" y="10" type="line" smooth="yes"/>
      <point x="236" y="10"/>
      <point x="229" y="14"/>
      <point x="229" y="31" type="curve" smooth="yes"/>
      <point x="229" y="43"/>
      <point x="231" y="55"/>
      <point x="234" y="70" type="curve" smooth="yes"/>
      <point x="371" y="718" type="line"/>
      <point x="363" y="718" type="line"/>
      <point x="282" y="660" type="line" smooth="yes"/>
      <point x="210" y="608"/>
      <point x="196" y="600"/>
      <point x="143" y="600" type="curve"/>
      <point x="143" y="589"/>
      <point x="146" y="581"/>
      <point x="168" y="581" type="curve" smooth="yes"/>
      <point x="209" y="581"/>
      <point x="253" y="621"/>
      <point x="343" y="693" type="curve"/>
      <point x="344" y="693" type="line"/>
      <point x="337" y="665"/>
      <point x="325" y="616"/>
      <point x="299" y="497" type="curve" smooth="yes"/>
      <point x="203" y="57" type="line" smooth="yes"/>
      <point x="193" y="13"/>
      <point x="187" y="10"/>
      <point x="128" y="10" type="curve" smooth="yes"/>
      <point x="53" y="10" type="line"/>
    </contour>
  </outline>
</glyph>
<glyph name="two" format="2">
  <advance width="511"/>
  <unicode hex="0032"/>
  <outline>
    <contour>
      <point x="12" y="0" type="line"/>
      <point x="394" y="0" type="line"/>
      <point x="422" y="130" type="line"/>
      <point x="412" y="130" type="line"/>
      <point x="399" y="82" type="line" smooth="yes"/>
      <point x="385" y="31"/>
      <point x="379" y="25"/>
      <point x="323" y="25" type="curve" smooth="yes"/>
      <point x="31" y="25" type="line"/>
      <point x="270" y="245" type="line" smooth="yes"/>
      <point x="409" y="373"/>
      <point x="475" y="451"/>
      <point x="475" y="570" type="curve" smooth="yes"/>
      <point x="475" y="670"/>
      <point x="411" y="724"/>
      <point x="309" y="724" type="curve" smooth="yes"/>
      <point x="191" y="724"/>
      <point x="130" y="643"/>
      <point x="130" y="586" type="curve" smooth="yes"/>
      <point x="130" y="570"/>
      <point x="138" y="562"/>
      <point x="155" y="562" type="curve"/>
      <point x="155" y="643"/>
      <point x="207" y="714"/>
      <point x="309" y="714" type="curve" smooth="yes"/>
      <point x="393" y="714"/>
      <point x="447" y="671"/>
      <point x="447" y="570" type="curve" smooth="yes"/>
      <point x="447" y="452"/>
      <point x="399" y="383"/>
      <point x="265" y="258" type="curve" smooth="yes"/>
      <point x="21" y="30" type="line"/>
    </contour>
  </outline>
</glyph>
<glyph name="three" format="2">
  <advance width="511"/>
  <unicode hex="0033"/>
  <outline>
    <contour>
      <point x="197" y="-10" type="curve" smooth="yes"/>
      <point x="338" y="-10"/>
      <point x="421" y="70"/>
      <point x="421" y="225" type="curve" smooth="yes"/>
      <point x="421" y="313"/>
      <point x="359" y="369"/>
      <point x="291" y="377" type="curve"/>
      <point x="394" y="389"/>
      <point x="472" y="469"/>
      <point x="472" y="571" type="curve" smooth="yes"/>
      <point x="472" y="662"/>
      <point x="404" y="724"/>
      <point x="310" y="724" type="curve" smooth="yes"/>
      <point x="197" y="724"/>
      <point x="129" y="647"/>
      <point x="129" y="573" type="curve" smooth="yes"/>
      <point x="129" y="550"/>
      <point x="142" y="539"/>
      <point x="155" y="539" type="curve"/>
      <point x="155" y="645"/>
      <point x="194" y="714"/>
      <point x="310" y="714" type="curve" smooth="yes"/>
      <point x="395" y="714"/>
      <point x="444" y="657"/>
      <point x="444" y="570" type="curve" smooth="yes"/>
      <point x="444" y="446"/>
      <point x="357" y="382"/>
      <point x="256" y="382" type="curve" smooth="yes"/>
      <point x="206" y="382" type="line"/>
      <point x="202" y="372" type="line"/>
      <point x="246" y="372" type="line" smooth="yes"/>
      <point x="342" y="372"/>
      <point x="393" y="330"/>
      <point x="393" y="224" type="curve" smooth="yes"/>
      <point x="393" y="71"/>
      <point x="314" y="0"/>
      <point x="197" y="0" type="curve" smooth="yes"/>
      <point x="90" y="0"/>
      <point x="44" y="55"/>
      <point x="44" y="135" type="curve"/>
      <point x="27" y="135"/>
      <point x="19" y="122"/>
      <point x="19" y="108" type="curve" smooth="yes"/>
      <point x="19" y="48"/>
      <point x="72" y="-10"/>
    </contour>
  </outline>
</glyph>
<glyph name="four" format="2">
  <advance width="511"/>
  <unicode hex="0034"/>
  <outline>
    <contour>
      <point x="126" y="0" type="line"/>
      <point x="418" y="0" type="line"/>
      <point x="421" y="10" type="line"/>
      <point x="360" y="10" type="line" smooth="yes"/>
      <point x="316" y="10"/>
      <point x="310" y="13"/>
      <point x="310" y="40" type="curve" smooth="yes"/>
      <point x="310" y="46"/>
      <point x="312" y="60"/>
      <point x="315" y="74" type="curve" smooth="yes"/>
      <point x="450" y="714" type="line"/>
      <point x="421" y="714" type="line"/>
      <point x="19" y="231" type="line"/>
      <point x="15" y="214" type="line"/>
      <point x="473" y="214" type="line"/>
      <point x="478" y="239" type="line"/>
      <point x="40" y="239" type="line"/>
      <point x="40" y="243" type="line"/>
      <point x="323" y="580" type="line" smooth="yes"/>
      <point x="358" y="622"/>
      <point x="407" y="681"/>
      <point x="421" y="701" type="curve"/>
      <point x="407" y="639"/>
      <point x="393" y="575"/>
      <point x="378" y="506" type="curve" smooth="yes"/>
      <point x="287" y="74" type="line" smooth="yes"/>
      <point x="275" y="16"/>
      <point x="270" y="10"/>
      <point x="217" y="10" type="curve" smooth="yes"/>
      <point x="129" y="10" type="line"/>
    </contour>
  </outline>
</glyph>
<glyph name="five" format="2">
  <advance width="511"/>
  <unicode hex="0035"/>
  <outline>
    <contour>
      <point x="203" y="-10" type="curve" smooth="yes"/>
      <point x="350" y="-10"/>
      <point x="433" y="97"/>
      <point x="433" y="237" type="curve" smooth="yes"/>
      <point x="433" y="354"/>
      <point x="357" y="421"/>
      <point x="252" y="421" type="curve" smooth="yes"/>
      <point x="207" y="421"/>
      <point x="168" y="408"/>
      <point x="142" y="396" type="curve"/>
      <point x="232" y="689" type="line"/>
      <point x="453" y="689" type="line" smooth="yes"/>
      <point x="468" y="689"/>
      <point x="475" y="683"/>
      <point x="475" y="663" type="curve" smooth="yes"/>
      <point x="475" y="650"/>
      <point x="471" y="632"/>
      <point x="466" y="604" type="curve"/>
      <point x="476" y="604" type="line"/>
      <point x="501" y="714" type="line"/>
      <point x="230" y="714" type="line"/>
      <point x="129" y="388" type="line"/>
      <point x="136" y="383" type="line"/>
      <point x="171" y="399"/>
      <point x="195" y="409"/>
      <point x="250" y="409" type="curve" smooth="yes"/>
      <point x="349" y="409"/>
      <point x="405" y="328"/>
      <point x="405" y="237" type="curve" smooth="yes"/>
      <point x="405" y="81"/>
      <point x="316" y="0"/>
      <point x="202" y="0" type="curve" smooth="yes"/>
      <point x="108" y="0"/>
      <point x="59" y="71"/>
      <point x="59" y="148" type="curve"/>
      <point x="42" y="148"/>
      <point x="34" y="138"/>
      <point x="34" y="121" type="curve" smooth="yes"/>
      <point x="34" y="69"/>
      <point x="85" y="-10"/>
    </contour>
  </outline>
</glyph>
<glyph name="seven" format="2">
  <advance width="511"/>
  <unicode hex="0037"/>
  <outline>
    <contour>
      <point x="162" y="0" type="line"/>
      <point x="191" y="0" type="line"/>
      <point x="544" y="692" type="line"/>
      <point x="549" y="714" type="line"/>
      <point x="159" y="714" type="line"/>
      <point x="120" y="569" type="line"/>
      <point x="130" y="569" type="line"/>
      <point x="158" y="663" type="line" smooth="yes"/>
      <point x="165" y="686"/>
      <point x="169" y="689"/>
      <point x="189" y="689" type="curve" smooth="yes"/>
      <point x="532" y="689" type="line"/>
    </contour>
  </outline>
</glyph>
<glyph name="eight" format="2">
  <advance width="511"/>
  <unicode hex="0038"/>
  <outline>
    <contour>
      <point x="230" y="-10" type="curve" smooth="yes"/>
      <point x="356" y="-10"/>
      <point x="458" y="46"/>
      <point x="458" y="183" type="curve" smooth="yes"/>
      <point x="458" y="273"/>
      <point x="403" y="331"/>
      <point x="297" y="380" type="curve"/>
      <point x="424" y="417"/>
      <point x="509" y="477"/>
      <point x="509" y="578" type="curve" smooth="yes"/>
      <point x="509" y="662"/>
      <point x="450" y="724"/>
      <point x="332" y="724" type="curve" smooth="yes"/>
      <point x="198" y="724"/>
      <point x="127" y="638"/>
      <point x="127" y="550" type="curve" smooth="yes"/>
      <point x="127" y="478"/>
      <point x="170" y="427"/>
      <point x="255" y="379" type="curve"/>
      <point x="127" y="341"/>
      <point x="32" y="264"/>
      <point x="32" y="152" type="curve" smooth="yes"/>
      <point x="32" y="56"/>
      <point x="100" y="-10"/>
    </contour>
    <contour>
      <point x="231" y="0" type="curve" smooth="yes"/>
      <point x="124" y="0"/>
      <point x="60" y="56"/>
      <point x="60" y="153" type="curve" smooth="yes"/>
      <point x="60" y="256"/>
      <point x="138" y="335"/>
      <point x="265" y="371" type="curve"/>
      <point x="376" y="321"/>
      <point x="430" y="272"/>
      <point x="430" y="181" type="curve" smooth="yes"/>
      <point x="430" y="63"/>
      <point x="356" y="0"/>
    </contour>
    <contour>
      <point x="287" y="387" type="curve"/>
      <point x="196" y="434"/>
      <point x="155" y="483"/>
      <point x="155" y="550" type="curve" smooth="yes"/>
      <point x="155" y="657"/>
      <point x="227" y="714"/>
      <point x="332" y="714" type="curve" smooth="yes"/>
      <point x="438" y="714"/>
      <point x="481" y="654"/>
      <point x="481" y="578" type="curve" smooth="yes"/>
      <point x="481" y="488"/>
      <point x="429" y="430"/>
    </contour>
  </outline>
</glyph>
<glyph name="nine" format="2">
  <advance width="511"/>
  <unicode hex="0039"/>
  <outline>
    <contour>
      <point x="164" y="-10" type="curve" smooth="yes"/>
      <point x="365" y="-10"/>
      <point x="473" y="244"/>
      <point x="473" y="490" type="curve" smooth="yes"/>
      <point x="473" y="629"/>
      <point x="416" y="724"/>
      <point x="303" y="724" type="curve" smooth="yes"/>
      <point x="185" y="724"/>
      <point x="96" y="631"/>
      <point x="96" y="476" type="curve" smooth="yes"/>
      <point x="96" y="367"/>
      <point x="154" y="296"/>
      <point x="254" y="296" type="curve" smooth="yes"/>
      <point x="325" y="296"/>
      <point x="401" y="328"/>
      <point x="440" y="381" type="curve"/>
      <point x="412" y="170"/>
      <point x="310" y="0"/>
      <point x="164" y="0" type="curve" smooth="yes"/>
      <point x="87" y="0"/>
      <point x="63" y="43"/>
      <point x="63" y="121" type="curve"/>
      <point x="44" y="121"/>
      <point x="36" y="109"/>
      <point x="36" y="90" type="curve" smooth="yes"/>
      <point x="36" y="45"/>
      <point x="64" y="-10"/>
    </contour>
    <contour>
      <point x="254" y="306" type="curve" smooth="yes"/>
      <point x="171" y="306"/>
      <point x="124" y="384"/>
      <point x="124" y="476" type="curve" smooth="yes"/>
      <point x="124" y="641"/>
      <point x="200" y="714"/>
      <point x="306" y="714" type="curve" smooth="yes"/>
      <point x="400" y="714"/>
      <point x="445" y="623"/>
      <point x="445" y="490" type="curve" smooth="yes"/>
      <point x="445" y="474"/>
      <point x="443" y="419"/>
      <point x="440" y="393" type="curve"/>
      <point x="402" y="348"/>
      <point x="338" y="306"/>
    </contour>
  </outline>
</glyph>
<glyph name="colon" format="2">
  <advance width="195"/>
  <unicode hex="003A"/>
  <outline>
    <contour>
      <point x="34" y="-7" type="curve" smooth="yes"/>
      <point x="60" y="-7"/>
      <point x="70" y="23"/>
      <point x="70" y="49" type="curve" smooth="yes"/>
      <point x="70" y="66"/>
      <point x="63" y="73"/>
      <point x="51" y="73" type="curve" smooth="yes"/>
      <point x="24" y="73"/>
      <point x="16" y="42"/>
      <point x="16" y="17" type="curve" smooth="yes"/>
      <point x="16" y="-1"/>
      <point x="23" y="-7"/>
    </contour>
    <contour>
      <point x="131" y="461" type="curve" smooth="yes"/>
      <point x="157" y="461"/>
      <point x="167" y="491"/>
      <point x="167" y="517" type="curve" smooth="yes"/>
      <point x="167" y="534"/>
      <point x="160" y="541"/>
      <point x="148" y="541" type="curve" smooth="yes"/>
      <point x="121" y="541"/>
      <point x="113" y="510"/>
      <point x="113" y="485" type="curve" smooth="yes"/>
      <point x="113" y="467"/>
      <point x="120" y="461"/>
    </contour>
  </outline>
</glyph>
<glyph name="semicolon" format="2">
  <advance width="195"/>
  <unicode hex="003B"/>
  <outline>
    <contour>
      <point x="-47" y="-140" type="line"/>
      <point x="46" y="-116"/>
      <point x="66" y="-53"/>
      <point x="66" y="15" type="curve" smooth="yes"/>
      <point x="66" y="51"/>
      <point x="52" y="73"/>
      <point x="32" y="73" type="curve" smooth="yes"/>
      <point x="12" y="73"/>
      <point x="2" y="59"/>
      <point x="2" y="42" type="curve" smooth="yes"/>
      <point x="2" y="11"/>
      <point x="51" y="13"/>
      <point x="51" y="-21" type="curve" smooth="yes"/>
      <point x="51" y="-61"/>
      <point x="24" y="-116"/>
      <point x="-50" y="-131" type="curve"/>
    </contour>
    <contour>
      <point x="131" y="461" type="curve" smooth="yes"/>
      <point x="157" y="461"/>
      <point x="167" y="491"/>
      <point x="167" y="517" type="curve" smooth="yes"/>
      <point x="167" y="534"/>
      <point x="160" y="541"/>
      <point x="148" y="541" type="curve" smooth="yes"/>
      <point x="121" y="541"/>
      <point x="113" y="510"/>
      <point x="113" y="485" type="curve" smooth="yes"/>
      <point x="113" y="467"/>
      <point x="120" y="461"/>
    </contour>
  </outline>
</glyph>
<glyph name="question" format="2">
  <advance width="437"/>
  <unicode hex="003F"/>
  <outline>
    <contour>
      <point x="179" y="330" type="curve"/>
      <point x="162" y="187" type="line"/>
      <point x="172" y="187" type="line"/>
      <point x="204" y="325" type="line"/>
      <point x="364" y="361"/>
      <point x="441" y="457"/>
      <point x="441" y="576" type="curve" smooth="yes"/>
      <point x="441" y="665"/>
      <point x="378" y="724"/>
      <point x="287" y="724" type="curve" smooth="yes"/>
      <point x="167" y="724"/>
      <point x="113" y="651"/>
      <point x="113" y="579" type="curve" smooth="yes"/>
      <point x="113" y="563"/>
      <point x="119" y="553"/>
      <point x="132" y="553" type="curve"/>
      <point x="140" y="643"/>
      <point x="176" y="714"/>
      <point x="287" y="714" type="curve" smooth="yes"/>
      <point x="359" y="714"/>
      <point x="413" y="672"/>
      <point x="413" y="576" type="curve" smooth="yes"/>
      <point x="413" y="463"/>
      <point x="341" y="358"/>
    </contour>
    <contour>
      <point x="136" y="-7" type="curve" smooth="yes"/>
      <point x="162" y="-7"/>
      <point x="172" y="23"/>
      <point x="172" y="49" type="curve" smooth="yes"/>
      <point x="172" y="66"/>
      <point x="165" y="73"/>
      <point x="153" y="73" type="curve" smooth="yes"/>
      <point x="126" y="73"/>
      <point x="118" y="42"/>
      <point x="118" y="17" type="curve" smooth="yes"/>
      <point x="118" y="-1"/>
      <point x="125" y="-7"/>
    </contour>
  </outline>
</glyph>
<glyph name="B" format="2">
  <advance width="611"/>
  <unicode hex="0042"/>
  <anchor x="264" y="0" name="bottom"/>
  <anchor x="416" y="714" name="top"/>
  <anchor x="711" y="714" name="topright"/>
  <outline>
    <contour>
      <point x="-8" y="0" type="line"/>
      <point x="263" y="0" type="line" smooth="yes"/>
      <point x="452" y="0"/>
      <point x="530" y="88"/>
      <point x="530" y="228" type="curve" smooth="yes"/>
      <point x="530" y="307"/>
      <point x="468" y="361"/>
      <point x="396" y="374" type="curve"/>
      <point x="397" y="378" type="line"/>
      <point x="501" y="392"/>
      <point x="572" y="451"/>
      <point x="572" y="564" type="curve" smooth="yes"/>
      <point x="572" y="662"/>
      <point x="512" y="714"/>
      <point x="349" y="714" type="curve" smooth="yes"/>
      <point x="143" y="714" type="line"/>
      <point x="141" y="704" type="line"/>
      <point x="197" y="704" type="line" smooth="yes"/>
      <point x="224" y="704"/>
      <point x="234" y="699"/>
      <point x="234" y="684" type="curve" smooth="yes"/>
      <point x="234" y="681"/>
      <point x="234" y="678"/>
      <point x="233" y="674" type="curve" smooth="yes"/>
      <point x="99" y="42" type="line" smooth="yes"/>
      <point x="93" y="14"/>
      <point x="78" y="10"/>
      <point x="33" y="10" type="curve" smooth="yes"/>
      <point x="-4" y="10" type="line"/>
    </contour>
    <contour>
      <point x="260" y="10" type="curve" smooth="yes"/>
      <point x="120" y="10" type="line"/>
      <point x="197" y="372" type="line"/>
      <point x="306" y="372" type="line" smooth="yes"/>
      <point x="434" y="372"/>
      <point x="502" y="321"/>
      <point x="502" y="231" type="curve" smooth="yes"/>
      <point x="502" y="93"/>
      <point x="433" y="10"/>
    </contour>
    <contour>
      <point x="305" y="382" type="curve" smooth="yes"/>
      <point x="199" y="382" type="line"/>
      <point x="267" y="704" type="line"/>
      <point x="345" y="704" type="line" smooth="yes"/>
      <point x="482" y="704"/>
      <point x="544" y="656"/>
      <point x="544" y="564" type="curve" smooth="yes"/>
      <point x="544" y="460"/>
      <point x="494" y="382"/>
    </contour>
  </outline>
</glyph>
<glyph name="C" format="2">
  <advance width="578"/>
  <unicode hex="0043"/>
  <anchor x="236" y="0" name="bottom"/>
  <anchor x="408" y="714" name="top"/>
  <anchor x="653" y="714" name="topright"/>
  <outline>
    <contour>
      <point x="307" y="-10" type="curve" smooth="yes"/>
      <point x="430" y="-10"/>
      <point x="492" y="55"/>
      <point x="492" y="104" type="curve" smooth="yes"/>
      <point x="492" y="113"/>
      <point x="489" y="116"/>
      <point x="484" y="118" type="curve"/>
      <point x="457" y="51"/>
      <point x="402" y="0"/>
      <point x="306" y="0" type="curve" smooth="yes"/>
      <point x="178" y="0"/>
      <point x="89" y="108"/>
      <point x="89" y="256" type="curve" smooth="yes"/>
      <point x="89" y="473"/>
      <point x="207" y="714"/>
      <point x="411" y="714" type="curve" smooth="yes"/>
      <point x="518" y="714"/>
      <point x="563" y="661"/>
      <point x="563" y="555" type="curve"/>
      <point x="581" y="555"/>
      <point x="590" y="567"/>
      <point x="590" y="585" type="curve" smooth="yes"/>
      <point x="590" y="670"/>
      <point x="528" y="724"/>
      <point x="411" y="724" type="curve" smooth="yes"/>
      <point x="198" y="724"/>
      <point x="61" y="492"/>
      <point x="61" y="256" type="curve" smooth="yes"/>
      <point x="61" y="104"/>
      <point x="155" y="-10"/>
    </contour>
  </outline>
</glyph>
<glyph name="D" format="2">
  <advance width="661"/>
  <unicode hex="0044"/>
  <anchor x="281" y="0" name="bottom"/>
  <anchor x="376" y="357" name="center"/>
  <anchor x="433" y="714" name="top"/>
  <anchor x="748" y="714" name="topright"/>
  <outline>
    <contour>
      <point x="-7" y="0" type="line"/>
      <point x="260" y="0" type="line" smooth="yes"/>
      <point x="503" y="0"/>
      <point x="634" y="204"/>
      <point x="634" y="442" type="curve" smooth="yes"/>
      <point x="634" y="619"/>
      <point x="539" y="714"/>
      <point x="363" y="714" type="curve" smooth="yes"/>
      <point x="143" y="714" type="line"/>
      <point x="142" y="704" type="line"/>
      <point x="200" y="704" type="line" smooth="yes"/>
      <point x="225" y="704"/>
      <point x="235" y="699"/>
      <point x="235" y="684" type="curve" smooth="yes"/>
      <point x="235" y="681"/>
      <point x="235" y="678"/>
      <point x="234" y="674" type="curve" smooth="yes"/>
      <point x="103" y="55" type="line" smooth="yes"/>
      <point x="95" y="16"/>
      <point x="86" y="10"/>
      <point x="37" y="10" type="curve" smooth="yes"/>
      <point x="-3" y="10" type="line"/>
    </contour>
    <contour>
      <point x="121" y="10" type="line"/>
      <point x="268" y="704" type="line"/>
      <point x="363" y="704" type="line" smooth="yes"/>
      <point x="504" y="704"/>
      <point x="606" y="621"/>
      <point x="606" y="441" type="curve" smooth="yes"/>
      <point x="606" y="189"/>
      <point x="471" y="10"/>
      <point x="257" y="10" type="curve" smooth="yes"/>
    </contour>
  </outline>
</glyph>
<glyph name="E" format="2">
  <advance width="597"/>
  <unicode hex="0045"/>
  <anchor x="253" y="0" name="bottom"/>
  <anchor x="395" y="714" name="top"/>
  <anchor x="690" y="714" name="topright"/>
  <outline>
    <contour>
      <point x="-7" y="0" type="line"/>
      <point x="479" y="0" type="line"/>
      <point x="519" y="161" type="line"/>
      <point x="509" y="161" type="line"/>
      <point x="491" y="100" type="line" smooth="yes"/>
      <point x="467" y="18"/>
      <point x="460" y="10"/>
      <point x="397" y="10" type="curve" smooth="yes"/>
      <point x="120" y="10" type="line"/>
      <point x="196" y="372" type="line"/>
      <point x="457" y="372" type="line"/>
      <point x="458" y="382" type="line"/>
      <point x="199" y="382" type="line"/>
      <point x="267" y="704" type="line"/>
      <point x="514" y="704" type="line" smooth="yes"/>
      <point x="554" y="704"/>
      <point x="568" y="690"/>
      <point x="568" y="647" type="curve" smooth="yes"/>
      <point x="568" y="625"/>
      <point x="564" y="594"/>
      <point x="558" y="553" type="curve"/>
      <point x="568" y="553" type="line"/>
      <point x="598" y="714" type="line"/>
      <point x="144" y="714" type="line"/>
      <point x="141" y="704" type="line"/>
      <point x="200" y="704" type="line" smooth="yes"/>
      <point x="225" y="704"/>
      <point x="234" y="697"/>
      <point x="234" y="684" type="curve" smooth="yes"/>
      <point x="234" y="681"/>
      <point x="234" y="678"/>
      <point x="233" y="675" type="curve" smooth="yes"/>
      <point x="99" y="43" type="line" smooth="yes"/>
      <point x="95" y="22"/>
      <point x="89" y="10"/>
      <point x="39" y="10" type="curve" smooth="yes"/>
      <point x="-4" y="10" type="line"/>
    </contour>
  </outline>
</glyph>
<glyph name="F" format="2">
  <advance width="546"/>
  <unicode hex="0046"/>
  <anchor x="105" y="0" name="bottom"/>
  <anchor x="374" y="714" name="top"/>
  <anchor x="628" y="714" name="topright"/>
  <outline>
    <contour>
      <point x="-9" y="0" type="line"/>
      <point x="231" y="0" type="line"/>
      <point x="233" y="10" type="line"/>
      <point x="176" y="10" type="line" smooth="yes"/>
      <point x="141" y="10"/>
      <point x="126" y="12"/>
      <point x="126" y="32" type="curve" smooth="yes"/>
      <point x="126" y="36"/>
      <point x="127" y="41"/>
      <point x="128" y="47" type="curve" smooth="yes"/>
      <point x="191" y="349" type="line"/>
      <point x="452" y="349" type="line"/>
      <point x="453" y="359" type="line"/>
      <point x="194" y="359" type="line"/>
      <point x="267" y="704" type="line"/>
      <point x="503" y="704" type="line" smooth="yes"/>
      <point x="547" y="704"/>
      <point x="560" y="689"/>
      <point x="560" y="656" type="curve" smooth="yes"/>
      <point x="560" y="632"/>
      <point x="554" y="598"/>
      <point x="547" y="553" type="curve"/>
      <point x="557" y="553" type="line"/>
      <point x="587" y="714" type="line"/>
      <point x="144" y="714" type="line"/>
      <point x="141" y="704" type="line"/>
      <point x="193" y="704" type="line" smooth="yes"/>
      <point x="225" y="704"/>
      <point x="234" y="700"/>
      <point x="234" y="685" type="curve" smooth="yes"/>
      <point x="234" y="679"/>
      <point x="232" y="671"/>
      <point x="230" y="660" type="curve" smooth="yes"/>
      <point x="99" y="43" type="line" smooth="yes"/>
      <point x="93" y="14"/>
      <point x="78" y="10"/>
      <point x="37" y="10" type="curve" smooth="yes"/>
      <point x="-7" y="10" type="line"/>
    </contour>
  </outline>
</glyph>
<glyph name="I" format="2">
  <advance width="304"/>
  <unicode hex="0049"/>
  <anchor x="109" y="0" name="bottom"/>
  <anchor x="252" y="714" name="top"/>
  <anchor x="403" y="714" name="topright"/>
  <outline>
    <contour>
      <point x="-9" y="0" type="line"/>
      <point x="217" y="0" type="line"/>
      <point x="219" y="10" type="line"/>
      <point x="176" y="10" type="line" smooth="yes"/>
      <point x="139" y="10"/>
      <point x="128" y="16"/>
      <point x="128" y="36" type="curve" smooth="yes"/>
      <point x="128" y="45"/>
      <point x="130" y="56"/>
      <point x="133" y="70" type="curve" smooth="yes"/>
      <point x="254" y="643" type="line" smooth="yes"/>
      <point x="265" y="693"/>
      <point x="274" y="704"/>
      <point x="324" y="704" type="curve" smooth="yes"/>
      <point x="367" y="704" type="line"/>
      <point x="369" y="714" type="line"/>
      <point x="143" y="714" type="line"/>
      <point x="141" y="704" type="line"/>
      <point x="184" y="704" type="line" smooth="yes"/>
      <point x="223" y="704"/>
      <point x="232" y="694"/>
      <point x="232" y="677" type="curve" smooth="yes"/>
      <point x="232" y="669"/>
      <point x="230" y="660"/>
      <point x="228" y="649" type="curve" smooth="yes"/>
      <point x="104" y="64" type="line" smooth="yes"/>
      <point x="95" y="21"/>
      <point x="86" y="10"/>
      <point x="36" y="10" type="curve" smooth="yes"/>
      <point x="-7" y="10" type="line"/>
    </contour>
  </outline>
</glyph>
<glyph name="J" format="2">
  <advance width="309"/>
  <unicode hex="004A"/>
  <anchor x="-65" y="-240" name="bottom"/>
  <anchor x="239" y="714" name="top"/>
  <anchor x="368" y="714" name="topright"/>
  <outline>
    <contour>
      <point x="-65" y="-240" type="curve" smooth="yes"/>
      <point x="21" y="-240"/>
      <point x="65" y="-188"/>
      <point x="100" y="-25" type="curve" smooth="yes"/>
      <point x="248" y="660" type="line" smooth="yes"/>
      <point x="255" y="693"/>
      <point x="263" y="704"/>
      <point x="313" y="704" type="curve" smooth="yes"/>
      <point x="362" y="704" type="line"/>
      <point x="364" y="714" type="line"/>
      <point x="122" y="714" type="line"/>
      <point x="120" y="704" type="line"/>
      <point x="173" y="704" type="line" smooth="yes"/>
      <point x="208" y="704"/>
      <point x="222" y="697"/>
      <point x="222" y="677" type="curve" smooth="yes"/>
      <point x="222" y="672"/>
      <point x="221" y="667"/>
      <point x="220" y="661" type="curve" smooth="yes"/>
      <point x="67" y="-53" type="line" smooth="yes"/>
      <point x="40" y="-181"/>
      <point x="-1" y="-226"/>
      <point x="-78" y="-226" type="curve" smooth="yes"/>
      <point x="-96" y="-226"/>
      <point x="-115" y="-223"/>
      <point x="-137" y="-217" type="curve"/>
      <point x="-142" y="-229" type="line"/>
      <point x="-118" y="-236"/>
      <point x="-96" y="-240"/>
    </contour>
  </outline>
</glyph>
<glyph name="K" format="2">
  <advance width="651"/>
  <unicode hex="004B"/>
  <anchor x="271" y="0" name="bottom"/>
  <anchor x="423" y="714" name="top"/>
  <anchor x="726" y="714" name="topright"/>
  <outline>
    <contour>
      <point x="-9" y="0" type="line"/>
      <point x="217" y="0" type="line"/>
      <point x="219" y="10" type="line"/>
      <point x="176" y="10" type="line" smooth="yes"/>
      <point x="141" y="10"/>
      <point x="129" y="19"/>
      <point x="129" y="40" type="curve" smooth="yes"/>
      <point x="129" y="51"/>
      <point x="132" y="65"/>
      <point x="136" y="83" type="curve" smooth="yes"/>
      <point x="175" y="263" type="line"/>
      <point x="327" y="397" type="line"/>
      <point x="319" y="397" type="line"/>
      <point x="458" y="61" type="line" smooth="yes"/>
      <point x="478" y="13"/>
      <point x="503" y="0"/>
      <point x="552" y="0" type="curve" smooth="yes"/>
      <point x="580" y="0" type="line"/>
      <point x="582" y="10" type="line"/>
      <point x="556" y="10" type="line" smooth="yes"/>
      <point x="519" y="10"/>
      <point x="504" y="24"/>
      <point x="487" y="64" type="curve" smooth="yes"/>
      <point x="340" y="417" type="line"/>
      <point x="332" y="402" type="line"/>
      <point x="547" y="600" type="line" smooth="yes"/>
      <point x="659" y="704"/>
      <point x="659" y="704"/>
      <point x="712" y="704" type="curve"/>
      <point x="715" y="714" type="line"/>
      <point x="552" y="714" type="line"/>
      <point x="549" y="704" type="line"/>
      <point x="598" y="704"/>
      <point x="621" y="702"/>
      <point x="621" y="691" type="curve" smooth="yes"/>
      <point x="621" y="684"/>
      <point x="609" y="671"/>
      <point x="586" y="650" type="curve" smooth="yes"/>
      <point x="178" y="280" type="line"/>
      <point x="255" y="651" type="line" smooth="yes"/>
      <point x="265" y="700"/>
      <point x="274" y="704"/>
      <point x="324" y="704" type="curve" smooth="yes"/>
      <point x="367" y="704" type="line"/>
      <point x="369" y="714" type="line"/>
      <point x="143" y="714" type="line"/>
      <point x="141" y="704" type="line"/>
      <point x="184" y="704" type="line" smooth="yes"/>
      <point x="219" y="704"/>
      <point x="231" y="694"/>
      <point x="231" y="673" type="curve" smooth="yes"/>
      <point x="231" y="667"/>
      <point x="230" y="661"/>
      <point x="229" y="655" type="curve" smooth="yes"/>
      <point x="107" y="77" type="line" smooth="yes"/>
      <point x="95" y="21"/>
      <point x="86" y="10"/>
      <point x="36" y="10" type="curve" smooth="yes"/>
      <point x="-7" y="10" type="line"/>
    </contour>
  </outline>
</glyph>
<glyph name="L" format="2">
  <advance width="567"/>
  <unicode hex="004C"/>
  <anchor x="239" y="0" name="bottom"/>
  <anchor x="334" y="357" name="center"/>
  <anchor x="270" y="714" name="top"/>
  <anchor x="531" y="714" name="topright"/>
  <outline>
    <contour>
      <point x="-9" y="0" type="line"/>
      <point x="454" y="0" type="line"/>
      <point x="504" y="205" type="line"/>
      <point x="494" y="205" type="line"/>
      <point x="470" y="113" type="line" smooth="yes"/>
      <point x="449" y="31"/>
      <point x="435" y="10"/>
      <point x="372" y="10" type="curve" smooth="yes"/>
      <point x="120" y="10" type="line"/>
      <point x="257" y="654" type="line" smooth="yes"/>
      <point x="266" y="694"/>
      <point x="274" y="704"/>
      <point x="324" y="704" type="curve" smooth="yes"/>
      <point x="367" y="704" type="line"/>
      <point x="369" y="714" type="line"/>
      <point x="143" y="714" type="line"/>
      <point x="141" y="704" type="line"/>
      <point x="184" y="704" type="line" smooth="yes"/>
      <point x="214" y="704"/>
      <point x="233" y="705"/>
      <point x="233" y="681" type="curve" smooth="yes"/>
      <point x="233" y="677"/>
      <point x="232" y="672"/>
      <point x="231" y="666" type="curve" smooth="yes"/>
      <point x="107" y="84" type="line" smooth="yes"/>
      <point x="92" y="14"/>
      <point x="88" y="10"/>
      <point x="29" y="10" type="curve" smooth="yes"/>
      <point x="-4" y="10" type="line"/>
    </contour>
  </outline>
</glyph>
<glyph name="M" format="2">
  <advance width="900"/>
  <unicode hex="004D"/>
  <anchor x="408" y="0" name="bottom"/>
  <anchor x="560" y="714" name="top"/>
  <anchor x="999" y="714" name="topright"/>
  <outline>
    <contour>
      <point x="-9" y="0" type="line"/>
      <point x="201" y="0" type="line"/>
      <point x="203" y="10" type="line"/>
      <point x="158" y="10" type="line" smooth="yes"/>
      <point x="120" y="10"/>
      <point x="110" y="20"/>
      <point x="110" y="38" type="curve" smooth="yes"/>
      <point x="110" y="46"/>
      <point x="112" y="55"/>
      <point x="114" y="65" type="curve" smooth="yes"/>
      <point x="243" y="674" type="line"/>
      <point x="392" y="0" type="line"/>
      <point x="405" y="0" type="line"/>
      <point x="832" y="696" type="line"/>
      <point x="707" y="98" type="line" smooth="yes"/>
      <point x="691" y="20"/>
      <point x="682" y="10"/>
      <point x="632" y="10" type="curve" smooth="yes"/>
      <point x="587" y="10" type="line"/>
      <point x="585" y="0" type="line"/>
      <point x="813" y="0" type="line"/>
      <point x="815" y="10" type="line"/>
      <point x="772" y="10" type="line" smooth="yes"/>
      <point x="739" y="10"/>
      <point x="726" y="11"/>
      <point x="726" y="37" type="curve" smooth="yes"/>
      <point x="726" y="50"/>
      <point x="730" y="68"/>
      <point x="735" y="94" type="curve" smooth="yes"/>
      <point x="854" y="660" type="line" smooth="yes"/>
      <point x="862" y="697"/>
      <point x="870" y="704"/>
      <point x="920" y="704" type="curve" smooth="yes"/>
      <point x="963" y="704" type="line"/>
      <point x="965" y="714" type="line"/>
      <point x="830" y="714" type="line"/>
      <point x="412" y="31" type="line"/>
      <point x="266" y="714" type="line"/>
      <point x="143" y="714" type="line"/>
      <point x="141" y="704" type="line"/>
      <point x="184" y="704" type="line" smooth="yes"/>
      <point x="217" y="704"/>
      <point x="230" y="699"/>
      <point x="230" y="673" type="curve" smooth="yes"/>
      <point x="230" y="660"/>
      <point x="227" y="642"/>
      <point x="221" y="616" type="curve" smooth="yes"/>
      <point x="104" y="67" type="line" smooth="yes"/>
      <point x="94" y="21"/>
      <point x="86" y="10"/>
      <point x="36" y="10" type="curve" smooth="yes"/>
      <point x="-7" y="10" type="line"/>
    </contour>
  </outline>
</glyph>
<glyph name="N" format="2">
  <advance width="684"/>
  <unicode hex="004E"/>
  <anchor x="313" y="0" name="bottom"/>
  <anchor x="445" y="714" name="top"/>
  <anchor x="810" y="714" name="topright"/>
  <outline>
    <contour>
      <point x="-9" y="0" type="line"/>
      <point x="219" y="0" type="line"/>
      <point x="221" y="10" type="line"/>
      <point x="149" y="10" type="line" smooth="yes"/>
      <point x="118" y="10"/>
      <point x="109" y="17"/>
      <point x="109" y="33" type="curve" smooth="yes"/>
      <point x="109" y="43"/>
      <point x="112" y="57"/>
      <point x="116" y="75" type="curve" smooth="yes"/>
      <point x="247" y="693" type="line"/>
      <point x="494" y="0" type="line"/>
      <point x="508" y="0" type="line"/>
      <point x="639" y="616" type="line" smooth="yes"/>
      <point x="655" y="693"/>
      <point x="664" y="704"/>
      <point x="714" y="704" type="curve" smooth="yes"/>
      <point x="757" y="704" type="line"/>
      <point x="759" y="714" type="line"/>
      <point x="531" y="714" type="line"/>
      <point x="529" y="704" type="line"/>
      <point x="592" y="704" type="line" smooth="yes"/>
      <point x="626" y="704"/>
      <point x="638" y="696"/>
      <point x="638" y="672" type="curve" smooth="yes"/>
      <point x="638" y="659"/>
      <point x="635" y="640"/>
      <point x="629" y="616" type="curve" smooth="yes"/>
      <point x="506" y="37" type="line"/>
      <point x="269" y="714" type="line"/>
      <point x="143" y="714" type="line"/>
      <point x="141" y="704" type="line"/>
      <point x="202" y="704" type="line" smooth="yes"/>
      <point x="224" y="704"/>
      <point x="232" y="699"/>
      <point x="232" y="683" type="curve" smooth="yes"/>
      <point x="232" y="675"/>
      <point x="231" y="666"/>
      <point x="228" y="653" type="curve" smooth="yes"/>
      <point x="102" y="62" type="line" smooth="yes"/>
      <point x="92" y="16"/>
      <point x="86" y="10"/>
      <point x="36" y="10" type="curve" smooth="yes"/>
      <point x="-7" y="10" type="line"/>
    </contour>
  </outline>
</glyph>
<glyph name="O" format="2">
  <advance width="689"/>
  <unicode hex="004F"/>
  <anchor x="299" y="0" name="bottom"/>
  <anchor x="394" y="357" name="center"/>
  <anchor x="441" y="714" name="top"/>
  <anchor x="769" y="714" name="topright"/>
  <outline>
    <contour>
      <point x="301" y="-11" type="curve" smooth="yes"/>
      <point x="546" y="-11"/>
      <point x="665" y="249"/>
      <point x="665" y="450" type="curve" smooth="yes"/>
      <point x="665" y="641"/>
      <point x="554" y="725"/>
      <point x="428" y="725" type="curve" smooth="yes"/>
      <point x="184" y="725"/>
      <point x="61" y="458"/>
      <point x="61" y="266" type="curve" smooth="yes"/>
      <point x="61" y="76"/>
      <point x="166" y="-11"/>
    </contour>
    <contour>
      <point x="301" y="-1" type="curve" smooth="yes"/>
      <point x="186" y="-1"/>
      <point x="89" y="64"/>
      <point x="89" y="266" type="curve" smooth="yes"/>
      <point x="89" y="494"/>
      <point x="216" y="715"/>
      <point x="428" y="715" type="curve" smooth="yes"/>
      <point x="548" y="715"/>
      <point x="637" y="642"/>
      <point x="637" y="449" type="curve" smooth="yes"/>
      <point x="637" y="222"/>
      <point x="519" y="-1"/>
    </contour>
  </outline>
</glyph>
<glyph name="Q" format="2">
  <advance width="691"/>
  <unicode hex="0051"/>
  <anchor x="246" y="-208" name="bottom"/>
  <anchor x="362" y="357" name="center"/>
  <anchor x="442" y="714" name="top"/>
  <anchor x="764" y="714" name="topright"/>
  <outline>
    <contour>
      <point x="442" y="-208" type="curve" smooth="yes"/>
      <point x="494" y="-208"/>
      <point x="515" y="-202"/>
      <point x="553" y="-192" type="curve"/>
      <point x="550" y="-182" type="line"/>
      <point x="516" y="-190"/>
      <point x="482" y="-194"/>
      <point x="456" y="-194" type="curve" smooth="yes"/>
      <point x="363" y="-194"/>
      <point x="320" y="-145"/>
      <point x="311" y="-11" type="curve"/>
      <point x="549" y="-4"/>
      <point x="665" y="249"/>
      <point x="665" y="450" type="curve" smooth="yes"/>
      <point x="665" y="641"/>
      <point x="554" y="725"/>
      <point x="428" y="725" type="curve" smooth="yes"/>
      <point x="184" y="725"/>
      <point x="61" y="458"/>
      <point x="61" y="266" type="curve" smooth="yes"/>
      <point x="61" y="83"/>
      <point x="157" y="-2"/>
      <point x="283" y="-10" type="curve"/>
      <point x="296" y="-140"/>
      <point x="337" y="-208"/>
    </contour>
    <contour>
      <point x="301" y="-1" type="curve" smooth="yes"/>
      <point x="186" y="-1"/>
      <point x="89" y="64"/>
      <point x="89" y="266" type="curve" smooth="yes"/>
      <point x="89" y="481"/>
      <point x="209" y="715"/>
      <point x="424" y="715" type="curve" smooth="yes"/>
      <point x="544" y="715"/>
      <point x="637" y="647"/>
      <point x="637" y="449" type="curve" smooth="yes"/>
      <point x="637" y="221"/>
      <point x="519" y="-1"/>
    </contour>
  </outline>
</glyph>
<glyph name="R" format="2">
  <advance width="567"/>
  <unicode hex="0052"/>
  <anchor x="253" y="0" name="bottom"/>
  <anchor x="375" y="714" name="top"/>
  <anchor x="688" y="714" name="topright"/>
  <outline>
    <contour>
      <point x="-9" y="0" type="line"/>
      <point x="232" y="0" type="line"/>
      <point x="234" y="10" type="line"/>
      <point x="175" y="10" type="line" smooth="yes"/>
      <point x="136" y="10"/>
      <point x="127" y="20"/>
      <point x="127" y="36" type="curve" smooth="yes"/>
      <point x="127" y="44"/>
      <point x="129" y="53"/>
      <point x="131" y="64" type="curve" smooth="yes"/>
      <point x="187" y="332" type="line"/>
      <point x="300" y="332" type="line"/>
      <point x="374" y="90" type="line" smooth="yes"/>
      <point x="397" y="13"/>
      <point x="419" y="0"/>
      <point x="469" y="0" type="curve" smooth="yes"/>
      <point x="500" y="0" type="line"/>
      <point x="502" y="10" type="line"/>
      <point x="480" y="10" type="line" smooth="yes"/>
      <point x="436" y="10"/>
      <point x="423" y="27"/>
      <point x="401" y="96" type="curve" smooth="yes"/>
      <point x="327" y="332" type="line"/>
      <point x="500" y="341"/>
      <point x="545" y="465"/>
      <point x="545" y="541" type="curve" smooth="yes"/>
      <point x="545" y="656"/>
      <point x="475" y="714"/>
      <point x="349" y="714" type="curve" smooth="yes"/>
      <point x="144" y="714" type="line"/>
      <point x="141" y="704" type="line"/>
      <point x="189" y="704" type="line" smooth="yes"/>
      <point x="220" y="704"/>
      <point x="231" y="700"/>
      <point x="231" y="679" type="curve" smooth="yes"/>
      <point x="231" y="672"/>
      <point x="230" y="662"/>
      <point x="227" y="650" type="curve" smooth="yes"/>
      <point x="105" y="75" type="line" smooth="yes"/>
      <point x="94" y="21"/>
      <point x="85" y="10"/>
      <point x="35" y="10" type="curve" smooth="yes"/>
      <point x="-7" y="10" type="line"/>
    </contour>
    <contour>
      <point x="189" y="342" type="line"/>
      <point x="266" y="704" type="line"/>
      <point x="347" y="704" type="line" smooth="yes"/>
      <point x="465" y="704"/>
      <point x="517" y="649"/>
      <point x="517" y="541" type="curve" smooth="yes"/>
      <point x="517" y="428"/>
      <point x="445" y="342"/>
      <point x="305" y="342" type="curve" smooth="yes"/>
    </contour>
  </outline>
</glyph>
<glyph name="S" format="2">
  <advance width="489"/>
  <unicode hex="0053"/>
  <anchor x="189" y="0" name="bottom"/>
  <anchor x="341" y="714" name="top"/>
  <anchor x="564" y="714" name="topright"/>
  <outline>
    <contour>
      <point x="195" y="-10" type="curve" smooth="yes"/>
      <point x="339" y="-10"/>
      <point x="428" y="58"/>
      <point x="428" y="174" type="curve" smooth="yes"/>
      <point x="428" y="257"/>
      <point x="392" y="296"/>
      <point x="266" y="377" type="curve" smooth="yes"/>
      <point x="192" y="424"/>
      <point x="145" y="464"/>
      <point x="145" y="534" type="curve" smooth="yes"/>
      <point x="145" y="660"/>
      <point x="238" y="714"/>
      <point x="328" y="714" type="curve" smooth="yes"/>
      <point x="443" y="714"/>
      <point x="461" y="657"/>
      <point x="461" y="575" type="curve"/>
      <point x="477" y="575"/>
      <point x="488" y="585"/>
      <point x="488" y="605" type="curve" smooth="yes"/>
      <point x="488" y="660"/>
      <point x="452" y="724"/>
      <point x="328" y="724" type="curve" smooth="yes"/>
      <point x="199" y="724"/>
      <point x="122" y="640"/>
      <point x="122" y="534" type="curve" smooth="yes"/>
      <point x="122" y="446"/>
      <point x="173" y="403"/>
      <point x="252" y="354" type="curve" smooth="yes"/>
      <point x="373" y="279"/>
      <point x="404" y="242"/>
      <point x="404" y="174" type="curve" smooth="yes"/>
      <point x="404" y="63"/>
      <point x="320" y="0"/>
      <point x="195" y="0" type="curve" smooth="yes"/>
      <point x="71" y="0"/>
      <point x="20" y="65"/>
      <point x="20" y="188" type="curve"/>
      <point x="4" y="187"/>
      <point x="-7" y="177"/>
      <point x="-7" y="158" type="curve" smooth="yes"/>
      <point x="-7" y="64"/>
      <point x="56" y="-10"/>
    </contour>
  </outline>
</glyph>
<glyph name="T" format="2">
  <advance width="562"/>
  <unicode hex="0054"/>
  <anchor x="234" y="0" name="bottom"/>
  <anchor x="329" y="357" name="center"/>
  <anchor x="386" y="714" name="top"/>
  <anchor x="647" y="714" name="topright"/>
  <outline>
    <contour>
      <point x="85" y="0" type="line"/>
      <point x="356" y="0" type="line"/>
      <point x="359" y="10" type="line"/>
      <point x="322" y="10" type="line" smooth="yes"/>
      <point x="271" y="10"/>
      <point x="249" y="12"/>
      <point x="249" y="46" type="curve" smooth="yes"/>
      <point x="249" y="56"/>
      <point x="251" y="68"/>
      <point x="254" y="84" type="curve" smooth="yes"/>
      <point x="386" y="704" type="line"/>
      <point x="535" y="704" type="line" smooth="yes"/>
      <point x="580" y="704"/>
      <point x="594" y="692"/>
      <point x="594" y="656" type="curve" smooth="yes"/>
      <point x="594" y="634"/>
      <point x="589" y="604"/>
      <point x="582" y="563" type="curve"/>
      <point x="592" y="563" type="line"/>
      <point x="620" y="714" type="line"/>
      <point x="132" y="714" type="line"/>
      <point x="96" y="563" type="line"/>
      <point x="106" y="563" type="line"/>
      <point x="122" y="626" type="line" smooth="yes"/>
      <point x="139" y="695"/>
      <point x="166" y="704"/>
      <point x="243" y="704" type="curve" smooth="yes"/>
      <point x="358" y="704" type="line"/>
      <point x="228" y="92" type="line" smooth="yes"/>
      <point x="212" y="15"/>
      <point x="194" y="10"/>
      <point x="124" y="10" type="curve" smooth="yes"/>
      <point x="88" y="10" type="line"/>
    </contour>
  </outline>
</glyph>
<glyph name="U" format="2">
  <advance width="704"/>
  <unicode hex="0055"/>
  <anchor x="298" y="0" name="bottom"/>
  <anchor x="450" y="714" name="top"/>
  <anchor x="809" y="714" name="topright"/>
  <outline>
    <contour>
      <point x="318" y="-10" type="curve" smooth="yes"/>
      <point x="477" y="-10"/>
      <point x="534" y="71"/>
      <point x="562" y="204" type="curve" smooth="yes"/>
      <point x="649" y="616" type="line" smooth="yes"/>
      <point x="666" y="698"/>
      <point x="674" y="704"/>
      <point x="724" y="704" type="curve" smooth="yes"/>
      <point x="767" y="704" type="line"/>
      <point x="769" y="714" type="line"/>
      <point x="551" y="714" type="line"/>
      <point x="549" y="704" type="line"/>
      <point x="587" y="704" type="line" smooth="yes"/>
      <point x="624" y="704"/>
      <point x="646" y="699"/>
      <point x="646" y="659" type="curve" smooth="yes"/>
      <point x="646" y="648"/>
      <point x="644" y="634"/>
      <point x="640" y="616" type="curve" smooth="yes"/>
      <point x="551" y="209" type="line" smooth="yes"/>
      <point x="527" y="101"/>
      <point x="480" y="4"/>
      <point x="322" y="4" type="curve" smooth="yes"/>
      <point x="217" y="4"/>
      <point x="146" y="61"/>
      <point x="146" y="159" type="curve" smooth="yes"/>
      <point x="146" y="177"/>
      <point x="149" y="218"/>
      <point x="160" y="268" type="curve" smooth="yes"/>
      <point x="235" y="616" type="line" smooth="yes"/>
      <point x="252" y="693"/>
      <point x="260" y="704"/>
      <point x="310" y="704" type="curve" smooth="yes"/>
      <point x="355" y="704" type="line"/>
      <point x="357" y="714" type="line"/>
      <point x="129" y="714" type="line"/>
      <point x="127" y="704" type="line"/>
      <point x="170" y="704" type="line" smooth="yes"/>
      <point x="204" y="704"/>
      <point x="216" y="696"/>
      <point x="216" y="672" type="curve" smooth="yes"/>
      <point x="216" y="659"/>
      <point x="213" y="640"/>
      <point x="207" y="616" type="curve" smooth="yes"/>
      <point x="132" y="267" type="line" smooth="yes"/>
      <point x="122" y="221"/>
      <point x="118" y="182"/>
      <point x="118" y="161" type="curve" smooth="yes"/>
      <point x="118" y="51"/>
      <point x="198" y="-10"/>
    </contour>
  </outline>
</glyph>
<glyph name="X" format="2">
  <advance width="570"/>
  <unicode hex="0058"/>
  <anchor x="228" y="0" name="bottom"/>
  <anchor x="380" y="714" name="top"/>
  <anchor x="684" y="714" name="topright"/>
  <outline>
    <contour>
      <point x="-52" y="0" type="line"/>
      <point x="153" y="0" type="line"/>
      <point x="156" y="10" type="line"/>
      <point x="114" y="10" type="line" smooth="yes"/>
      <point x="76" y="10"/>
      <point x="59" y="14"/>
      <point x="59" y="28" type="curve" smooth="yes"/>
      <point x="59" y="43"/>
      <point x="79" y="70"/>
      <point x="114" y="117" type="curve" smooth="yes"/>
      <point x="301" y="367" type="line"/>
      <point x="290" y="357" type="line"/>
      <point x="399" y="60" type="line" smooth="yes"/>
      <point x="403" y="49"/>
      <point x="405" y="40"/>
      <point x="405" y="33" type="curve" smooth="yes"/>
      <point x="405" y="16"/>
      <point x="392" y="10"/>
      <point x="356" y="10" type="curve" smooth="yes"/>
      <point x="314" y="10" type="line"/>
      <point x="311" y="0" type="line"/>
      <point x="502" y="0" type="line"/>
      <point x="505" y="10" type="line"/>
      <point x="480" y="10" type="line" smooth="yes"/>
      <point x="455" y="10"/>
      <point x="448" y="13"/>
      <point x="432" y="55" type="curve" smooth="yes"/>
      <point x="309" y="378" type="line"/>
      <point x="304" y="366" type="line"/>
      <point x="493" y="623" type="line" smooth="yes"/>
      <point x="550" y="701"/>
      <point x="568" y="704"/>
      <point x="616" y="704" type="curve" smooth="yes"/>
      <point x="635" y="704" type="line"/>
      <point x="637" y="714" type="line"/>
      <point x="426" y="714" type="line"/>
      <point x="424" y="704" type="line"/>
      <point x="449" y="704" type="line" smooth="yes"/>
      <point x="489" y="704"/>
      <point x="513" y="700"/>
      <point x="513" y="682" type="curve" smooth="yes"/>
      <point x="513" y="672"/>
      <point x="505" y="657"/>
      <point x="490" y="636" type="curve" smooth="yes"/>
      <point x="300" y="376" type="line"/>
      <point x="308" y="380" type="line"/>
      <point x="216" y="642" type="line" smooth="yes"/>
      <point x="210" y="660"/>
      <point x="205" y="674"/>
      <point x="205" y="684" type="curve" smooth="yes"/>
      <point x="205" y="697"/>
      <point x="213" y="704"/>
      <point x="236" y="704" type="curve" smooth="yes"/>
      <point x="290" y="704" type="line"/>
      <point x="292" y="714" type="line"/>
      <point x="107" y="714" type="line"/>
      <point x="105" y="704" type="line"/>
      <point x="122" y="704" type="line" smooth="yes"/>
      <point x="158" y="704"/>
      <point x="167" y="699"/>
      <point x="181" y="659" type="curve" smooth="yes"/>
      <point x="289" y="360" type="line"/>
      <point x="294" y="374" type="line"/>
      <point x="75" y="82" type="line" smooth="yes"/>
      <point x="28" y="19"/>
      <point x="19" y="10"/>
      <point x="-29" y="10" type="curve" smooth="yes"/>
      <point x="-50" y="10" type="line"/>
    </contour>
  </outline>
</glyph>
<glyph name="Y" format="2">
  <advance width="538"/>
  <unicode hex="0059"/>
  <anchor x="219" y="0" name="bottom"/>
  <anchor x="356" y="714" name="top"/>
  <anchor x="681" y="714" name="topright"/>
  <outline>
    <contour>
      <point x="104" y="0" type="line"/>
      <point x="330" y="0" type="line"/>
      <point x="332" y="10" type="line"/>
      <point x="289" y="10" type="line" smooth="yes"/>
      <point x="251" y="10"/>
      <point x="241" y="18"/>
      <point x="241" y="36" type="curve" smooth="yes"/>
      <point x="241" y="43"/>
      <point x="242" y="51"/>
      <point x="244" y="61" type="curve" smooth="yes"/>
      <point x="305" y="348" type="line"/>
      <point x="548" y="653" type="line" smooth="yes"/>
      <point x="584" y="698"/>
      <point x="590" y="704"/>
      <point x="615" y="704" type="curve" smooth="yes"/>
      <point x="641" y="704" type="line"/>
      <point x="643" y="714" type="line"/>
      <point x="456" y="714" type="line"/>
      <point x="454" y="704" type="line"/>
      <point x="508" y="704" type="line" smooth="yes"/>
      <point x="538" y="704"/>
      <point x="550" y="698"/>
      <point x="550" y="686" type="curve" smooth="yes"/>
      <point x="550" y="675"/>
      <point x="539" y="658"/>
      <point x="523" y="638" type="curve" smooth="yes"/>
      <point x="372" y="448" type="line" smooth="yes"/>
      <point x="338" y="405"/>
      <point x="317" y="380"/>
      <point x="300" y="357" type="curve"/>
      <point x="290" y="386"/>
      <point x="263" y="450"/>
      <point x="248" y="487" type="curve" smooth="yes"/>
      <point x="180" y="652" type="line" smooth="yes"/>
      <point x="174" y="667"/>
      <point x="170" y="677"/>
      <point x="170" y="685" type="curve" smooth="yes"/>
      <point x="170" y="699"/>
      <point x="182" y="704"/>
      <point x="211" y="704" type="curve" smooth="yes"/>
      <point x="282" y="704" type="line"/>
      <point x="284" y="714" type="line"/>
      <point x="85" y="714" type="line"/>
      <point x="83" y="704" type="line"/>
      <point x="96" y="704" type="line" smooth="yes"/>
      <point x="126" y="704"/>
      <point x="132" y="701"/>
      <point x="147" y="665" type="curve" smooth="yes"/>
      <point x="277" y="350" type="line"/>
      <point x="216" y="65" type="line" smooth="yes"/>
      <point x="207" y="21"/>
      <point x="199" y="10"/>
      <point x="149" y="10" type="curve" smooth="yes"/>
      <point x="106" y="10" type="line"/>
    </contour>
  </outline>
</glyph>
<glyph name="Z" format="2">
  <advance width="526"/>
  <unicode hex="005A"/>
  <anchor x="209" y="0" name="bottom"/>
  <anchor x="314" y="714" name="top"/>
  <anchor x="605" y="714" name="topright"/>
  <outline>
    <contour>
      <point x="-23" y="0" type="line"/>
      <point x="444" y="0" type="line"/>
      <point x="478" y="134" type="line"/>
      <point x="468" y="134" type="line"/>
      <point x="450" y="72" type="line" smooth="yes"/>
      <point x="438" y="31"/>
      <point x="421" y="15"/>
      <point x="373" y="15" type="curve" smooth="yes"/>
      <point x="13" y="15" type="line"/>
      <point x="564" y="704" type="line"/>
      <point x="566" y="714" type="line"/>
      <point x="120" y="714" type="line"/>
      <point x="88" y="591" type="line"/>
      <point x="98" y="591" type="line"/>
      <point x="120" y="661" type="line" smooth="yes"/>
      <point x="132" y="699"/>
      <point x="152" y="699"/>
      <point x="212" y="699" type="curve" smooth="yes"/>
      <point x="530" y="699" type="line"/>
      <point x="-21" y="10" type="line"/>
    </contour>
  </outline>
</glyph>
<glyph name="bracketleft" format="2">
  <advance width="246"/>
  <unicode hex="005B"/>
  <outline>
    <contour>
      <point x="-23" y="-128" type="line"/>
      <point x="132" y="-128" type="line"/>
      <point x="132" y="-118" type="line"/>
      <point x="59" y="-118" type="line" smooth="yes"/>
      <point x="18" y="-118"/>
      <point x="7" y="-112"/>
      <point x="7" y="-98" type="curve" smooth="yes"/>
      <point x="7" y="-93"/>
      <point x="9" y="-87"/>
      <point x="10" y="-81" type="curve" smooth="yes"/>
      <point x="177" y="684" type="line" smooth="yes"/>
      <point x="191" y="747"/>
      <point x="194" y="750"/>
      <point x="251" y="750" type="curve" smooth="yes"/>
      <point x="318" y="750" type="line"/>
      <point x="320" y="760" type="line"/>
      <point x="165" y="760" type="line"/>
    </contour>
  </outline>
</glyph>
<glyph name="bracketright" format="2">
  <advance width="246"/>
  <unicode hex="005D"/>
  <outline>
    <contour>
      <point x="-53" y="-128" type="line"/>
      <point x="102" y="-128" type="line"/>
      <point x="290" y="760" type="line"/>
      <point x="135" y="760" type="line"/>
      <point x="135" y="750" type="line"/>
      <point x="208" y="750" type="line" smooth="yes"/>
      <point x="245" y="750"/>
      <point x="258" y="750"/>
      <point x="258" y="730" type="curve" smooth="yes"/>
      <point x="258" y="720"/>
      <point x="255" y="706"/>
      <point x="251" y="686" type="curve" smooth="yes"/>
      <point x="89" y="-52" type="line" smooth="yes"/>
      <point x="75" y="-115"/>
      <point x="72" y="-118"/>
      <point x="15" y="-118" type="curve" smooth="yes"/>
      <point x="-52" y="-118" type="line"/>
    </contour>
  </outline>
</glyph>
<glyph name="grave" format="2">
  <advance width="201"/>
  <unicode hex="0060"/>
  <outline>
    <contour>
      <point x="225" y="606" type="curve"/>
      <point x="233" y="606" type="line"/>
      <point x="233" y="614" type="line"/>
      <point x="208" y="667"/>
      <point x="187" y="728"/>
      <point x="176" y="766" type="curve"/>
      <point x="146" y="766" type="line"/>
      <point x="146" y="758" type="line"/>
      <point x="170" y="704"/>
      <point x="193" y="665"/>
    </contour>
  </outline>
</glyph>
<glyph name="c" format="2">
  <advance width="426"/>
  <unicode hex="0063"/>
  <anchor x="183" y="0" name="bottom"/>
  <anchor x="287" y="536" name="top"/>
  <anchor x="463" y="536" name="topright"/>
  <outline>
    <contour>
      <point x="202" y="-10" type="curve" smooth="yes"/>
      <point x="289" y="-10"/>
      <point x="345" y="37"/>
      <point x="345" y="83" type="curve" smooth="yes"/>
      <point x="345" y="89"/>
      <point x="340" y="94"/>
      <point x="337" y="96" type="curve"/>
      <point x="315" y="34"/>
      <point x="267" y="0"/>
      <point x="200" y="0" type="curve" smooth="yes"/>
      <point x="127" y="0"/>
      <point x="67" y="69"/>
      <point x="67" y="197" type="curve" smooth="yes"/>
      <point x="67" y="359"/>
      <point x="158" y="536"/>
      <point x="296" y="536" type="curve" smooth="yes"/>
      <point x="361" y="536"/>
      <point x="399" y="510"/>
      <point x="399" y="432" type="curve" smooth="yes"/>
      <point x="399" y="423"/>
      <point x="398" y="415"/>
      <point x="398" y="411" type="curve"/>
      <point x="414" y="411"/>
      <point x="426" y="418"/>
      <point x="426" y="440" type="curve" smooth="yes"/>
      <point x="426" y="491"/>
      <point x="382" y="546"/>
      <point x="296" y="546" type="curve" smooth="yes"/>
      <point x="143" y="546"/>
      <point x="39" y="359"/>
      <point x="39" y="197" type="curve" smooth="yes"/>
      <point x="39" y="58"/>
      <point x="111" y="-10"/>
    </contour>
  </outline>
</glyph>
<glyph name="d" format="2">
  <advance width="483"/>
  <unicode hex="0064"/>
  <anchor x="170" y="0" name="bottom"/>
  <anchor x="284" y="268" name="center"/>
  <anchor x="332" y="760" name="top"/>
  <anchor x="534" y="760" name="topright"/>
  <outline>
    <contour>
      <point x="140" y="-10" type="curve" smooth="yes"/>
      <point x="200" y="-10"/>
      <point x="263" y="35"/>
      <point x="324" y="161" type="curve"/>
      <point x="328" y="161" type="line"/>
      <point x="322" y="135"/>
      <point x="317" y="107"/>
      <point x="317" y="83" type="curve" smooth="yes"/>
      <point x="317" y="20"/>
      <point x="337" y="-10"/>
      <point x="380" y="-10" type="curve" smooth="yes"/>
      <point x="415" y="-10"/>
      <point x="441" y="7"/>
      <point x="468" y="33" type="curve"/>
      <point x="463" y="40" type="line"/>
      <point x="436" y="15"/>
      <point x="411" y="0"/>
      <point x="382" y="0" type="curve" smooth="yes"/>
      <point x="352" y="0"/>
      <point x="342" y="18"/>
      <point x="342" y="64" type="curve" smooth="yes"/>
      <point x="342" y="96"/>
      <point x="353" y="160"/>
      <point x="362" y="200" type="curve" smooth="yes"/>
      <point x="484" y="760" type="line"/>
      <point x="361" y="760" type="line"/>
      <point x="359" y="750" type="line"/>
      <point x="405" y="750" type="line" smooth="yes"/>
      <point x="430" y="750"/>
      <point x="448" y="746"/>
      <point x="448" y="723" type="curve" smooth="yes"/>
      <point x="448" y="718"/>
      <point x="447" y="714"/>
      <point x="446" y="708" type="curve" smooth="yes"/>
      <point x="421" y="594" type="line" smooth="yes"/>
      <point x="415" y="565"/>
      <point x="408" y="536"/>
      <point x="402" y="507" type="curve"/>
      <point x="379" y="531"/>
      <point x="345" y="546"/>
      <point x="304" y="546" type="curve" smooth="yes"/>
      <point x="132" y="546"/>
      <point x="32" y="319"/>
      <point x="32" y="163" type="curve" smooth="yes"/>
      <point x="32" y="59"/>
      <point x="58" y="-10"/>
    </contour>
    <contour>
      <point x="142" y="4" type="curve" smooth="yes"/>
      <point x="92" y="4"/>
      <point x="60" y="41"/>
      <point x="60" y="162" type="curve" smooth="yes"/>
      <point x="60" y="295"/>
      <point x="150" y="536"/>
      <point x="302" y="536" type="curve" smooth="yes"/>
      <point x="340" y="536"/>
      <point x="380" y="521"/>
      <point x="399" y="492" type="curve"/>
      <point x="343" y="251" type="line" smooth="yes"/>
      <point x="323" y="167"/>
      <point x="248" y="4"/>
    </contour>
  </outline>
</glyph>
<glyph name="e" format="2">
  <advance width="414"/>
  <unicode hex="0065"/>
  <anchor x="184" y="0" name="bottom"/>
  <anchor x="268" y="536" name="top"/>
  <anchor x="447" y="536" name="topright"/>
  <outline>
    <contour>
      <point x="198" y="-10" type="curve" smooth="yes"/>
      <point x="283" y="-10"/>
      <point x="339" y="43"/>
      <point x="339" y="87" type="curve" smooth="yes"/>
      <point x="339" y="93"/>
      <point x="337" y="98"/>
      <point x="334" y="100" type="curve"/>
      <point x="314" y="46"/>
      <point x="276" y="0"/>
      <point x="196" y="0" type="curve" smooth="yes"/>
      <point x="124" y="0"/>
      <point x="67" y="75"/>
      <point x="67" y="191" type="curve" smooth="yes"/>
      <point x="67" y="208"/>
      <point x="69" y="241"/>
      <point x="70" y="248" type="curve"/>
      <point x="119" y="248" type="line" smooth="yes"/>
      <point x="272" y="248"/>
      <point x="395" y="315"/>
      <point x="395" y="435" type="curve" smooth="yes"/>
      <point x="395" y="505"/>
      <point x="354" y="546"/>
      <point x="284" y="546" type="curve" smooth="yes"/>
      <point x="125" y="546"/>
      <point x="39" y="343"/>
      <point x="39" y="191" type="curve" smooth="yes"/>
      <point x="39" y="60"/>
      <point x="107" y="-10"/>
    </contour>
    <contour>
      <point x="117" y="258" type="curve" smooth="yes"/>
      <point x="71" y="258" type="line"/>
      <point x="103" y="416"/>
      <point x="172" y="536"/>
      <point x="285" y="536" type="curve" smooth="yes"/>
      <point x="343" y="536"/>
      <point x="369" y="509"/>
      <point x="369" y="438" type="curve" smooth="yes"/>
      <point x="369" y="328"/>
      <point x="263" y="258"/>
    </contour>
  </outline>
</glyph>
<glyph name="f" format="2">
  <advance width="235"/>
  <unicode hex="0066"/>
  <anchor x="-81" y="-240" name="bottom"/>
  <anchor x="300" y="770" name="top"/>
  <anchor x="445" y="770" name="topright"/>
  <outline>
    <contour>
      <point x="-81" y="-240" type="curve" smooth="yes"/>
      <point x="-1" y="-240"/>
      <point x="26" y="-204"/>
      <point x="60" y="-43" type="curve" smooth="yes"/>
      <point x="181" y="526" type="line"/>
      <point x="271" y="526" type="line"/>
      <point x="273" y="536" type="line"/>
      <point x="183" y="536" type="line"/>
      <point x="212" y="666" type="line" smooth="yes"/>
      <point x="222" y="711"/>
      <point x="249" y="760"/>
      <point x="308" y="760" type="curve" smooth="yes"/>
      <point x="356" y="760"/>
      <point x="371" y="739"/>
      <point x="371" y="658" type="curve"/>
      <point x="386" y="658"/>
      <point x="398" y="670"/>
      <point x="398" y="688" type="curve" smooth="yes"/>
      <point x="398" y="735"/>
      <point x="365" y="770"/>
      <point x="308" y="770" type="curve" smooth="yes"/>
      <point x="233" y="770"/>
      <point x="188" y="706"/>
      <point x="168" y="603" type="curve" smooth="yes"/>
      <point x="155" y="536" type="line"/>
      <point x="70" y="531" type="line"/>
      <point x="69" y="526" type="line"/>
      <point x="153" y="526" type="line"/>
      <point x="32" y="-43" type="line" smooth="yes"/>
      <point x="1" y="-190"/>
      <point x="-27" y="-228"/>
      <point x="-85" y="-228" type="curve" smooth="yes"/>
      <point x="-100" y="-228"/>
      <point x="-121" y="-225"/>
      <point x="-133" y="-222" type="curve"/>
      <point x="-136" y="-232" type="line"/>
      <point x="-121" y="-237"/>
      <point x="-101" y="-240"/>
    </contour>
  </outline>
</glyph>
<glyph name="g" format="2">
  <advance width="486"/>
  <unicode hex="0067"/>
  <anchor x="119" y="-240" name="bottom"/>
  <anchor x="284" y="536" name="top"/>
  <anchor x="556" y="536" name="topright"/>
  <outline>
    <contour>
      <point x="157" y="-240" type="curve" smooth="yes"/>
      <point x="324" y="-240"/>
      <point x="383" y="-148"/>
      <point x="383" y="-55" type="curve" smooth="yes"/>
      <point x="383" y="19"/>
      <point x="336" y="59"/>
      <point x="236" y="70" type="curve" smooth="yes"/>
      <point x="162" y="78" type="line" smooth="yes"/>
      <point x="119" y="83"/>
      <point x="98" y="94"/>
      <point x="98" y="121" type="curve" smooth="yes"/>
      <point x="98" y="152"/>
      <point x="117" y="173"/>
      <point x="173" y="193" type="curve"/>
      <point x="181" y="191"/>
      <point x="210" y="187"/>
      <point x="220" y="187" type="curve" smooth="yes"/>
      <point x="378" y="187"/>
      <point x="423" y="326"/>
      <point x="423" y="407" type="curve" smooth="yes"/>
      <point x="423" y="453"/>
      <point x="404" y="487"/>
      <point x="391" y="504" type="curve"/>
      <point x="423" y="540"/>
      <point x="438" y="556"/>
      <point x="463" y="556" type="curve" smooth="yes"/>
      <point x="479" y="556"/>
      <point x="485" y="543"/>
      <point x="485" y="508" type="curve"/>
      <point x="499" y="508"/>
      <point x="507" y="517"/>
      <point x="507" y="531" type="curve" smooth="yes"/>
      <point x="507" y="551"/>
      <point x="492" y="566"/>
      <point x="470" y="566" type="curve" smooth="yes"/>
      <point x="434" y="566"/>
      <point x="419" y="549"/>
      <point x="384" y="511" type="curve"/>
      <point x="363" y="532"/>
      <point x="333" y="546"/>
      <point x="288" y="546" type="curve" smooth="yes"/>
      <point x="145" y="546"/>
      <point x="91" y="411"/>
      <point x="91" y="319" type="curve" smooth="yes"/>
      <point x="91" y="258"/>
      <point x="123" y="219"/>
      <point x="161" y="199" type="curve"/>
      <point x="93" y="173"/>
      <point x="82" y="145"/>
      <point x="82" y="119" type="curve" smooth="yes"/>
      <point x="82" y="94"/>
      <point x="95" y="74"/>
      <point x="130" y="62" type="curve"/>
      <point x="40" y="47"/>
      <point x="-41" y="-5"/>
      <point x="-41" y="-102" type="curve" smooth="yes"/>
      <point x="-41" y="-196"/>
      <point x="39" y="-240"/>
    </contour>
    <contour>
      <point x="156" y="-230" type="curve" smooth="yes"/>
      <point x="37" y="-230"/>
      <point x="-16" y="-172"/>
      <point x="-16" y="-103" type="curve" smooth="yes"/>
      <point x="-16" y="-24"/>
      <point x="28" y="33"/>
      <point x="143" y="55" type="curve"/>
      <point x="236" y="45" type="line" smooth="yes"/>
      <point x="312" y="37"/>
      <point x="359" y="1"/>
      <point x="359" y="-56" type="curve" smooth="yes"/>
      <point x="359" y="-146"/>
      <point x="306" y="-230"/>
    </contour>
    <contour>
      <point x="220" y="197" type="curve" smooth="yes"/>
      <point x="162" y="197"/>
      <point x="119" y="239"/>
      <point x="119" y="319" type="curve" smooth="yes"/>
      <point x="119" y="410"/>
      <point x="156" y="536"/>
      <point x="286" y="536" type="curve" smooth="yes"/>
      <point x="350" y="536"/>
      <point x="395" y="511"/>
      <point x="395" y="409" type="curve" smooth="yes"/>
      <point x="395" y="334"/>
      <point x="362" y="197"/>
    </contour>
  </outline>
</glyph>
<glyph name="i" format="2">
  <advance width="238"/>
  <unicode hex="0069"/>
  <anchor x="62" y="0" name="bottom"/>
  <anchor x="216" y="741" name="top"/>
  <anchor x="312" y="741" name="topright"/>
  <outline>
    <contour>
      <point x="137" y="-10" type="curve" smooth="yes"/>
      <point x="171" y="-10"/>
      <point x="195" y="7"/>
      <point x="223" y="32" type="curve"/>
      <point x="217" y="40" type="line"/>
      <point x="189" y="15"/>
      <point x="167" y="0"/>
      <point x="137" y="0" type="curve" smooth="yes"/>
      <point x="115" y="0"/>
      <point x="97" y="18"/>
      <point x="97" y="66" type="curve" smooth="yes"/>
      <point x="97" y="83"/>
      <point x="99" y="102"/>
      <point x="104" y="126" type="curve" smooth="yes"/>
      <point x="187" y="536" type="line"/>
      <point x="67" y="536" type="line"/>
      <point x="65" y="526" type="line"/>
      <point x="86" y="526" type="line" smooth="yes"/>
      <point x="136" y="526"/>
      <point x="149" y="520"/>
      <point x="149" y="499" type="curve" smooth="yes"/>
      <point x="149" y="493"/>
      <point x="148" y="487"/>
      <point x="147" y="479" type="curve" smooth="yes"/>
      <point x="89" y="181" type="line" smooth="yes"/>
      <point x="82" y="147"/>
      <point x="75" y="108"/>
      <point x="75" y="74" type="curve" smooth="yes"/>
      <point x="75" y="27"/>
      <point x="89" y="-10"/>
    </contour>
    <contour>
      <point x="198" y="681" type="curve" smooth="yes"/>
      <point x="212" y="681"/>
      <point x="225" y="690"/>
      <point x="225" y="714" type="curve" smooth="yes"/>
      <point x="225" y="731"/>
      <point x="215" y="741"/>
      <point x="200" y="741" type="curve" smooth="yes"/>
      <point x="184" y="741"/>
      <point x="173" y="727"/>
      <point x="173" y="707" type="curve" smooth="yes"/>
      <point x="173" y="690"/>
      <point x="184" y="681"/>
    </contour>
  </outline>
</glyph>
<glyph name="k" format="2">
  <advance width="529"/>
  <unicode hex="006B"/>
  <anchor x="205" y="0" name="bottom"/>
  <anchor x="367" y="760" name="top"/>
  <anchor x="582" y="760" name="topright"/>
  <outline>
    <contour>
      <point x="449" y="-7" type="curve" smooth="yes"/>
      <point x="460" y="-7" type="line"/>
      <point x="463" y="3" type="line"/>
      <point x="394" y="3"/>
      <point x="382" y="15"/>
      <point x="362" y="68" type="curve" smooth="yes"/>
      <point x="260" y="342" type="line"/>
      <point x="254" y="329" type="line"/>
      <point x="454" y="491" type="line" smooth="yes"/>
      <point x="491" y="521"/>
      <point x="503" y="526"/>
      <point x="539" y="526" type="curve"/>
      <point x="541" y="536" type="line"/>
      <point x="364" y="536" type="line"/>
      <point x="362" y="526" type="line"/>
      <point x="422" y="526"/>
      <point x="447" y="520"/>
      <point x="447" y="508" type="curve" smooth="yes"/>
      <point x="447" y="501"/>
      <point x="441" y="493"/>
      <point x="429" y="484" type="curve" smooth="yes"/>
      <point x="125" y="238" type="line"/>
      <point x="147" y="347"/>
      <point x="172" y="460"/>
      <point x="194" y="569" type="curve" smooth="yes"/>
      <point x="233" y="760" type="line"/>
      <point x="110" y="760" type="line"/>
      <point x="108" y="750" type="line"/>
      <point x="155" y="750" type="line" smooth="yes"/>
      <point x="184" y="750"/>
      <point x="194" y="742"/>
      <point x="194" y="724" type="curve" smooth="yes"/>
      <point x="194" y="718"/>
      <point x="190" y="698"/>
      <point x="189" y="691" type="curve" smooth="yes"/>
      <point x="49" y="0" type="line"/>
      <point x="77" y="0" type="line"/>
      <point x="125" y="224" type="line"/>
      <point x="251" y="327" type="line"/>
      <point x="237" y="326" type="line"/>
      <point x="322" y="96" type="line" smooth="yes"/>
      <point x="356" y="3"/>
      <point x="382" y="-7"/>
    </contour>
  </outline>
</glyph>
<glyph name="l" format="2">
  <advance width="239"/>
  <unicode hex="006C"/>
  <anchor x="70" y="0" name="bottom"/>
  <anchor x="184" y="268" name="center"/>
  <anchor x="232" y="760" name="top"/>
  <anchor x="333" y="760" name="topright"/>
  <outline>
    <contour>
      <point x="136" y="-10" type="curve" smooth="yes"/>
      <point x="174" y="-10"/>
      <point x="196" y="7"/>
      <point x="224" y="32" type="curve"/>
      <point x="218" y="41" type="line"/>
      <point x="194" y="16"/>
      <point x="169" y="0"/>
      <point x="137" y="0" type="curve" smooth="yes"/>
      <point x="108" y="0"/>
      <point x="99" y="33"/>
      <point x="99" y="73" type="curve" smooth="yes"/>
      <point x="99" y="100"/>
      <point x="103" y="129"/>
      <point x="108" y="153" type="curve" smooth="yes"/>
      <point x="233" y="760" type="line"/>
      <point x="110" y="760" type="line"/>
      <point x="108" y="750" type="line"/>
      <point x="153" y="750" type="line" smooth="yes"/>
      <point x="183" y="750"/>
      <point x="195" y="744"/>
      <point x="195" y="724" type="curve" smooth="yes"/>
      <point x="195" y="719"/>
      <point x="194" y="714"/>
      <point x="193" y="707" type="curve" smooth="yes"/>
      <point x="83" y="163" type="line" smooth="yes"/>
      <point x="77" y="136"/>
      <point x="71" y="103"/>
      <point x="71" y="73" type="curve" smooth="yes"/>
      <point x="71" y="28"/>
      <point x="85" y="-10"/>
    </contour>
  </outline>
</glyph>
<glyph name="m" format="2">
  <advance width="789"/>
  <unicode hex="006D"/>
  <anchor x="353" y="0" name="bottom"/>
  <anchor x="467" y="536" name="top"/>
  <anchor x="849" y="536" name="topright"/>
  <outline>
    <contour>
      <point x="688" y="-10" type="curve" smooth="yes"/>
      <point x="725" y="-10"/>
      <point x="746" y="7"/>
      <point x="774" y="32" type="curve"/>
      <point x="768" y="40" type="line"/>
      <point x="739" y="15"/>
      <point x="723" y="0"/>
      <point x="688" y="0" type="curve" smooth="yes"/>
      <point x="653" y="0"/>
      <point x="645" y="37"/>
      <point x="645" y="70" type="curve" smooth="yes"/>
      <point x="645" y="91"/>
      <point x="648" y="111"/>
      <point x="650" y="118" type="curve" smooth="yes"/>
      <point x="698" y="332" type="line" smooth="yes"/>
      <point x="705" y="364"/>
      <point x="716" y="407"/>
      <point x="716" y="438" type="curve" smooth="yes"/>
      <point x="716" y="495"/>
      <point x="690" y="543"/>
      <point x="619" y="543" type="curve" smooth="yes"/>
      <point x="553" y="543"/>
      <point x="501" y="506"/>
      <point x="439" y="405" type="curve"/>
      <point x="437" y="405" type="line"/>
      <point x="439" y="417"/>
      <point x="440" y="428"/>
      <point x="440" y="438" type="curve" smooth="yes"/>
      <point x="440" y="495"/>
      <point x="414" y="543"/>
      <point x="343" y="543" type="curve" smooth="yes"/>
      <point x="277" y="543"/>
      <point x="221" y="505"/>
      <point x="163" y="405" type="curve"/>
      <point x="161" y="405" type="line"/>
      <point x="183" y="536" type="line"/>
      <point x="68" y="536" type="line"/>
      <point x="65" y="526" type="line"/>
      <point x="87" y="526" type="line" smooth="yes"/>
      <point x="136" y="526"/>
      <point x="149" y="521"/>
      <point x="149" y="492" type="curve" smooth="yes"/>
      <point x="149" y="484"/>
      <point x="148" y="473"/>
      <point x="146" y="459" type="curve"/>
      <point x="53" y="0" type="line"/>
      <point x="81" y="0" type="line"/>
      <point x="154" y="355" type="line" smooth="yes"/>
      <point x="164" y="404"/>
      <point x="242" y="528"/>
      <point x="337" y="528" type="curve" smooth="yes"/>
      <point x="396" y="528"/>
      <point x="412" y="487"/>
      <point x="412" y="449" type="curve" smooth="yes"/>
      <point x="412" y="416"/>
      <point x="404" y="376"/>
      <point x="394" y="332" type="curve" smooth="yes"/>
      <point x="363" y="197" type="line" smooth="yes"/>
      <point x="348" y="131"/>
      <point x="338" y="66"/>
      <point x="337" y="0" type="curve"/>
      <point x="365" y="0" type="line"/>
      <point x="366" y="66"/>
      <point x="374" y="131"/>
      <point x="391" y="197" type="curve" smooth="yes"/>
      <point x="431" y="355" type="line" smooth="yes"/>
      <point x="441" y="395"/>
      <point x="513" y="528"/>
      <point x="615" y="528" type="curve" smooth="yes"/>
      <point x="671" y="528"/>
      <point x="688" y="491"/>
      <point x="688" y="450" type="curve" smooth="yes"/>
      <point x="688" y="415"/>
      <point x="679" y="373"/>
      <point x="670" y="332" type="curve" smooth="yes"/>
      <point x="633" y="176" type="line" smooth="yes"/>
      <point x="626" y="147"/>
      <point x="621" y="114"/>
      <point x="621" y="84" type="curve" smooth="yes"/>
      <point x="621" y="33"/>
      <point x="636" y="-10"/>
    </contour>
  </outline>
</glyph>
<glyph name="o" format="2">
  <advance width="501"/>
  <unicode hex="006F"/>
  <anchor x="194" y="0" name="bottom"/>
  <anchor x="308" y="268" name="center"/>
  <anchor x="298" y="536" name="top"/>
  <anchor x="546" y="536" name="topright"/>
  <outline>
    <contour>
      <point x="204" y="-10" type="curve" smooth="yes"/>
      <point x="382" y="-10"/>
      <point x="463" y="203"/>
      <point x="463" y="343" type="curve" smooth="yes"/>
      <point x="463" y="488"/>
      <point x="390" y="546"/>
      <point x="297" y="546" type="curve" smooth="yes"/>
      <point x="121" y="546"/>
      <point x="38" y="331"/>
      <point x="38" y="190" type="curve" smooth="yes"/>
      <point x="38" y="53"/>
      <point x="107" y="-10"/>
    </contour>
    <contour>
      <point x="204" y="0" type="curve" smooth="yes"/>
      <point x="120" y="0"/>
      <point x="66" y="50"/>
      <point x="66" y="190" type="curve" smooth="yes"/>
      <point x="66" y="346"/>
      <point x="151" y="536"/>
      <point x="297" y="536" type="curve" smooth="yes"/>
      <point x="384" y="536"/>
      <point x="435" y="478"/>
      <point x="435" y="344" type="curve" smooth="yes"/>
      <point x="435" y="196"/>
      <point x="357" y="0"/>
    </contour>
  </outline>
</glyph>
<glyph name="p" format="2">
  <advance width="480"/>
  <unicode hex="0070"/>
  <anchor x="16" y="-240" name="bottom"/>
  <anchor x="291" y="536" name="top"/>
  <anchor x="500" y="536" name="topright"/>
  <outline>
    <contour>
      <point x="-1" y="-240" type="line"/>
      <point x="120" y="-240" type="line"/>
      <point x="123" y="-230" type="line"/>
      <point x="101" y="-230" type="line" smooth="yes"/>
      <point x="50" y="-230"/>
      <point x="35" y="-228"/>
      <point x="35" y="-207" type="curve" smooth="yes"/>
      <point x="35" y="-199"/>
      <point x="37" y="-189"/>
      <point x="40" y="-175" type="curve" smooth="yes"/>
      <point x="71" y="-35" type="line" smooth="yes"/>
      <point x="76" y="-13"/>
      <point x="77" y="1"/>
      <point x="78" y="13" type="curve"/>
      <point x="101" y="-1"/>
      <point x="129" y="-10"/>
      <point x="166" y="-10" type="curve" smooth="yes"/>
      <point x="356" y="-10"/>
      <point x="448" y="227"/>
      <point x="448" y="371" type="curve" smooth="yes"/>
      <point x="448" y="488"/>
      <point x="412" y="546"/>
      <point x="335" y="546" type="curve" smooth="yes"/>
      <point x="259" y="546"/>
      <point x="202" y="474"/>
      <point x="162" y="396" type="curve"/>
      <point x="160" y="396" type="line"/>
      <point x="183" y="536" type="line"/>
      <point x="68" y="536" type="line"/>
      <point x="65" y="526" type="line"/>
      <point x="87" y="526" type="line" smooth="yes"/>
      <point x="135" y="526"/>
      <point x="150" y="523"/>
      <point x="150" y="496" type="curve" smooth="yes"/>
      <point x="150" y="482"/>
      <point x="146" y="461"/>
      <point x="140" y="431" type="curve" smooth="yes"/>
    </contour>
    <contour>
      <point x="171" y="0" type="curve" smooth="yes"/>
      <point x="124" y="0"/>
      <point x="94" y="15"/>
      <point x="82" y="26" type="curve"/>
      <point x="139" y="288" type="line" smooth="yes"/>
      <point x="160" y="383"/>
      <point x="228" y="530"/>
      <point x="334" y="530" type="curve" smooth="yes"/>
      <point x="395" y="530"/>
      <point x="420" y="496"/>
      <point x="420" y="371" type="curve" smooth="yes"/>
      <point x="420" y="236"/>
      <point x="325" y="0"/>
    </contour>
  </outline>
</glyph>
<glyph name="q" format="2">
  <advance width="461"/>
  <unicode hex="0071"/>
  <anchor x="112" y="-240" name="bottom"/>
  <anchor x="277" y="536" name="top"/>
  <anchor x="491" y="536" name="topright"/>
  <outline>
    <contour>
      <point x="295" y="22" type="curve" smooth="yes"/>
      <point x="239" y="-240" type="line"/>
      <point x="357" y="-240" type="line"/>
      <point x="360" y="-230" type="line"/>
      <point x="332" y="-230" type="line" smooth="yes"/>
      <point x="288" y="-230"/>
      <point x="275" y="-229"/>
      <point x="275" y="-212" type="curve" smooth="yes"/>
      <point x="275" y="-203"/>
      <point x="279" y="-189"/>
      <point x="283" y="-169" type="curve" smooth="yes"/>
      <point x="434" y="546" type="line"/>
      <point x="424" y="546" type="line"/>
      <point x="400" y="517" type="line"/>
      <point x="375" y="538"/>
      <point x="346" y="546"/>
      <point x="313" y="546" type="curve" smooth="yes"/>
      <point x="130" y="546"/>
      <point x="32" y="319"/>
      <point x="32" y="164" type="curve" smooth="yes"/>
      <point x="32" y="53"/>
      <point x="75" y="-10"/>
      <point x="145" y="-10" type="curve" smooth="yes"/>
      <point x="226" y="-10"/>
      <point x="287" y="73"/>
      <point x="325" y="158" type="curve"/>
      <point x="328" y="158" type="line"/>
      <point x="314" y="109"/>
      <point x="305" y="67"/>
    </contour>
    <contour>
      <point x="148" y="3" type="curve" smooth="yes"/>
      <point x="98" y="3"/>
      <point x="60" y="60"/>
      <point x="60" y="163" type="curve" smooth="yes"/>
      <point x="60" y="301"/>
      <point x="149" y="536"/>
      <point x="315" y="536" type="curve" smooth="yes"/>
      <point x="351" y="536"/>
      <point x="386" y="519"/>
      <point x="396" y="499" type="curve"/>
      <point x="350" y="272" type="line" smooth="yes"/>
      <point x="321" y="128"/>
      <point x="235" y="3"/>
    </contour>
  </outline>
</glyph>
<glyph name="r" format="2">
  <advance width="370"/>
  <unicode hex="0072"/>
  <anchor x="69" y="0" name="bottom"/>
  <anchor x="261" y="536" name="top"/>
  <anchor x="403" y="536" name="topright"/>
  <outline>
    <contour>
      <point x="142" y="442" type="curve"/>
      <point x="52" y="0" type="line"/>
      <point x="80" y="0" type="line"/>
      <point x="146" y="318" type="line" smooth="yes"/>
      <point x="166" y="414"/>
      <point x="222" y="534"/>
      <point x="307" y="534" type="curve" smooth="yes"/>
      <point x="334" y="534"/>
      <point x="352" y="521"/>
      <point x="352" y="476" type="curve" smooth="yes"/>
      <point x="352" y="470"/>
      <point x="352" y="464"/>
      <point x="351" y="458" type="curve"/>
      <point x="367" y="458"/>
      <point x="381" y="470"/>
      <point x="381" y="488" type="curve" smooth="yes"/>
      <point x="381" y="514"/>
      <point x="365" y="546"/>
      <point x="311" y="546" type="curve" smooth="yes"/>
      <point x="243" y="546"/>
      <point x="195" y="486"/>
      <point x="161" y="405" type="curve"/>
      <point x="159" y="405" type="line"/>
      <point x="182" y="536" type="line"/>
      <point x="67" y="536" type="line"/>
      <point x="65" y="526" type="line"/>
      <point x="86" y="526" type="line" smooth="yes"/>
      <point x="132" y="526"/>
      <point x="148" y="522"/>
      <point x="148" y="491" type="curve" smooth="yes"/>
      <point x="148" y="479"/>
      <point x="146" y="463"/>
    </contour>
  </outline>
</glyph>
<glyph name="s" format="2">
  <advance width="399"/>
  <unicode hex="0073"/>
  <anchor x="143" y="0" name="bottom"/>
  <anchor x="257" y="536" name="top"/>
  <anchor x="436" y="536" name="topright"/>
  <outline>
    <contour>
      <point x="173" y="-10" type="curve" smooth="yes"/>
      <point x="276" y="-10"/>
      <point x="326" y="58"/>
      <point x="326" y="139" type="curve" smooth="yes"/>
      <point x="326" y="207"/>
      <point x="284" y="253"/>
      <point x="213" y="289" type="curve" smooth="yes"/>
      <point x="150" y="321"/>
      <point x="117" y="354"/>
      <point x="117" y="408" type="curve" smooth="yes"/>
      <point x="117" y="496"/>
      <point x="170" y="537"/>
      <point x="238" y="537" type="curve" smooth="yes"/>
      <point x="310" y="537"/>
      <point x="335" y="497"/>
      <point x="335" y="428" type="curve" smooth="yes"/>
      <point x="335" y="421"/>
      <point x="335" y="412"/>
      <point x="334" y="404" type="curve"/>
      <point x="353" y="404"/>
      <point x="363" y="417"/>
      <point x="363" y="434" type="curve" smooth="yes"/>
      <point x="363" y="492"/>
      <point x="326" y="547"/>
      <point x="238" y="547" type="curve" smooth="yes"/>
      <point x="157" y="547"/>
      <point x="96" y="492"/>
      <point x="96" y="408" type="curve" smooth="yes"/>
      <point x="96" y="339"/>
      <point x="129" y="303"/>
      <point x="204" y="264" type="curve" smooth="yes"/>
      <point x="271" y="229"/>
      <point x="305" y="185"/>
      <point x="305" y="133" type="curve" smooth="yes"/>
      <point x="305" y="50"/>
      <point x="256" y="0"/>
      <point x="172" y="0" type="curve" smooth="yes"/>
      <point x="100" y="0"/>
      <point x="65" y="46"/>
      <point x="65" y="124" type="curve" smooth="yes"/>
      <point x="65" y="132"/>
      <point x="65" y="140"/>
      <point x="66" y="149" type="curve"/>
      <point x="46" y="149"/>
      <point x="35" y="138"/>
      <point x="35" y="113" type="curve" smooth="yes"/>
      <point x="35" y="55"/>
      <point x="78" y="-10"/>
    </contour>
  </outline>
</glyph>
<glyph name="v" format="2">
  <advance width="468"/>
  <unicode hex="0076"/>
  <anchor x="178" y="0" name="bottom"/>
  <anchor x="292" y="536" name="top"/>
  <anchor x="510" y="536" name="topright"/>
  <outline>
    <contour>
      <point x="99" y="465" type="curve" smooth="yes"/>
      <point x="169" y="-9" type="line"/>
      <point x="196" y="1" type="line"/>
      <point x="371" y="190"/>
      <point x="446" y="328"/>
      <point x="446" y="462" type="curve" smooth="yes"/>
      <point x="446" y="519"/>
      <point x="433" y="546"/>
      <point x="410" y="546" type="curve" smooth="yes"/>
      <point x="397" y="546"/>
      <point x="386" y="541"/>
      <point x="386" y="522" type="curve"/>
      <point x="409" y="522"/>
      <point x="432" y="505"/>
      <point x="432" y="455" type="curve" smooth="yes"/>
      <point x="432" y="323"/>
      <point x="356" y="190"/>
      <point x="195" y="14" type="curve"/>
      <point x="192" y="14" type="line"/>
      <point x="184" y="78"/>
      <point x="170" y="173"/>
      <point x="160" y="240" type="curve" smooth="yes"/>
      <point x="117" y="536" type="line"/>
      <point x="23" y="536" type="line"/>
      <point x="20" y="526" type="line"/>
      <point x="42" y="526" type="line" smooth="yes"/>
      <point x="88" y="526"/>
      <point x="90" y="523"/>
    </contour>
  </outline>
</glyph>
<glyph name="x" format="2">
  <advance width="450"/>
  <unicode hex="0078"/>
  <anchor x="155" y="0" name="bottom"/>
  <anchor x="269" y="536" name="top"/>
  <anchor x="483" y="536" name="topright"/>
  <outline>
    <contour>
      <point x="-24" y="0" type="line"/>
      <point x="34" y="0" type="line"/>
      <point x="221" y="270" type="line"/>
      <point x="312" y="0" type="line"/>
      <point x="382" y="0" type="line"/>
      <point x="385" y="10" type="line"/>
      <point x="375" y="10" type="line" smooth="yes"/>
      <point x="336" y="10"/>
      <point x="335" y="15"/>
      <point x="322" y="51" type="curve" smooth="yes"/>
      <point x="239" y="291" type="line"/>
      <point x="367" y="471" type="line" smooth="yes"/>
      <point x="405" y="524"/>
      <point x="410" y="526"/>
      <point x="441" y="526" type="curve" smooth="yes"/>
      <point x="458" y="526" type="line"/>
      <point x="460" y="536" type="line"/>
      <point x="399" y="536" type="line"/>
      <point x="234" y="302" type="line"/>
      <point x="154" y="536" type="line"/>
      <point x="82" y="536" type="line"/>
      <point x="80" y="526" type="line"/>
      <point x="101" y="526" type="line" smooth="yes"/>
      <point x="130" y="526"/>
      <point x="131" y="524"/>
      <point x="149" y="473" type="curve" smooth="yes"/>
      <point x="216" y="281" type="line"/>
      <point x="63" y="61" type="line" smooth="yes"/>
      <point x="31" y="15"/>
      <point x="32" y="10"/>
      <point x="-9" y="10" type="curve" smooth="yes"/>
      <point x="-22" y="10" type="line"/>
    </contour>
  </outline>
</glyph>
<glyph name="y" format="2">
  <advance width="448"/>
  <unicode hex="0079"/>
  <anchor x="24" y="-240" name="bottom"/>
  <anchor x="229" y="536" name="top"/>
  <anchor x="464" y="536" name="topright"/>
  <outline>
    <contour>
      <point x="-53" y="-240" type="curve" smooth="yes"/>
      <point x="98" y="-240"/>
      <point x="153" y="-172"/>
      <point x="275" y="48" type="curve" smooth="yes"/>
      <point x="354" y="191"/>
      <point x="424" y="318"/>
      <point x="424" y="461" type="curve" smooth="yes"/>
      <point x="424" y="521"/>
      <point x="411" y="543"/>
      <point x="391" y="543" type="curve" smooth="yes"/>
      <point x="375" y="543"/>
      <point x="364" y="533"/>
      <point x="364" y="519" type="curve"/>
      <point x="393" y="519"/>
      <point x="411" y="509"/>
      <point x="411" y="454" type="curve" smooth="yes"/>
      <point x="411" y="299"/>
      <point x="321" y="149"/>
      <point x="259" y="41" type="curve"/>
      <point x="256" y="41" type="line"/>
      <point x="247" y="81"/>
      <point x="236" y="124"/>
      <point x="220" y="172" type="curve" smooth="yes"/>
      <point x="102" y="536" type="line"/>
      <point x="28" y="536" type="line"/>
      <point x="25" y="526" type="line"/>
      <point x="40" y="526" type="line" smooth="yes"/>
      <point x="73" y="526"/>
      <point x="77" y="524"/>
      <point x="89" y="486" type="curve" smooth="yes"/>
      <point x="242" y="13" type="line"/>
      <point x="137" y="-178"/>
      <point x="76" y="-230"/>
      <point x="-53" y="-230" type="curve" smooth="yes"/>
      <point x="-84" y="-230"/>
      <point x="-113" y="-223"/>
      <point x="-129" y="-214" type="curve"/>
      <point x="-133" y="-222" type="line"/>
      <point x="-112" y="-233"/>
      <point x="-81" y="-240"/>
    </contour>
  </outline>
</glyph>
<glyph name="z" format="2">
  <advance width="418"/>
  <unicode hex="007A"/>
  <anchor x="171" y="0" name="bottom"/>
  <anchor x="255" y="536" name="top"/>
  <anchor x="489" y="536" name="topright"/>
  <outline>
    <contour>
      <point x="3" y="0" type="line"/>
      <point x="327" y="0" type="line"/>
      <point x="360" y="138" type="line"/>
      <point x="350" y="138" type="line"/>
      <point x="323" y="42" type="line" smooth="yes"/>
      <point x="316" y="16"/>
      <point x="311" y="15"/>
      <point x="252" y="15" type="curve" smooth="yes"/>
      <point x="38" y="15" type="line"/>
      <point x="413" y="527" type="line"/>
      <point x="415" y="536" type="line"/>
      <point x="151" y="536" type="line"/>
      <point x="115" y="420" type="line"/>
      <point x="125" y="420" type="line"/>
      <point x="150" y="486" type="line" smooth="yes"/>
      <point x="164" y="522"/>
      <point x="167" y="521"/>
      <point x="219" y="521" type="curve" smooth="yes"/>
      <point x="381" y="521" type="line"/>
      <point x="5" y="9" type="line"/>
    </contour>
  </outline>
</glyph>
<glyph name="braceleft" format="2">
  <advance width="410"/>
  <unicode hex="007B"/>
  <outline>
    <contour>
      <point x="224" y="-132" type="curve" smooth="yes"/>
      <point x="268" y="-132" type="line"/>
      <point x="270" y="-122" type="line"/>
      <point x="225" y="-122" type="line" smooth="yes"/>
      <point x="185" y="-122"/>
      <point x="163" y="-106"/>
      <point x="163" y="-56" type="curve" smooth="yes"/>
      <point x="163" y="-38"/>
      <point x="166" y="-17"/>
      <point x="170" y="2" type="curve" smooth="yes"/>
      <point x="205" y="165" type="line" smooth="yes"/>
      <point x="210" y="188"/>
      <point x="213" y="208"/>
      <point x="213" y="223" type="curve" smooth="yes"/>
      <point x="213" y="272"/>
      <point x="193" y="307"/>
      <point x="136" y="311" type="curve"/>
      <point x="136" y="314" type="line"/>
      <point x="213" y="321"/>
      <point x="247" y="368"/>
      <point x="263" y="442" type="curve" smooth="yes"/>
      <point x="303" y="631" type="line" smooth="yes"/>
      <point x="325" y="737"/>
      <point x="348" y="750"/>
      <point x="415" y="750" type="curve" smooth="yes"/>
      <point x="440" y="750" type="line"/>
      <point x="442" y="760" type="line"/>
      <point x="415" y="760" type="line" smooth="yes"/>
      <point x="325" y="760"/>
      <point x="296" y="734"/>
      <point x="273" y="620" type="curve" smooth="yes"/>
      <point x="236" y="440" type="line" smooth="yes"/>
      <point x="215" y="336"/>
      <point x="168" y="324"/>
      <point x="88" y="319" type="curve"/>
      <point x="86" y="308" type="line"/>
      <point x="163" y="305"/>
      <point x="186" y="290"/>
      <point x="186" y="230" type="curve" smooth="yes"/>
      <point x="186" y="216"/>
      <point x="181" y="187"/>
      <point x="178" y="172" type="curve" smooth="yes"/>
      <point x="145" y="17" type="line" smooth="yes"/>
      <point x="141" y="-3"/>
      <point x="138" y="-23"/>
      <point x="138" y="-41" type="curve" smooth="yes"/>
      <point x="138" y="-107"/>
      <point x="168" y="-132"/>
    </contour>
  </outline>
</glyph>
<glyph name="braceright" format="2">
  <advance width="410"/>
  <unicode hex="007D"/>
  <outline>
    <contour>
      <point x="-12" y="-132" type="line"/>
      <point x="15" y="-132" type="line" smooth="yes"/>
      <point x="105" y="-132"/>
      <point x="134" y="-106"/>
      <point x="157" y="8" type="curve" smooth="yes"/>
      <point x="194" y="188" type="line" smooth="yes"/>
      <point x="215" y="292"/>
      <point x="262" y="304"/>
      <point x="342" y="309" type="curve"/>
      <point x="344" y="319" type="line"/>
      <point x="267" y="323"/>
      <point x="244" y="338"/>
      <point x="244" y="398" type="curve" smooth="yes"/>
      <point x="244" y="412"/>
      <point x="247" y="436"/>
      <point x="252" y="458" type="curve" smooth="yes"/>
      <point x="285" y="611" type="line" smooth="yes"/>
      <point x="289" y="631"/>
      <point x="292" y="651"/>
      <point x="292" y="669" type="curve" smooth="yes"/>
      <point x="292" y="735"/>
      <point x="262" y="760"/>
      <point x="206" y="760" type="curve" smooth="yes"/>
      <point x="162" y="760" type="line"/>
      <point x="160" y="750" type="line"/>
      <point x="205" y="750" type="line" smooth="yes"/>
      <point x="245" y="750"/>
      <point x="267" y="734"/>
      <point x="267" y="684" type="curve" smooth="yes"/>
      <point x="267" y="666"/>
      <point x="264" y="645"/>
      <point x="260" y="626" type="curve" smooth="yes"/>
      <point x="225" y="463" type="line" smooth="yes"/>
      <point x="220" y="440"/>
      <point x="217" y="420"/>
      <point x="217" y="405" type="curve" smooth="yes"/>
      <point x="217" y="356"/>
      <point x="237" y="321"/>
      <point x="294" y="317" type="curve"/>
      <point x="294" y="314" type="line"/>
      <point x="217" y="307"/>
      <point x="183" y="260"/>
      <point x="167" y="186" type="curve" smooth="yes"/>
      <point x="127" y="-3" type="line" smooth="yes"/>
      <point x="105" y="-109"/>
      <point x="82" y="-122"/>
      <point x="15" y="-122" type="curve" smooth="yes"/>
      <point x="-10" y="-122" type="line"/>
    </contour>
  </outline>
</glyph>
<glyph name="cent" format="2">
  <advance width="511"/>
  <unicode hex="00A2"/>
  <anchor x="220" y="93" name="bottom"/>
  <anchor x="324" y="629" name="top"/>
  <anchor x="500" y="629" name="topright"/>
  <outline>
    <contour>
      <point x="204" y="0" type="line"/>
      <point x="214" y="0" type="line"/>
      <point x="366" y="714" type="line"/>
      <point x="356" y="714" type="line"/>
    </contour>
    <component base="c" xOffset="37" yOffset="93"/>
  </outline>
</glyph>
<glyph name="sterling" format="2">
  <advance width="511"/>
  <unicode hex="00A3"/>
  <outline>
    <contour>
      <point x="314" y="-10" type="curve" smooth="yes"/>
      <point x="356" y="-10"/>
      <point x="399" y="23"/>
      <point x="441" y="70" type="curve"/>
      <point x="431" y="80" type="line"/>
      <point x="401" y="44"/>
      <point x="364" y="10"/>
      <point x="318" y="10" type="curve" smooth="yes"/>
      <point x="259" y="10"/>
      <point x="220" y="60"/>
      <point x="153" y="60" type="curve" smooth="yes"/>
      <point x="131" y="60"/>
      <point x="107" y="50"/>
      <point x="89" y="43" type="curve"/>
      <point x="87" y="47" type="line"/>
      <point x="174" y="107"/>
      <point x="208" y="172"/>
      <point x="208" y="255" type="curve" smooth="yes"/>
      <point x="208" y="286"/>
      <point x="201" y="327"/>
      <point x="195" y="346" type="curve"/>
      <point x="354" y="346" type="line"/>
      <point x="355" y="356" type="line"/>
      <point x="193" y="356" type="line"/>
      <point x="173" y="420"/>
      <point x="172" y="457"/>
      <point x="172" y="492" type="curve" smooth="yes"/>
      <point x="172" y="636"/>
      <point x="243" y="714"/>
      <point x="367" y="714" type="curve" smooth="yes"/>
      <point x="452" y="714"/>
      <point x="493" y="661"/>
      <point x="493" y="575" type="curve"/>
      <point x="509" y="575"/>
      <point x="520" y="583"/>
      <point x="520" y="605" type="curve" smooth="yes"/>
      <point x="520" y="657"/>
      <point x="470" y="724"/>
      <point x="368" y="724" type="curve" smooth="yes"/>
      <point x="221" y="724"/>
      <point x="144" y="630"/>
      <point x="144" y="492" type="curve" smooth="yes"/>
      <point x="144" y="445"/>
      <point x="150" y="409"/>
      <point x="164" y="356" type="curve"/>
      <point x="69" y="356" type="line"/>
      <point x="69" y="346" type="line"/>
      <point x="167" y="346" type="line"/>
      <point x="173" y="325"/>
      <point x="180" y="286"/>
      <point x="180" y="255" type="curve" smooth="yes"/>
      <point x="180" y="157"/>
      <point x="143" y="88"/>
      <point x="38" y="29" type="curve" smooth="yes"/>
      <point x="1" y="11" type="line"/>
      <point x="6" y="-2" type="line"/>
      <point x="19" y="4" type="line" smooth="yes"/>
      <point x="54" y="20"/>
      <point x="99" y="39"/>
      <point x="146" y="40" type="curve" smooth="yes"/>
      <point x="197" y="41"/>
      <point x="231" y="-10"/>
    </contour>
  </outline>
</glyph>
<glyph name="currency" format="2">
  <advance width="511"/>
  <unicode hex="00A4"/>
  <outline>
    <contour>
      <point x="86" y="151" type="line"/>
      <point x="159" y="224" type="line"/>
      <point x="190" y="197"/>
      <point x="231" y="181"/>
      <point x="275" y="181" type="curve" smooth="yes"/>
      <point x="319" y="181"/>
      <point x="359" y="197"/>
      <point x="390" y="223" type="curve"/>
      <point x="462" y="151" type="line"/>
      <point x="482" y="171" type="line"/>
      <point x="410" y="243" type="line"/>
      <point x="436" y="275"/>
      <point x="452" y="315"/>
      <point x="452" y="360" type="curve" smooth="yes"/>
      <point x="452" y="404"/>
      <point x="436" y="444"/>
      <point x="410" y="475" type="curve"/>
      <point x="482" y="547" type="line"/>
      <point x="462" y="567" type="line"/>
      <point x="390" y="495" type="line"/>
      <point x="359" y="521"/>
      <point x="319" y="537"/>
      <point x="275" y="537" type="curve" smooth="yes"/>
      <point x="230" y="537"/>
      <point x="190" y="521"/>
      <point x="158" y="495" type="curve"/>
      <point x="86" y="567" type="line"/>
      <point x="66" y="547" type="line"/>
      <point x="138" y="475" type="line"/>
      <point x="112" y="444"/>
      <point x="96" y="404"/>
      <point x="96" y="360" type="curve" smooth="yes"/>
      <point x="96" y="316"/>
      <point x="112" y="275"/>
      <point x="139" y="244" type="curve"/>
      <point x="66" y="171" type="line"/>
    </contour>
    <contour>
      <point x="274" y="209" type="curve" smooth="yes"/>
      <point x="191" y="209"/>
      <point x="124" y="276"/>
      <point x="124" y="359" type="curve" smooth="yes"/>
      <point x="124" y="442"/>
      <point x="191" y="509"/>
      <point x="274" y="509" type="curve" smooth="yes"/>
      <point x="357" y="509"/>
      <point x="424" y="442"/>
      <point x="424" y="359" type="curve" smooth="yes"/>
      <point x="424" y="275"/>
      <point x="357" y="209"/>
    </contour>
  </outline>
</glyph>
<glyph name="yen" format="2">
  <advance width="511"/>
  <unicode hex="00A5"/>
  <outline>
    <contour>
      <point x="89" y="0" type="line"/>
      <point x="315" y="0" type="line"/>
      <point x="317" y="10" type="line"/>
      <point x="274" y="10" type="line" smooth="yes"/>
      <point x="242" y="10"/>
      <point x="229" y="17"/>
      <point x="229" y="42" type="curve" smooth="yes"/>
      <point x="229" y="49"/>
      <point x="230" y="58"/>
      <point x="232" y="69" type="curve" smooth="yes"/>
      <point x="263" y="224" type="line"/>
      <point x="413" y="224" type="line"/>
      <point x="415" y="234" type="line"/>
      <point x="266" y="234" type="line"/>
      <point x="289" y="344" type="line"/>
      <point x="439" y="344" type="line"/>
      <point x="441" y="354" type="line"/>
      <point x="295" y="354" type="line"/>
      <point x="508" y="640" type="line" smooth="yes"/>
      <point x="554" y="702"/>
      <point x="560" y="704"/>
      <point x="590" y="704" type="curve" smooth="yes"/>
      <point x="602" y="704" type="line"/>
      <point x="604" y="714" type="line"/>
      <point x="463" y="714" type="line"/>
      <point x="461" y="704" type="line"/>
      <point x="486" y="704" type="line" smooth="yes"/>
      <point x="512" y="704"/>
      <point x="523" y="700"/>
      <point x="523" y="690" type="curve" smooth="yes"/>
      <point x="523" y="676"/>
      <point x="501" y="650"/>
      <point x="467" y="603" type="curve" smooth="yes"/>
      <point x="366" y="465" type="line" smooth="yes"/>
      <point x="344" y="435"/>
      <point x="308" y="388"/>
      <point x="286" y="358" type="curve"/>
      <point x="276" y="387"/>
      <point x="253" y="450"/>
      <point x="240" y="487" type="curve" smooth="yes"/>
      <point x="182" y="652" type="line" smooth="yes"/>
      <point x="177" y="665"/>
      <point x="175" y="675"/>
      <point x="175" y="683" type="curve" smooth="yes"/>
      <point x="175" y="699"/>
      <point x="185" y="704"/>
      <point x="211" y="704" type="curve" smooth="yes"/>
      <point x="241" y="704" type="line"/>
      <point x="244" y="714" type="line"/>
      <point x="96" y="714" type="line"/>
      <point x="93" y="704" type="line"/>
      <point x="106" y="704" type="line" smooth="yes"/>
      <point x="126" y="704"/>
      <point x="136" y="695"/>
      <point x="147" y="665" type="curve" smooth="yes"/>
      <point x="261" y="354" type="line"/>
      <point x="113" y="354" type="line"/>
      <point x="111" y="344" type="line"/>
      <point x="261" y="344" type="line"/>
      <point x="238" y="234" type="line"/>
      <point x="87" y="234" type="line"/>
      <point x="85" y="224" type="line"/>
      <point x="235" y="224" type="line"/>
      <point x="202" y="64" type="line" smooth="yes"/>
      <point x="194" y="23"/>
      <point x="177" y="10"/>
      <point x="134" y="10" type="curve" smooth="yes"/>
      <point x="91" y="10" type="line"/>
    </contour>
  </outline>
</glyph>
<glyph name="section" format="2">
  <advance width="544"/>
  <unicode hex="00A7"/>
  <outline>
    <contour>
      <point x="199" y="-115" type="curve" smooth="yes"/>
      <point x="327" y="-115"/>
      <point x="389" y="-52"/>
      <point x="389" y="43" type="curve" smooth="yes"/>
      <point x="389" y="86"/>
      <point x="380" y="109"/>
      <point x="358" y="141" type="curve"/>
      <point x="422" y="187"/>
      <point x="448" y="231"/>
      <point x="448" y="281" type="curve" smooth="yes"/>
      <point x="448" y="348"/>
      <point x="425" y="386"/>
      <point x="312" y="459" type="curve" smooth="yes"/>
      <point x="231" y="511"/>
      <point x="201" y="543"/>
      <point x="201" y="613" type="curve" smooth="yes"/>
      <point x="201" y="683"/>
      <point x="240" y="746"/>
      <point x="344" y="746" type="curve" smooth="yes"/>
      <point x="440" y="746"/>
      <point x="466" y="695"/>
      <point x="466" y="607" type="curve"/>
      <point x="482" y="607"/>
      <point x="493" y="617"/>
      <point x="493" y="637" type="curve" smooth="yes"/>
      <point x="493" y="692"/>
      <point x="453" y="756"/>
      <point x="344" y="756" type="curve" smooth="yes"/>
      <point x="228" y="756"/>
      <point x="173" y="687"/>
      <point x="173" y="613" type="curve" smooth="yes"/>
      <point x="173" y="571"/>
      <point x="187" y="537"/>
      <point x="207" y="511" type="curve"/>
      <point x="144" y="480"/>
      <point x="115" y="433"/>
      <point x="115" y="386" type="curve" smooth="yes"/>
      <point x="115" y="318"/>
      <point x="142" y="271"/>
      <point x="228" y="217" type="curve" smooth="yes"/>
      <point x="338" y="148"/>
      <point x="361" y="101"/>
      <point x="361" y="43" type="curve" smooth="yes"/>
      <point x="361" y="-50"/>
      <point x="308" y="-105"/>
      <point x="199" y="-105" type="curve" smooth="yes"/>
      <point x="96" y="-105"/>
      <point x="53" y="-38"/>
      <point x="53" y="63" type="curve"/>
      <point x="37" y="62"/>
      <point x="26" y="52"/>
      <point x="26" y="33" type="curve" smooth="yes"/>
      <point x="26" y="-41"/>
      <point x="80" y="-115"/>
    </contour>
    <contour>
      <point x="351" y="151" type="curve"/>
      <point x="329" y="176"/>
      <point x="291" y="209"/>
      <point x="242" y="240" type="curve" smooth="yes"/>
      <point x="162" y="291"/>
      <point x="143" y="336"/>
      <point x="143" y="386" type="curve" smooth="yes"/>
      <point x="143" y="433"/>
      <point x="161" y="468"/>
      <point x="213" y="502" type="curve"/>
      <point x="233" y="480"/>
      <point x="265" y="458"/>
      <point x="298" y="436" type="curve" smooth="yes"/>
      <point x="408" y="364"/>
      <point x="420" y="333"/>
      <point x="420" y="281" type="curve" smooth="yes"/>
      <point x="420" y="240"/>
      <point x="403" y="193"/>
    </contour>
  </outline>
</glyph>
<glyph name="dieresis" format="2">
  <advance width="577"/>
  <unicode hex="00A8"/>
  <outline>
    <contour>
      <point x="453" y="658" type="curve" smooth="yes"/>
      <point x="475" y="658"/>
      <point x="484" y="690"/>
      <point x="484" y="718" type="curve" smooth="yes"/>
      <point x="484" y="733"/>
      <point x="478" y="738"/>
      <point x="468" y="738" type="curve" smooth="yes"/>
      <point x="446" y="738"/>
      <point x="437" y="702"/>
      <point x="437" y="677" type="curve" smooth="yes"/>
      <point x="437" y="662"/>
      <point x="444" y="658"/>
    </contour>
    <contour>
      <point x="292" y="658" type="curve" smooth="yes"/>
      <point x="314" y="658"/>
      <point x="323" y="690"/>
      <point x="323" y="718" type="curve" smooth="yes"/>
      <point x="323" y="733"/>
      <point x="317" y="738"/>
      <point x="307" y="738" type="curve" smooth="yes"/>
      <point x="285" y="738"/>
      <point x="276" y="702"/>
      <point x="276" y="677" type="curve" smooth="yes"/>
      <point x="276" y="662"/>
      <point x="283" y="658"/>
    </contour>
  </outline>
</glyph>
<glyph name="copyright" format="2">
  <advance width="845"/>
  <unicode hex="00A9"/>
  <outline>
    <contour>
      <point x="441" y="-10" type="curve" smooth="yes"/>
      <point x="655" y="-10"/>
      <point x="809" y="144"/>
      <point x="809" y="357" type="curve" smooth="yes"/>
      <point x="809" y="571"/>
      <point x="655" y="725"/>
      <point x="441" y="725" type="curve" smooth="yes"/>
      <point x="227" y="725"/>
      <point x="74" y="570"/>
      <point x="74" y="358" type="curve" smooth="yes"/>
      <point x="74" y="144"/>
      <point x="228" y="-10"/>
    </contour>
    <contour>
      <point x="446" y="104" type="curve" smooth="yes"/>
      <point x="545" y="104"/>
      <point x="601" y="161"/>
      <point x="601" y="196" type="curve" smooth="yes"/>
      <point x="601" y="203"/>
      <point x="599" y="214"/>
      <point x="588" y="218" type="curve"/>
      <point x="572" y="155"/>
      <point x="524" y="114"/>
      <point x="448" y="114" type="curve" smooth="yes"/>
      <point x="349" y="114"/>
      <point x="264" y="186"/>
      <point x="264" y="365" type="curve" smooth="yes"/>
      <point x="264" y="534"/>
      <point x="339" y="605"/>
      <point x="441" y="605" type="curve" smooth="yes"/>
      <point x="528" y="605"/>
      <point x="576" y="554"/>
      <point x="576" y="488" type="curve"/>
      <point x="597" y="490"/>
      <point x="602" y="501"/>
      <point x="602" y="515" type="curve" smooth="yes"/>
      <point x="602" y="566"/>
      <point x="538" y="615"/>
      <point x="444" y="615" type="curve" smooth="yes"/>
      <point x="327" y="615"/>
      <point x="236" y="540"/>
      <point x="236" y="362" type="curve" smooth="yes"/>
      <point x="236" y="181"/>
      <point x="331" y="104"/>
    </contour>
    <contour>
      <point x="443" y="0" type="curve" smooth="yes"/>
      <point x="242" y="0"/>
      <point x="86" y="146"/>
      <point x="86" y="358" type="curve" smooth="yes"/>
      <point x="86" y="565"/>
      <point x="235" y="715"/>
      <point x="441" y="715" type="curve" smooth="yes"/>
      <point x="648" y="715"/>
      <point x="797" y="564"/>
      <point x="797" y="358" type="curve" smooth="yes"/>
      <point x="797" y="151"/>
      <point x="647" y="0"/>
    </contour>
  </outline>
</glyph>
<glyph name="ordfeminine" format="2">
  <advance width="343"/>
  <unicode hex="00AA"/>
  <anchor x="192" y="381" name="bottom"/>
  <anchor x="264" y="722" name="top"/>
  <outline>
    <contour>
      <point x="163" y="388" type="curve" smooth="yes"/>
      <point x="209" y="388"/>
      <point x="244" y="428"/>
      <point x="271" y="478" type="curve"/>
      <point x="273" y="478" type="line"/>
      <point x="270" y="467"/>
      <point x="268" y="449"/>
      <point x="268" y="439" type="curve" smooth="yes"/>
      <point x="268" y="412"/>
      <point x="285" y="390"/>
      <point x="317" y="390" type="curve" smooth="yes"/>
      <point x="337" y="390"/>
      <point x="356" y="399"/>
      <point x="374" y="415" type="curve"/>
      <point x="367" y="422" type="line"/>
      <point x="354" y="410"/>
      <point x="339" y="400"/>
      <point x="318" y="400" type="curve" smooth="yes"/>
      <point x="304" y="400"/>
      <point x="288" y="408"/>
      <point x="288" y="439" type="curve" smooth="yes"/>
      <point x="288" y="460"/>
      <point x="295" y="488"/>
      <point x="305" y="522" type="curve" smooth="yes"/>
      <point x="364" y="714" type="line"/>
      <point x="354" y="714" type="line"/>
      <point x="339" y="700" type="line"/>
      <point x="318" y="713"/>
      <point x="296" y="721"/>
      <point x="267" y="721" type="curve" smooth="yes"/>
      <point x="165" y="721"/>
      <point x="87" y="595"/>
      <point x="87" y="493" type="curve" smooth="yes"/>
      <point x="87" y="431"/>
      <point x="110" y="388"/>
    </contour>
    <contour>
      <point x="168" y="399" type="curve" smooth="yes"/>
      <point x="134" y="399"/>
      <point x="113" y="427"/>
      <point x="113" y="495" type="curve" smooth="yes"/>
      <point x="113" y="599"/>
      <point x="183" y="711"/>
      <point x="270" y="711" type="curve" smooth="yes"/>
      <point x="295" y="711"/>
      <point x="320" y="703"/>
      <point x="331" y="690" type="curve"/>
      <point x="284" y="539" type="line" smooth="yes"/>
      <point x="259" y="459"/>
      <point x="214" y="399"/>
    </contour>
  </outline>
</glyph>
<glyph name="registered" format="2">
  <advance width="845"/>
  <unicode hex="00AE"/>
  <outline>
    <contour>
      <point x="441" y="-10" type="curve" smooth="yes"/>
      <point x="655" y="-10"/>
      <point x="809" y="144"/>
      <point x="809" y="357" type="curve" smooth="yes"/>
      <point x="809" y="571"/>
      <point x="655" y="725"/>
      <point x="441" y="725" type="curve" smooth="yes"/>
      <point x="227" y="725"/>
      <point x="74" y="570"/>
      <point x="74" y="358" type="curve" smooth="yes"/>
      <point x="74" y="144"/>
      <point x="228" y="-10"/>
    </contour>
    <contour>
      <point x="443" y="0" type="curve" smooth="yes"/>
      <point x="242" y="0"/>
      <point x="86" y="146"/>
      <point x="86" y="358" type="curve" smooth="yes"/>
      <point x="86" y="565"/>
      <point x="235" y="715"/>
      <point x="441" y="715" type="curve" smooth="yes"/>
      <point x="648" y="715"/>
      <point x="797" y="564"/>
      <point x="797" y="358" type="curve" smooth="yes"/>
      <point x="797" y="151"/>
      <point x="647" y="0"/>
    </contour>
    <contour>
      <point x="277" y="141" type="line"/>
      <point x="430" y="141" type="line"/>
      <point x="430" y="151" type="line"/>
      <point x="416" y="151" type="line" smooth="yes"/>
      <point x="390" y="151"/>
      <point x="367" y="155"/>
      <point x="367" y="177" type="curve" smooth="yes"/>
      <point x="367" y="343" type="line"/>
      <point x="467" y="343" type="line"/>
      <point x="577" y="141" type="line"/>
      <point x="643" y="141" type="line"/>
      <point x="643" y="151" type="line"/>
      <point x="616" y="151"/>
      <point x="605" y="154"/>
      <point x="593" y="177" type="curve" smooth="yes"/>
      <point x="498" y="350" type="line"/>
      <point x="545" y="363"/>
      <point x="590" y="390"/>
      <point x="590" y="454" type="curve" smooth="yes"/>
      <point x="590" y="533"/>
      <point x="538" y="573"/>
      <point x="423" y="573" type="curve" smooth="yes"/>
      <point x="277" y="573" type="line"/>
      <point x="277" y="563" type="line"/>
      <point x="290" y="563" type="line" smooth="yes"/>
      <point x="316" y="563"/>
      <point x="339" y="559"/>
      <point x="339" y="528" type="curve" smooth="yes"/>
      <point x="339" y="177" type="line" smooth="yes"/>
      <point x="339" y="155"/>
      <point x="316" y="151"/>
      <point x="290" y="151" type="curve" smooth="yes"/>
      <point x="277" y="151" type="line"/>
    </contour>
    <contour>
      <point x="441" y="353" type="curve" smooth="yes"/>
      <point x="367" y="353" type="line"/>
      <point x="367" y="563" type="line"/>
      <point x="413" y="563" type="line" smooth="yes"/>
      <point x="511" y="563"/>
      <point x="561" y="536"/>
      <point x="561" y="453" type="curve" smooth="yes"/>
      <point x="561" y="387"/>
      <point x="526" y="353"/>
    </contour>
  </outline>
</glyph>
<glyph name="plusminus" format="2">
  <advance width="559"/>
  <unicode hex="00B1"/>
  <outline>
    <contour>
      <point x="48" y="15" type="line"/>
      <point x="477" y="15" type="line"/>
      <point x="477" y="35" type="line"/>
      <point x="48" y="35" type="line"/>
    </contour>
    <component base="plus" xOffset="-36"/>
  </outline>
</glyph>
<glyph name="twosuperior" format="2">
  <advance width="400"/>
  <unicode hex="00B2"/>
  <outline>
    <contour>
      <point x="89" y="387" type="line"/>
      <point x="373" y="387" type="line"/>
      <point x="393" y="480" type="line"/>
      <point x="383" y="480" type="line"/>
      <point x="380" y="467" type="line" smooth="yes"/>
      <point x="368" y="415"/>
      <point x="360" y="412"/>
      <point x="304" y="412" type="curve" smooth="yes"/>
      <point x="115" y="412" type="line"/>
      <point x="226" y="499" type="line" smooth="yes"/>
      <point x="355" y="600"/>
      <point x="412" y="646"/>
      <point x="412" y="724" type="curve" smooth="yes"/>
      <point x="412" y="784"/>
      <point x="374" y="825"/>
      <point x="298" y="825" type="curve" smooth="yes"/>
      <point x="205" y="825"/>
      <point x="163" y="750"/>
      <point x="163" y="710" type="curve" smooth="yes"/>
      <point x="163" y="690"/>
      <point x="171" y="682"/>
      <point x="189" y="682" type="curve"/>
      <point x="189" y="755"/>
      <point x="220" y="815"/>
      <point x="298" y="815" type="curve" smooth="yes"/>
      <point x="353" y="815"/>
      <point x="384" y="778"/>
      <point x="384" y="724" type="curve" smooth="yes"/>
      <point x="384" y="661"/>
      <point x="362" y="628"/>
      <point x="230" y="518" type="curve" smooth="yes"/>
      <point x="93" y="404" type="line"/>
    </contour>
  </outline>
</glyph>
<glyph name="threesuperior" format="2">
  <advance width="400"/>
  <unicode hex="00B3"/>
  <outline>
    <contour>
      <point x="222" y="380" type="curve" smooth="yes"/>
      <point x="328" y="380"/>
      <point x="398" y="432"/>
      <point x="398" y="516" type="curve" smooth="yes"/>
      <point x="398" y="569"/>
      <point x="364" y="600"/>
      <point x="319" y="613" type="curve"/>
      <point x="319" y="616" type="line"/>
      <point x="375" y="627"/>
      <point x="423" y="673"/>
      <point x="423" y="731" type="curve" smooth="yes"/>
      <point x="423" y="783"/>
      <point x="379" y="824"/>
      <point x="303" y="824" type="curve" smooth="yes"/>
      <point x="211" y="824"/>
      <point x="159" y="765"/>
      <point x="159" y="722" type="curve" smooth="yes"/>
      <point x="159" y="702"/>
      <point x="171" y="699"/>
      <point x="179" y="699" type="curve"/>
      <point x="190" y="773"/>
      <point x="236" y="814"/>
      <point x="303" y="814" type="curve" smooth="yes"/>
      <point x="356" y="814"/>
      <point x="394" y="783"/>
      <point x="394" y="728" type="curve" smooth="yes"/>
      <point x="394" y="674"/>
      <point x="344" y="619"/>
      <point x="255" y="619" type="curve" smooth="yes"/>
      <point x="216" y="619" type="line"/>
      <point x="212" y="609" type="line"/>
      <point x="245" y="609" type="line" smooth="yes"/>
      <point x="334" y="609"/>
      <point x="370" y="568"/>
      <point x="370" y="519" type="curve" smooth="yes"/>
      <point x="370" y="432"/>
      <point x="312" y="390"/>
      <point x="222" y="390" type="curve" smooth="yes"/>
      <point x="153" y="390"/>
      <point x="119" y="432"/>
      <point x="134" y="508" type="curve"/>
      <point x="112" y="508"/>
      <point x="102" y="483"/>
      <point x="102" y="460" type="curve" smooth="yes"/>
      <point x="102" y="412"/>
      <point x="150" y="380"/>
    </contour>
  </outline>
</glyph>
<glyph name="micro" format="2">
  <advance width="498"/>
  <unicode hex="00B5"/>
  <outline>
    <contour>
      <point x="17" y="-240" type="curve" smooth="yes"/>
      <point x="37" y="-240"/>
      <point x="48" y="-229"/>
      <point x="49" y="-210" type="curve"/>
      <point x="25" y="-209"/>
      <point x="16" y="-202"/>
      <point x="18" y="-169" type="curve" smooth="yes"/>
      <point x="19" y="-140"/>
      <point x="31" y="-78"/>
      <point x="66" y="64" type="curve"/>
      <point x="75" y="15"/>
      <point x="105" y="-9"/>
      <point x="152" y="-9" type="curve" smooth="yes"/>
      <point x="227" y="-9"/>
      <point x="282" y="39"/>
      <point x="336" y="136" type="curve"/>
      <point x="338" y="136" type="line"/>
      <point x="328" y="46"/>
      <point x="337" y="-10"/>
      <point x="388" y="-10" type="curve" smooth="yes"/>
      <point x="404" y="-10"/>
      <point x="418" y="-6"/>
      <point x="431" y="1" type="curve"/>
      <point x="427" y="11" type="line"/>
      <point x="417" y="6"/>
      <point x="404" y="1"/>
      <point x="390" y="1" type="curve" smooth="yes"/>
      <point x="368" y="1"/>
      <point x="359" y="22"/>
      <point x="359" y="69" type="curve" smooth="yes"/>
      <point x="359" y="101"/>
      <point x="362" y="157"/>
      <point x="376" y="221" type="curve" smooth="yes"/>
      <point x="443" y="536" type="line"/>
      <point x="415" y="536" type="line"/>
      <point x="349" y="221" type="line" smooth="yes"/>
      <point x="330" y="129"/>
      <point x="259" y="1"/>
      <point x="153" y="1" type="curve" smooth="yes"/>
      <point x="108" y="1"/>
      <point x="81" y="36"/>
      <point x="81" y="95" type="curve" smooth="yes"/>
      <point x="81" y="124"/>
      <point x="93" y="176"/>
      <point x="105" y="230" type="curve" smooth="yes"/>
      <point x="178" y="536" type="line"/>
      <point x="150" y="536" type="line"/>
      <point x="77" y="230" type="line" smooth="yes"/>
      <point x="29" y="28"/>
      <point x="-18" y="-138"/>
      <point x="-18" y="-183" type="curve" smooth="yes"/>
      <point x="-18" y="-221"/>
      <point x="-9" y="-240"/>
    </contour>
  </outline>
</glyph>
<glyph name="paragraph" format="2">
  <advance width="605"/>
  <unicode hex="00B6"/>
  <outline>
    <contour>
      <point x="193" y="-111" type="line"/>
      <point x="316" y="-111" type="line"/>
      <point x="316" y="750" type="line"/>
      <point x="453" y="750" type="line"/>
      <point x="453" y="-111" type="line"/>
      <point x="576" y="-111" type="line"/>
      <point x="576" y="-101" type="line"/>
      <point x="552" y="-101" type="line" smooth="yes"/>
      <point x="498" y="-101"/>
      <point x="481" y="-97"/>
      <point x="481" y="-48" type="curve" smooth="yes"/>
      <point x="481" y="686" type="line" smooth="yes"/>
      <point x="481" y="741"/>
      <point x="491" y="750"/>
      <point x="553" y="750" type="curve" smooth="yes"/>
      <point x="576" y="750" type="line"/>
      <point x="576" y="760" type="line"/>
      <point x="219" y="760" type="line" smooth="yes"/>
      <point x="106" y="760"/>
      <point x="64" y="689"/>
      <point x="64" y="582" type="curve" smooth="yes"/>
      <point x="64" y="478"/>
      <point x="100" y="386"/>
      <point x="217" y="386" type="curve" smooth="yes"/>
      <point x="288" y="386" type="line"/>
      <point x="288" y="-55" type="line" smooth="yes"/>
      <point x="288" y="-98"/>
      <point x="272" y="-101"/>
      <point x="221" y="-101" type="curve" smooth="yes"/>
      <point x="193" y="-101" type="line"/>
    </contour>
  </outline>
</glyph>
<glyph name="periodcentered" format="2">
  <advance width="181"/>
  <unicode hex="00B7"/>
  <outline>
    <contour>
      <point x="100" y="318" type="curve" smooth="yes"/>
      <point x="126" y="318"/>
      <point x="136" y="348"/>
      <point x="136" y="374" type="curve" smooth="yes"/>
      <point x="136" y="391"/>
      <point x="129" y="398"/>
      <point x="117" y="398" type="curve" smooth="yes"/>
      <point x="90" y="398"/>
      <point x="82" y="367"/>
      <point x="82" y="342" type="curve" smooth="yes"/>
      <point x="82" y="324"/>
      <point x="89" y="318"/>
    </contour>
  </outline>
</glyph>
<glyph name="cedilla" format="2">
  <advance width="333"/>
  <unicode hex="00B8"/>
  <outline>
    <contour>
      <point x="145" y="-220" type="curve" smooth="yes"/>
      <point x="205" y="-220"/>
      <point x="245" y="-183"/>
      <point x="245" y="-127" type="curve" smooth="yes"/>
      <point x="245" y="-83"/>
      <point x="213" y="-57"/>
      <point x="152" y="-54" type="curve"/>
      <point x="181" y="9" type="line"/>
      <point x="170" y="9" type="line"/>
      <point x="139" y="-62" type="line"/>
      <point x="206" y="-65"/>
      <point x="221" y="-90"/>
      <point x="221" y="-122" type="curve" smooth="yes"/>
      <point x="221" y="-173"/>
      <point x="193" y="-210"/>
      <point x="142" y="-210" type="curve" smooth="yes"/>
      <point x="127" y="-210"/>
      <point x="105" y="-207"/>
      <point x="84" y="-200" type="curve"/>
      <point x="82" y="-210" type="line"/>
      <point x="106" y="-217"/>
      <point x="127" y="-220"/>
    </contour>
  </outline>
</glyph>
<glyph name="onesuperior" format="2">
  <advance width="400"/>
  <unicode hex="00B9"/>
  <outline>
    <contour>
      <point x="117" y="387" type="line"/>
      <point x="357" y="387" type="line"/>
      <point x="359" y="397" type="line"/>
      <point x="283" y="397" type="line" smooth="yes"/>
      <point x="273" y="397"/>
      <point x="264" y="397"/>
      <point x="258" y="403" type="curve" smooth="yes"/>
      <point x="253" y="408"/>
      <point x="251" y="417"/>
      <point x="254" y="431" type="curve" smooth="yes"/>
      <point x="336" y="819" type="line"/>
      <point x="323" y="819" type="line"/>
      <point x="276" y="774"/>
      <point x="220" y="740"/>
      <point x="168" y="740" type="curve"/>
      <point x="168" y="725"/>
      <point x="179" y="719"/>
      <point x="190" y="719" type="curve" smooth="yes"/>
      <point x="228" y="719"/>
      <point x="278" y="761"/>
      <point x="304" y="792" type="curve"/>
      <point x="305" y="791" type="line"/>
      <point x="228" y="428" type="line" smooth="yes"/>
      <point x="222" y="400"/>
      <point x="205" y="397"/>
      <point x="184" y="397" type="curve" smooth="yes"/>
      <point x="119" y="397" type="line"/>
    </contour>
  </outline>
</glyph>
<glyph name="ordmasculine" format="2">
  <advance width="333"/>
  <unicode hex="00BA"/>
  <anchor x="187" y="388" name="bottom"/>
  <anchor x="263" y="724" name="top"/>
  <outline>
    <contour>
      <point x="199" y="388" type="curve" smooth="yes"/>
      <point x="318" y="388"/>
      <point x="373" y="515"/>
      <point x="373" y="599" type="curve" smooth="yes"/>
      <point x="373" y="684"/>
      <point x="320" y="721"/>
      <point x="256" y="721" type="curve" smooth="yes"/>
      <point x="139" y="721"/>
      <point x="83" y="601"/>
      <point x="83" y="511" type="curve" smooth="yes"/>
      <point x="83" y="432"/>
      <point x="126" y="388"/>
    </contour>
    <contour>
      <point x="199" y="398" type="curve" smooth="yes"/>
      <point x="155" y="398"/>
      <point x="109" y="438"/>
      <point x="109" y="511" type="curve" smooth="yes"/>
      <point x="109" y="599"/>
      <point x="151" y="711"/>
      <point x="256" y="711" type="curve" smooth="yes"/>
      <point x="306" y="711"/>
      <point x="347" y="675"/>
      <point x="347" y="599" type="curve" smooth="yes"/>
      <point x="347" y="511"/>
      <point x="298" y="398"/>
    </contour>
  </outline>
</glyph>
<glyph name="Aring" format="2">
  <advance width="644"/>
  <unicode hex="00C5"/>
  <anchor x="266" y="0" name="bottom"/>
  <anchor x="435" y="881" name="top"/>
  <anchor x="719" y="714" name="topright"/>
  <outline>
    <contour>
      <point x="-61" y="0" type="line"/>
      <point x="157" y="0" type="line"/>
      <point x="159" y="10" type="line"/>
      <point x="114" y="10" type="line" smooth="yes"/>
      <point x="72" y="10"/>
      <point x="63" y="12"/>
      <point x="63" y="32" type="curve" smooth="yes"/>
      <point x="63" y="46"/>
      <point x="78" y="77"/>
      <point x="92" y="102" type="curve" smooth="yes"/>
      <point x="318" y="512" type="line" smooth="yes"/>
      <point x="373" y="613"/>
      <point x="385" y="635"/>
      <point x="411" y="685" type="curve"/>
      <point x="416" y="634"/>
      <point x="430" y="543"/>
      <point x="439" y="484" type="curve" smooth="yes"/>
      <point x="500" y="98" type="line" smooth="yes"/>
      <point x="501" y="91"/>
      <point x="505" y="65"/>
      <point x="505" y="50" type="curve" smooth="yes"/>
      <point x="505" y="17"/>
      <point x="497" y="10"/>
      <point x="451" y="10" type="curve" smooth="yes"/>
      <point x="413" y="10" type="line"/>
      <point x="411" y="0" type="line"/>
      <point x="592" y="0" type="line"/>
      <point x="594" y="10" type="line"/>
      <point x="581" y="10" type="line" smooth="yes"/>
      <point x="545" y="10"/>
      <point x="541" y="16"/>
      <point x="527" y="99" type="curve" smooth="yes"/>
      <point x="428" y="705" type="line"/>
      <point x="422" y="704" type="line"/>
      <point x="416" y="704" type="line"/>
      <point x="413" y="705" type="line"/>
      <point x="85" y="110" type="line" smooth="yes"/>
      <point x="33" y="15"/>
      <point x="27" y="10"/>
      <point x="-25" y="10" type="curve" smooth="yes"/>
      <point x="-59" y="10" type="line"/>
    </contour>
    <contour>
      <point x="172" y="258" type="line"/>
      <point x="492" y="258" type="line"/>
      <point x="490" y="268" type="line"/>
      <point x="177" y="268" type="line"/>
    </contour>
    <component base="ring" xOffset="173" yOffset="83"/>
  </outline>
</glyph>
<glyph name="Eth" format="2">
  <advance width="670"/>
  <unicode hex="00D0"/>
  <anchor x="278" y="0" name="bottom"/>
  <anchor x="430" y="714" name="top"/>
  <anchor x="376" y="357" name="center"/>
  <anchor x="748" y="714" name="topright"/>
  <outline>
    <contour>
      <point x="47" y="376" type="line"/>
      <point x="411" y="376" type="line"/>
      <point x="414" y="386" type="line"/>
      <point x="49" y="386" type="line"/>
    </contour>
    <component base="D"/>
  </outline>
</glyph>
<glyph name="Thorn" format="2">
  <advance width="561"/>
  <unicode hex="00DE"/>
  <anchor x="225" y="0" name="bottom"/>
  <anchor x="377" y="714" name="top"/>
  <outline>
    <contour>
      <point x="-19" y="0" type="line"/>
      <point x="207" y="0" type="line"/>
      <point x="209" y="10" type="line"/>
      <point x="166" y="10" type="line" smooth="yes"/>
      <point x="131" y="10"/>
      <point x="119" y="18"/>
      <point x="119" y="33" type="curve" smooth="yes"/>
      <point x="119" y="42"/>
      <point x="121" y="54"/>
      <point x="124" y="69" type="curve" smooth="yes"/>
      <point x="143" y="166" type="line"/>
      <point x="213" y="166" type="line" smooth="yes"/>
      <point x="472" y="166"/>
      <point x="521" y="303"/>
      <point x="521" y="406" type="curve" smooth="yes"/>
      <point x="521" y="529"/>
      <point x="445" y="593"/>
      <point x="319" y="593" type="curve" smooth="yes"/>
      <point x="234" y="593" type="line"/>
      <point x="247" y="651" type="line" smooth="yes"/>
      <point x="256" y="691"/>
      <point x="272" y="704"/>
      <point x="314" y="704" type="curve" smooth="yes"/>
      <point x="357" y="704" type="line"/>
      <point x="359" y="714" type="line"/>
      <point x="133" y="714" type="line"/>
      <point x="131" y="704" type="line"/>
      <point x="174" y="704" type="line" smooth="yes"/>
      <point x="207" y="704"/>
      <point x="220" y="699"/>
      <point x="220" y="673" type="curve" smooth="yes"/>
      <point x="220" y="660"/>
      <point x="217" y="642"/>
      <point x="211" y="616" type="curve" smooth="yes"/>
      <point x="95" y="68" type="line" smooth="yes"/>
      <point x="85" y="24"/>
      <point x="69" y="10"/>
      <point x="26" y="10" type="curve" smooth="yes"/>
      <point x="-17" y="10" type="line"/>
    </contour>
    <contour>
      <point x="146" y="176" type="line"/>
      <point x="232" y="583" type="line"/>
      <point x="318" y="583" type="line" smooth="yes"/>
      <point x="436" y="583"/>
      <point x="493" y="519"/>
      <point x="493" y="406" type="curve" smooth="yes"/>
      <point x="493" y="271"/>
      <point x="413" y="176"/>
      <point x="213" y="176" type="curve" smooth="yes"/>
    </contour>
  </outline>
</glyph>
<glyph name="germandbls" format="2">
  <advance width="540"/>
  <unicode hex="00DF"/>
  <anchor x="322" y="-10" name="bottom"/>
  <anchor x="373" y="757" name="top"/>
  <outline>
    <contour>
      <point x="-74" y="-240" type="curve" smooth="yes"/>
      <point x="15" y="-240"/>
      <point x="48" y="-171"/>
      <point x="82" y="-8" type="curve" smooth="yes"/>
      <point x="211" y="604" type="line" smooth="yes"/>
      <point x="229" y="687"/>
      <point x="285" y="747"/>
      <point x="385" y="747" type="curve" smooth="yes"/>
      <point x="462" y="747"/>
      <point x="501" y="704"/>
      <point x="501" y="619" type="curve" smooth="yes"/>
      <point x="501" y="602"/>
      <point x="499" y="566"/>
      <point x="494" y="540" type="curve"/>
      <point x="308" y="540"/>
      <point x="265" y="469"/>
      <point x="265" y="394" type="curve" smooth="yes"/>
      <point x="265" y="336"/>
      <point x="310" y="302"/>
      <point x="367" y="255" type="curve" smooth="yes"/>
      <point x="429" y="203"/>
      <point x="444" y="170"/>
      <point x="444" y="135" type="curve" smooth="yes"/>
      <point x="444" y="38"/>
      <point x="397" y="0"/>
      <point x="325" y="0" type="curve" smooth="yes"/>
      <point x="235" y="0"/>
      <point x="220" y="61"/>
      <point x="222" y="127" type="curve"/>
      <point x="205" y="127"/>
      <point x="198" y="115"/>
      <point x="197" y="91" type="curve" smooth="yes"/>
      <point x="195" y="37"/>
      <point x="235" y="-10"/>
      <point x="322" y="-10" type="curve" smooth="yes"/>
      <point x="411" y="-10"/>
      <point x="470" y="42"/>
      <point x="470" y="133" type="curve" smooth="yes"/>
      <point x="470" y="202"/>
      <point x="431" y="238"/>
      <point x="366" y="290" type="curve" smooth="yes"/>
      <point x="308" y="337"/>
      <point x="290" y="359"/>
      <point x="290" y="397" type="curve" smooth="yes"/>
      <point x="290" y="466"/>
      <point x="326" y="530"/>
      <point x="489" y="530" type="curve" smooth="yes"/>
      <point x="519" y="530" type="line"/>
      <point x="528" y="571"/>
      <point x="526" y="583"/>
      <point x="526" y="608" type="curve" smooth="yes"/>
      <point x="526" y="696"/>
      <point x="485" y="757"/>
      <point x="384" y="757" type="curve" smooth="yes"/>
      <point x="322" y="757"/>
      <point x="214" y="736"/>
      <point x="181" y="583" type="curve" smooth="yes"/>
      <point x="171" y="536" type="line"/>
      <point x="96" y="536" type="line"/>
      <point x="93" y="526" type="line"/>
      <point x="169" y="526" type="line"/>
      <point x="53" y="-24" type="line" smooth="yes"/>
      <point x="22" y="-171"/>
      <point x="-3" y="-229"/>
      <point x="-76" y="-229" type="curve" smooth="yes"/>
      <point x="-91" y="-229"/>
      <point x="-106" y="-226"/>
      <point x="-119" y="-222" type="curve"/>
      <point x="-122" y="-232" type="line"/>
      <point x="-105" y="-237"/>
      <point x="-89" y="-240"/>
    </contour>
  </outline>
</glyph>
<glyph name="ae" format="2">
  <advance width="726"/>
  <unicode hex="00E6"/>
  <anchor x="311" y="0" name="bottom"/>
  <anchor x="425" y="536" name="top"/>
  <anchor x="733" y="536" name="topright"/>
  <outline>
    <contour>
      <point x="176" y="-10" type="curve" smooth="yes"/>
      <point x="258" y="-10"/>
      <point x="306" y="53"/>
      <point x="342" y="138" type="curve"/>
      <point x="345" y="138" type="line"/>
      <point x="362" y="29"/>
      <point x="416" y="-10"/>
      <point x="502" y="-10" type="curve" smooth="yes"/>
      <point x="585" y="-10"/>
      <point x="633" y="44"/>
      <point x="633" y="85" type="curve" smooth="yes"/>
      <point x="633" y="93"/>
      <point x="630" y="97"/>
      <point x="625" y="100" type="curve"/>
      <point x="603" y="34"/>
      <point x="563" y="0"/>
      <point x="504" y="0" type="curve" smooth="yes"/>
      <point x="414" y="0"/>
      <point x="365" y="73"/>
      <point x="365" y="191" type="curve" smooth="yes"/>
      <point x="365" y="208"/>
      <point x="367" y="231"/>
      <point x="369" y="248" type="curve"/>
      <point x="398" y="248" type="line" smooth="yes"/>
      <point x="589" y="248"/>
      <point x="688" y="329"/>
      <point x="688" y="438" type="curve" smooth="yes"/>
      <point x="688" y="504"/>
      <point x="646" y="546"/>
      <point x="580" y="546" type="curve" smooth="yes"/>
      <point x="522" y="546"/>
      <point x="477" y="518"/>
      <point x="445" y="482" type="curve"/>
      <point x="399" y="533"/>
      <point x="355" y="546"/>
      <point x="300" y="546" type="curve" smooth="yes"/>
      <point x="116" y="546"/>
      <point x="38" y="323"/>
      <point x="38" y="193" type="curve" smooth="yes"/>
      <point x="38" y="57"/>
      <point x="84" y="-10"/>
    </contour>
    <contour>
      <point x="183" y="1" type="curve" smooth="yes"/>
      <point x="109" y="1"/>
      <point x="66" y="59"/>
      <point x="66" y="188" type="curve" smooth="yes"/>
      <point x="66" y="312"/>
      <point x="139" y="534"/>
      <point x="305" y="534" type="curve" smooth="yes"/>
      <point x="350" y="534"/>
      <point x="400" y="521"/>
      <point x="437" y="476" type="curve"/>
      <point x="388" y="418"/>
      <point x="341" y="305"/>
      <point x="341" y="191" type="curve" smooth="yes"/>
      <point x="341" y="181"/>
      <point x="341" y="168"/>
      <point x="342" y="158" type="curve"/>
      <point x="298" y="51"/>
      <point x="250" y="1"/>
    </contour>
    <contour>
      <point x="386" y="258" type="curve" smooth="yes"/>
      <point x="370" y="258" type="line"/>
      <point x="393" y="405"/>
      <point x="474" y="536"/>
      <point x="575" y="536" type="curve" smooth="yes"/>
      <point x="627" y="536"/>
      <point x="662" y="517"/>
      <point x="662" y="441" type="curve" smooth="yes"/>
      <point x="662" y="347"/>
      <point x="589" y="258"/>
    </contour>
  </outline>
</glyph>
<glyph name="eth" format="2">
  <advance width="521"/>
  <unicode hex="00F0"/>
  <anchor x="191" y="0" name="bottom"/>
  <anchor x="353" y="762" name="top"/>
  <outline>
    <contour>
      <point x="216" y="-10" type="curve" smooth="yes"/>
      <point x="378" y="-10"/>
      <point x="466" y="149"/>
      <point x="470" y="336" type="curve" smooth="yes"/>
      <point x="473" y="504"/>
      <point x="415" y="697"/>
      <point x="227" y="753" type="curve"/>
      <point x="223" y="743" type="line"/>
      <point x="355" y="703"/>
      <point x="439" y="530"/>
      <point x="439" y="402" type="curve"/>
      <point x="410" y="481"/>
      <point x="354" y="497"/>
      <point x="302" y="497" type="curve" smooth="yes"/>
      <point x="117" y="497"/>
      <point x="46" y="307"/>
      <point x="46" y="179" type="curve" smooth="yes"/>
      <point x="46" y="56"/>
      <point x="112" y="-10"/>
    </contour>
    <contour>
      <point x="212" y="0" type="curve" smooth="yes"/>
      <point x="137" y="0"/>
      <point x="74" y="49"/>
      <point x="74" y="176" type="curve" smooth="yes"/>
      <point x="74" y="293"/>
      <point x="133" y="487"/>
      <point x="303" y="487" type="curve" smooth="yes"/>
      <point x="385" y="487"/>
      <point x="442" y="430"/>
      <point x="442" y="312" type="curve" smooth="yes"/>
      <point x="442" y="154"/>
      <point x="363" y="0"/>
    </contour>
    <contour>
      <point x="221" y="570" type="line"/>
      <point x="503" y="723" type="line"/>
      <point x="504" y="734" type="line"/>
      <point x="223" y="582" type="line"/>
    </contour>
  </outline>
</glyph>
<glyph name="oslash" format="2">
  <advance width="517"/>
  <unicode hex="00F8"/>
  <anchor x="202" y="0" name="bottom"/>
  <anchor x="316" y="536" name="top"/>
  <anchor x="308" y="268" name="center"/>
  <anchor x="546" y="536" name="topright"/>
  <outline>
    <contour>
      <point x="-2" y="-50" type="line"/>
      <point x="11" y="-50" type="line"/>
      <point x="528" y="586" type="line"/>
      <point x="515" y="586" type="line"/>
    </contour>
    <component base="o"/>
  </outline>
</glyph>
<glyph name="thorn" format="2">
  <advance width="483"/>
  <unicode hex="00FE"/>
  <anchor x="134" y="-240" name="bottom"/>
  <anchor x="347" y="760" name="top"/>
  <outline>
    <contour>
      <point x="176" y="666" type="curve" smooth="yes"/>
      <point x="-15" y="-240" type="line"/>
      <point x="106" y="-240" type="line"/>
      <point x="109" y="-230" type="line"/>
      <point x="87" y="-230" type="line" smooth="yes"/>
      <point x="36" y="-230"/>
      <point x="21" y="-228"/>
      <point x="21" y="-207" type="curve" smooth="yes"/>
      <point x="21" y="-199"/>
      <point x="23" y="-189"/>
      <point x="26" y="-175" type="curve" smooth="yes"/>
      <point x="57" y="-35" type="line" smooth="yes"/>
      <point x="62" y="-13"/>
      <point x="63" y="1"/>
      <point x="64" y="13" type="curve"/>
      <point x="87" y="-1"/>
      <point x="113" y="-10"/>
      <point x="150" y="-10" type="curve" smooth="yes"/>
      <point x="340" y="-10"/>
      <point x="434" y="227"/>
      <point x="434" y="371" type="curve" smooth="yes"/>
      <point x="434" y="488"/>
      <point x="398" y="546"/>
      <point x="321" y="546" type="curve" smooth="yes"/>
      <point x="245" y="546"/>
      <point x="188" y="474"/>
      <point x="148" y="396" type="curve"/>
      <point x="146" y="396" type="line"/>
      <point x="153" y="427"/>
      <point x="160" y="457"/>
      <point x="166" y="488" type="curve" smooth="yes"/>
      <point x="223" y="760" type="line"/>
      <point x="101" y="760" type="line"/>
      <point x="98" y="750" type="line"/>
      <point x="144" y="750" type="line" smooth="yes"/>
      <point x="174" y="750"/>
      <point x="185" y="745"/>
      <point x="185" y="723" type="curve" smooth="yes"/>
      <point x="185" y="711"/>
      <point x="182" y="692"/>
    </contour>
    <contour>
      <point x="155" y="0" type="curve" smooth="yes"/>
      <point x="110" y="0"/>
      <point x="84" y="14"/>
      <point x="71" y="26" type="curve"/>
      <point x="126" y="305" type="line" smooth="yes"/>
      <point x="145" y="400"/>
      <point x="223" y="530"/>
      <point x="320" y="530" type="curve" smooth="yes"/>
      <point x="381" y="530"/>
      <point x="406" y="495"/>
      <point x="406" y="371" type="curve" smooth="yes"/>
      <point x="406" y="236"/>
      <point x="309" y="0"/>
    </contour>
  </outline>
</glyph>
<glyph name="dcroat" format="2">
  <advance width="483"/>
  <unicode hex="0111"/>
  <anchor x="195" y="0" name="bottom"/>
  <anchor x="357" y="760" name="top"/>
  <anchor x="284" y="268" name="center"/>
  <anchor x="534" y="760" name="topright"/>
  <outline>
    <contour>
      <point x="247" y="625" type="line"/>
      <point x="552" y="625" type="line"/>
      <point x="555" y="635" type="line"/>
      <point x="250" y="635" type="line"/>
    </contour>
    <component base="d"/>
  </outline>
</glyph>
<glyph name="Hbar" format="2">
  <advance width="761"/>
  <unicode hex="0126"/>
  <anchor x="324" y="0" name="bottom"/>
  <anchor x="476" y="714" name="top"/>
  <anchor x="423" y="357" name="center"/>
  <anchor x="840" y="714" name="topright"/>
  <outline>
    <contour>
      <point x="111" y="522" type="line"/>
      <point x="743" y="522" type="line"/>
      <point x="746" y="532" type="line"/>
      <point x="114" y="532" type="line"/>
    </contour>
    <component base="H"/>
  </outline>
</glyph>
<glyph name="hbar" format="2">
  <advance width="506"/>
  <unicode hex="0127"/>
  <anchor x="207" y="0" name="bottom"/>
  <anchor x="369" y="760" name="top"/>
  <anchor x="321" y="268" name="center"/>
  <anchor x="521" y="760" name="topright"/>
  <outline>
    <contour>
      <point x="83" y="633" type="line"/>
      <point x="391" y="633" type="line"/>
      <point x="393" y="643" type="line"/>
      <point x="85" y="643" type="line"/>
    </contour>
    <component base="h"/>
  </outline>
</glyph>
<glyph name="idotless" format="2">
  <advance width="239"/>
  <unicode hex="0131"/>
  <anchor x="102" y="0" name="bottom"/>
  <anchor x="167" y="536" name="top"/>
  <anchor x="302" y="714" name="topright"/>
  <outline>
    <contour>
      <point x="140" y="-10" type="curve" smooth="yes"/>
      <point x="174" y="-10"/>
      <point x="198" y="7"/>
      <point x="226" y="32" type="curve"/>
      <point x="220" y="40" type="line"/>
      <point x="192" y="15"/>
      <point x="170" y="0"/>
      <point x="140" y="0" type="curve" smooth="yes"/>
      <point x="118" y="0"/>
      <point x="100" y="18"/>
      <point x="100" y="66" type="curve" smooth="yes"/>
      <point x="100" y="83"/>
      <point x="102" y="102"/>
      <point x="107" y="126" type="curve" smooth="yes"/>
      <point x="190" y="536" type="line"/>
      <point x="70" y="536" type="line"/>
      <point x="68" y="526" type="line"/>
      <point x="89" y="526" type="line" smooth="yes"/>
      <point x="139" y="526"/>
      <point x="152" y="520"/>
      <point x="152" y="499" type="curve" smooth="yes"/>
      <point x="152" y="493"/>
      <point x="151" y="487"/>
      <point x="150" y="479" type="curve" smooth="yes"/>
      <point x="92" y="181" type="line" smooth="yes"/>
      <point x="85" y="147"/>
      <point x="78" y="108"/>
      <point x="78" y="74" type="curve" smooth="yes"/>
      <point x="78" y="27"/>
      <point x="92" y="-10"/>
    </contour>
  </outline>
</glyph>
<glyph name="kgreenlandic" format="2">
  <advance width="533"/>
  <unicode hex="0138"/>
  <anchor x="224" y="0" name="bottom"/>
  <anchor x="318" y="536" name="top"/>
  <outline>
    <contour>
      <point x="454" y="-7" type="curve" smooth="yes"/>
      <point x="465" y="-7" type="line"/>
      <point x="467" y="3" type="line"/>
      <point x="398" y="3"/>
      <point x="382" y="26"/>
      <point x="354" y="103" type="curve" smooth="yes"/>
      <point x="269" y="336" type="line"/>
      <point x="261" y="322" type="line"/>
      <point x="409" y="448" type="line" smooth="yes"/>
      <point x="485" y="513"/>
      <point x="502" y="526"/>
      <point x="544" y="526" type="curve"/>
      <point x="546" y="536" type="line"/>
      <point x="374" y="536" type="line"/>
      <point x="372" y="526" type="line"/>
      <point x="444" y="526"/>
      <point x="448" y="518"/>
      <point x="448" y="507" type="curve" smooth="yes"/>
      <point x="448" y="498"/>
      <point x="432" y="480"/>
      <point x="406" y="459" type="curve" smooth="yes"/>
      <point x="129" y="227" type="line"/>
      <point x="137" y="269"/>
      <point x="145" y="313"/>
      <point x="154" y="355" type="curve" smooth="yes"/>
      <point x="191" y="536" type="line"/>
      <point x="68" y="536" type="line"/>
      <point x="65" y="526" type="line"/>
      <point x="113" y="526" type="line" smooth="yes"/>
      <point x="148" y="526"/>
      <point x="152" y="523"/>
      <point x="152" y="503" type="curve" smooth="yes"/>
      <point x="152" y="492"/>
      <point x="148" y="466"/>
      <point x="143" y="442" type="curve" smooth="yes"/>
      <point x="54" y="0" type="line"/>
      <point x="82" y="0" type="line"/>
      <point x="125" y="208" type="line"/>
      <point x="258" y="320" type="line"/>
      <point x="246" y="320" type="line"/>
      <point x="327" y="96" type="line" smooth="yes"/>
      <point x="361" y="3"/>
      <point x="387" y="-7"/>
    </contour>
  </outline>
</glyph>
<glyph name="Lslash" format="2">
  <advance width="582"/>
  <unicode hex="0141"/>
  <anchor x="235" y="0" name="bottom"/>
  <anchor x="387" y="714" name="top"/>
  <anchor x="334" y="357" name="center"/>
  <anchor x="531" y="714" name="topright"/>
  <outline>
    <contour>
      <point x="28" y="268" type="line"/>
      <point x="374" y="444" type="line"/>
      <point x="375" y="456" type="line"/>
      <point x="31" y="279" type="line"/>
    </contour>
    <component base="L"/>
  </outline>
</glyph>
<glyph name="lslash" format="2">
  <advance width="285"/>
  <unicode hex="0142"/>
  <anchor x="87" y="0" name="bottom"/>
  <anchor x="249" y="760" name="top"/>
  <anchor x="184" y="268" name="center"/>
  <anchor x="333" y="760" name="topright"/>
  <outline>
    <contour>
      <point x="2" y="256" type="line"/>
      <point x="263" y="389" type="line"/>
      <point x="265" y="402" type="line"/>
      <point x="6" y="269" type="line"/>
    </contour>
    <component base="l"/>
  </outline>
</glyph>
<glyph name="Eng" format="2">
  <advance width="721"/>
  <unicode hex="014A"/>
  <anchor x="264" y="-240" name="bottom"/>
  <anchor x="467" y="714" name="top"/>
  <outline>
    <contour>
      <point x="333" y="-240" type="curve" smooth="yes"/>
      <point x="425" y="-240"/>
      <point x="464" y="-187"/>
      <point x="500" y="-16" type="curve" smooth="yes"/>
      <point x="634" y="616" type="line" smooth="yes"/>
      <point x="650" y="693"/>
      <point x="659" y="704"/>
      <point x="709" y="704" type="curve" smooth="yes"/>
      <point x="752" y="704" type="line"/>
      <point x="754" y="714" type="line"/>
      <point x="526" y="714" type="line"/>
      <point x="524" y="704" type="line"/>
      <point x="588" y="704" type="line" smooth="yes"/>
      <point x="621" y="704"/>
      <point x="634" y="699"/>
      <point x="634" y="673" type="curve" smooth="yes"/>
      <point x="634" y="660"/>
      <point x="631" y="642"/>
      <point x="625" y="616" type="curve" smooth="yes"/>
      <point x="501" y="38" type="line"/>
      <point x="265" y="714" type="line"/>
      <point x="139" y="714" type="line"/>
      <point x="136" y="704" type="line"/>
      <point x="188" y="704" type="line" smooth="yes"/>
      <point x="219" y="704"/>
      <point x="229" y="701"/>
      <point x="229" y="684" type="curve" smooth="yes"/>
      <point x="229" y="677"/>
      <point x="227" y="668"/>
      <point x="224" y="655" type="curve" smooth="yes"/>
      <point x="98" y="64" type="line" smooth="yes"/>
      <point x="89" y="21"/>
      <point x="82" y="10"/>
      <point x="44" y="10" type="curve" smooth="yes"/>
      <point x="-11" y="10" type="line"/>
      <point x="-13" y="0" type="line"/>
      <point x="215" y="0" type="line"/>
      <point x="217" y="10" type="line"/>
      <point x="141" y="10" type="line" smooth="yes"/>
      <point x="112" y="10"/>
      <point x="105" y="21"/>
      <point x="105" y="35" type="curve" smooth="yes"/>
      <point x="105" y="40"/>
      <point x="106" y="46"/>
      <point x="107" y="52" type="curve" smooth="yes"/>
      <point x="243" y="692" type="line"/>
      <point x="491" y="-1" type="line"/>
      <point x="451" y="-208"/>
      <point x="401" y="-230"/>
      <point x="332" y="-230" type="curve" smooth="yes"/>
      <point x="312" y="-230"/>
      <point x="278" y="-225"/>
      <point x="261" y="-219" type="curve"/>
      <point x="256" y="-229" type="line"/>
      <point x="280" y="-236"/>
      <point x="302" y="-240"/>
    </contour>
  </outline>
</glyph>
<glyph name="eng" format="2">
  <advance width="495"/>
  <unicode hex="014B"/>
  <anchor x="145" y="-238" name="bottom"/>
  <anchor x="300" y="536" name="top"/>
  <anchor x="547" y="536" name="topright"/>
  <outline>
    <contour>
      <point x="175" y="-240" type="curve" smooth="yes"/>
      <point x="262" y="-240"/>
      <point x="304" y="-189"/>
      <point x="342" y="-11" type="curve" smooth="yes"/>
      <point x="415" y="332" type="line" smooth="yes"/>
      <point x="419" y="352"/>
      <point x="433" y="407"/>
      <point x="433" y="438" type="curve" smooth="yes"/>
      <point x="433" y="495"/>
      <point x="407" y="543"/>
      <point x="336" y="543" type="curve" smooth="yes"/>
      <point x="270" y="543"/>
      <point x="209" y="495"/>
      <point x="151" y="373" type="curve"/>
      <point x="149" y="373" type="line"/>
      <point x="182" y="536" type="line"/>
      <point x="61" y="536" type="line"/>
      <point x="58" y="526" type="line"/>
      <point x="80" y="526" type="line" smooth="yes"/>
      <point x="126" y="526"/>
      <point x="142" y="522"/>
      <point x="142" y="491" type="curve" smooth="yes"/>
      <point x="142" y="479"/>
      <point x="140" y="463"/>
      <point x="136" y="442" type="curve" smooth="yes"/>
      <point x="46" y="0" type="line"/>
      <point x="74" y="0" type="line"/>
      <point x="130" y="278" type="line" smooth="yes"/>
      <point x="156" y="405"/>
      <point x="245" y="528"/>
      <point x="331" y="528" type="curve" smooth="yes"/>
      <point x="392" y="528"/>
      <point x="407" y="489"/>
      <point x="407" y="448" type="curve" smooth="yes"/>
      <point x="407" y="419"/>
      <point x="394" y="364"/>
      <point x="389" y="342" type="curve" smooth="yes"/>
      <point x="312" y="-26" type="line" smooth="yes"/>
      <point x="280" y="-177"/>
      <point x="244" y="-230"/>
      <point x="175" y="-230" type="curve" smooth="yes"/>
      <point x="158" y="-230"/>
      <point x="140" y="-228"/>
      <point x="127" y="-225" type="curve"/>
      <point x="124" y="-235" type="line"/>
      <point x="137" y="-238"/>
      <point x="152" y="-240"/>
    </contour>
  </outline>
</glyph>
<glyph name="OE" format="2">
  <advance width="926"/>
  <unicode hex="0152"/>
  <anchor x="428" y="0" name="bottom"/>
  <anchor x="580" y="714" name="top"/>
  <outline>
    <contour>
      <point x="301" y="-11" type="curve" smooth="yes"/>
      <point x="377" y="-11"/>
      <point x="396" y="0"/>
      <point x="443" y="0" type="curve" smooth="yes"/>
      <point x="808" y="0" type="line"/>
      <point x="848" y="161" type="line"/>
      <point x="838" y="161" type="line"/>
      <point x="824" y="113" type="line" smooth="yes"/>
      <point x="796" y="16"/>
      <point x="789" y="10"/>
      <point x="726" y="10" type="curve" smooth="yes"/>
      <point x="449" y="10" type="line"/>
      <point x="525" y="372" type="line"/>
      <point x="786" y="372" type="line"/>
      <point x="787" y="382" type="line"/>
      <point x="528" y="382" type="line"/>
      <point x="596" y="704" type="line"/>
      <point x="840" y="704" type="line" smooth="yes"/>
      <point x="877" y="704"/>
      <point x="897" y="697"/>
      <point x="897" y="644" type="curve" smooth="yes"/>
      <point x="897" y="622"/>
      <point x="894" y="593"/>
      <point x="887" y="553" type="curve"/>
      <point x="897" y="553" type="line"/>
      <point x="927" y="714" type="line"/>
      <point x="566" y="714" type="line" smooth="yes"/>
      <point x="522" y="714"/>
      <point x="495" y="725"/>
      <point x="428" y="725" type="curve" smooth="yes"/>
      <point x="184" y="725"/>
      <point x="61" y="458"/>
      <point x="61" y="266" type="curve" smooth="yes"/>
      <point x="61" y="85"/>
      <point x="166" y="-11"/>
    </contour>
    <contour>
      <point x="300" y="-1" type="curve" smooth="yes"/>
      <point x="185" y="-1"/>
      <point x="89" y="88"/>
      <point x="89" y="266" type="curve" smooth="yes"/>
      <point x="89" y="444"/>
      <point x="210" y="715"/>
      <point x="425" y="715" type="curve" smooth="yes"/>
      <point x="483" y="715"/>
      <point x="521" y="709"/>
      <point x="567" y="697" type="curve"/>
      <point x="422" y="14" type="line"/>
      <point x="379" y="4"/>
      <point x="349" y="-1"/>
    </contour>
  </outline>
</glyph>
<glyph name="oe" format="2">
  <advance width="787"/>
  <unicode hex="0153"/>
  <anchor x="384" y="0" name="bottom"/>
  <anchor x="459" y="536" name="top"/>
  <outline>
    <contour>
      <point x="204" y="-10" type="curve" smooth="yes"/>
      <point x="309" y="-10"/>
      <point x="376" y="64"/>
      <point x="414" y="154" type="curve"/>
      <point x="426" y="44"/>
      <point x="493" y="-10"/>
      <point x="571" y="-10" type="curve" smooth="yes"/>
      <point x="656" y="-10"/>
      <point x="712" y="43"/>
      <point x="712" y="87" type="curve" smooth="yes"/>
      <point x="712" y="93"/>
      <point x="710" y="98"/>
      <point x="707" y="100" type="curve"/>
      <point x="682" y="30"/>
      <point x="633" y="0"/>
      <point x="569" y="0" type="curve" smooth="yes"/>
      <point x="497" y="0"/>
      <point x="440" y="75"/>
      <point x="440" y="191" type="curve" smooth="yes"/>
      <point x="440" y="208"/>
      <point x="442" y="241"/>
      <point x="443" y="248" type="curve"/>
      <point x="458" y="248"/>
      <point x="473" y="248"/>
      <point x="501" y="248" type="curve" smooth="yes"/>
      <point x="641" y="248"/>
      <point x="768" y="315"/>
      <point x="768" y="435" type="curve" smooth="yes"/>
      <point x="768" y="505"/>
      <point x="727" y="546"/>
      <point x="657" y="546" type="curve" smooth="yes"/>
      <point x="560" y="546"/>
      <point x="490" y="471"/>
      <point x="451" y="378" type="curve"/>
      <point x="441" y="497"/>
      <point x="382" y="546"/>
      <point x="297" y="546" type="curve" smooth="yes"/>
      <point x="121" y="546"/>
      <point x="38" y="336"/>
      <point x="38" y="190" type="curve" smooth="yes"/>
      <point x="38" y="51"/>
      <point x="107" y="-10"/>
    </contour>
    <contour>
      <point x="204" y="0" type="curve" smooth="yes"/>
      <point x="120" y="0"/>
      <point x="66" y="50"/>
      <point x="66" y="190" type="curve" smooth="yes"/>
      <point x="66" y="349"/>
      <point x="151" y="536"/>
      <point x="297" y="536" type="curve" smooth="yes"/>
      <point x="384" y="536"/>
      <point x="424" y="463"/>
      <point x="424" y="344" type="curve" smooth="yes"/>
      <point x="424" y="191"/>
      <point x="357" y="0"/>
    </contour>
    <contour>
      <point x="508" y="258" type="curve" smooth="yes"/>
      <point x="444" y="258" type="line"/>
      <point x="466" y="390"/>
      <point x="545" y="536"/>
      <point x="658" y="536" type="curve" smooth="yes"/>
      <point x="716" y="536"/>
      <point x="742" y="510"/>
      <point x="742" y="437" type="curve" smooth="yes"/>
      <point x="742" y="327"/>
      <point x="627" y="258"/>
    </contour>
  </outline>
</glyph>
<glyph name="Tbar" format="2">
  <advance width="562"/>
  <unicode hex="0166"/>
  <anchor x="224" y="0" name="bottom"/>
  <anchor x="376" y="714" name="top"/>
  <anchor x="329" y="357" name="center"/>
  <anchor x="647" y="714" name="topright"/>
  <outline>
    <contour>
      <point x="85" y="347" type="line"/>
      <point x="510" y="347" type="line"/>
      <point x="512" y="357" type="line"/>
      <point x="87" y="357" type="line"/>
    </contour>
    <component base="T"/>
  </outline>
</glyph>
<glyph name="tbar" format="2">
  <advance width="305"/>
  <unicode hex="0167"/>
  <anchor x="97" y="0" name="bottom"/>
  <anchor x="237" y="659" name="top"/>
  <anchor x="133" y="268" name="center"/>
  <anchor x="277" y="930" name="topright"/>
  <outline>
    <contour>
      <point x="42" y="322" type="line"/>
      <point x="260" y="322" type="line"/>
      <point x="262" y="332" type="line"/>
      <point x="45" y="332" type="line"/>
    </contour>
    <component base="t"/>
  </outline>
</glyph>
<glyph name="longs" format="2">
  <advance width="231"/>
  <unicode hex="017F"/>
  <anchor x="-79" y="-240" name="bottom"/>
  <anchor x="302" y="770" name="top"/>
  <outline>
    <contour>
      <point x="-79" y="-240" type="curve" smooth="yes"/>
      <point x="1" y="-240"/>
      <point x="27" y="-204"/>
      <point x="62" y="-43" type="curve" smooth="yes"/>
      <point x="206" y="628" type="line" smooth="yes"/>
      <point x="227" y="726"/>
      <point x="252" y="760"/>
      <point x="311" y="760" type="curve" smooth="yes"/>
      <point x="361" y="760"/>
      <point x="373" y="731"/>
      <point x="373" y="653" type="curve"/>
      <point x="388" y="653"/>
      <point x="400" y="665"/>
      <point x="400" y="683" type="curve" smooth="yes"/>
      <point x="400" y="731"/>
      <point x="370" y="770"/>
      <point x="307" y="770" type="curve" smooth="yes"/>
      <point x="232" y="770"/>
      <point x="194" y="710"/>
      <point x="173" y="613" type="curve" smooth="yes"/>
      <point x="29" y="-58" type="line" smooth="yes"/>
      <point x="1" y="-190"/>
      <point x="-26" y="-230"/>
      <point x="-77" y="-230" type="curve" smooth="yes"/>
      <point x="-99" y="-230"/>
      <point x="-118" y="-227"/>
      <point x="-131" y="-222" type="curve"/>
      <point x="-134" y="-232" type="line"/>
      <point x="-119" y="-237"/>
      <point x="-99" y="-240"/>
    </contour>
  </outline>
</glyph>
<glyph name="uni0180" format="2">
  <advance width="487"/>
  <unicode hex="0180"/>
  <anchor x="185" y="0" name="bottom"/>
  <anchor x="347" y="760" name="top"/>
  <anchor x="575" y="760" name="topright"/>
  <outline>
    <contour>
      <point x="79" y="622" type="line"/>
      <point x="376" y="622" type="line"/>
      <point x="379" y="632" type="line"/>
      <point x="82" y="632" type="line"/>
    </contour>
    <component base="b"/>
  </outline>
</glyph>
<glyph name="uni0188" format="2">
  <advance width="441"/>
  <unicode hex="0188"/>
  <anchor x="178" y="0" name="bottom"/>
  <anchor x="340" y="760" name="top"/>
  <anchor x="463" y="536" name="topright"/>
  <outline>
    <contour>
      <point x="425" y="432" type="line"/>
      <point x="462" y="639" type="line" smooth="yes"/>
      <point x="475" y="710"/>
      <point x="495" y="730"/>
      <point x="525" y="730" type="curve" smooth="yes"/>
      <point x="545" y="730"/>
      <point x="559" y="719"/>
      <point x="569" y="695" type="curve"/>
      <point x="578" y="700"/>
      <point x="581" y="707"/>
      <point x="581" y="720" type="curve" smooth="yes"/>
      <point x="581" y="739"/>
      <point x="562" y="760"/>
      <point x="527" y="760" type="curve" smooth="yes"/>
      <point x="480" y="760"/>
      <point x="466" y="724"/>
      <point x="454" y="654" type="curve" smooth="yes"/>
      <point x="420" y="460" type="line"/>
    </contour>
    <component base="c"/>
  </outline>
</glyph>
<glyph name="uni0191" format="2">
  <advance width="660"/>
  <unicode hex="0191"/>
  <anchor x="99" y="-10" name="bottom"/>
  <anchor x="484" y="714" name="top"/>
  <outline>
    <contour>
      <point x="99" y="-10" type="curve" smooth="yes"/>
      <point x="202" y="-10"/>
      <point x="237" y="57"/>
      <point x="254" y="139" type="curve" smooth="yes"/>
      <point x="303" y="370" type="line"/>
      <point x="563" y="370" type="line"/>
      <point x="565" y="380" type="line"/>
      <point x="305" y="380" type="line"/>
      <point x="374" y="704" type="line"/>
      <point x="610" y="704" type="line" smooth="yes"/>
      <point x="662" y="704"/>
      <point x="670" y="701"/>
      <point x="670" y="660" type="curve" smooth="yes"/>
      <point x="670" y="642"/>
      <point x="660" y="588"/>
      <point x="654" y="553" type="curve"/>
      <point x="664" y="553" type="line"/>
      <point x="694" y="714" type="line"/>
      <point x="251" y="714" type="line"/>
      <point x="248" y="704" type="line"/>
      <point x="283" y="704" type="line" smooth="yes"/>
      <point x="329" y="704"/>
      <point x="336" y="700"/>
      <point x="336" y="675" type="curve" smooth="yes"/>
      <point x="336" y="660"/>
      <point x="330" y="628"/>
      <point x="321" y="586" type="curve" smooth="yes"/>
      <point x="225" y="133" type="line" smooth="yes"/>
      <point x="207" y="49"/>
      <point x="182" y="0"/>
      <point x="98" y="0" type="curve" smooth="yes"/>
      <point x="26" y="0"/>
      <point x="-9" y="46"/>
      <point x="-9" y="124" type="curve" smooth="yes"/>
      <point x="-9" y="132"/>
      <point x="-9" y="140"/>
      <point x="-8" y="149" type="curve"/>
      <point x="-28" y="149"/>
      <point x="-39" y="138"/>
      <point x="-39" y="113" type="curve" smooth="yes"/>
      <point x="-39" y="55"/>
      <point x="4" y="-10"/>
    </contour>
  </outline>
</glyph>
<glyph name="florin" format="2">
  <advance width="317"/>
  <unicode hex="0192"/>
  <anchor x="48" y="-15" name="bottom"/>
  <anchor x="382" y="770" name="top"/>
  <anchor x="527" y="770" name="topright"/>
  <outline>
    <contour>
      <point x="48" y="-15" type="curve" smooth="yes"/>
      <point x="125" y="-15"/>
      <point x="160" y="42"/>
      <point x="183" y="150" type="curve" smooth="yes"/>
      <point x="263" y="526" type="line"/>
      <point x="353" y="526" type="line"/>
      <point x="355" y="536" type="line"/>
      <point x="265" y="536" type="line"/>
      <point x="294" y="666" type="line" smooth="yes"/>
      <point x="304" y="711"/>
      <point x="331" y="760"/>
      <point x="390" y="760" type="curve" smooth="yes"/>
      <point x="438" y="760"/>
      <point x="453" y="739"/>
      <point x="453" y="658" type="curve"/>
      <point x="468" y="658"/>
      <point x="480" y="670"/>
      <point x="480" y="688" type="curve" smooth="yes"/>
      <point x="480" y="735"/>
      <point x="447" y="770"/>
      <point x="390" y="770" type="curve" smooth="yes"/>
      <point x="315" y="770"/>
      <point x="270" y="706"/>
      <point x="250" y="603" type="curve" smooth="yes"/>
      <point x="237" y="536" type="line"/>
      <point x="152" y="531" type="line"/>
      <point x="151" y="526" type="line"/>
      <point x="235" y="526" type="line"/>
      <point x="153" y="140" type="line" smooth="yes"/>
      <point x="132" y="42"/>
      <point x="103" y="-5"/>
      <point x="44" y="-5" type="curve" smooth="yes"/>
      <point x="-6" y="-5"/>
      <point x="-18" y="25"/>
      <point x="-18" y="102" type="curve"/>
      <point x="-33" y="102"/>
      <point x="-45" y="90"/>
      <point x="-45" y="72" type="curve" smooth="yes"/>
      <point x="-45" y="24"/>
      <point x="-15" y="-15"/>
    </contour>
  </outline>
</glyph>
<glyph name="uni0193" format="2">
  <advance width="645"/>
  <unicode hex="0193"/>
  <anchor x="292" y="0" name="bottom"/>
  <anchor x="432" y="714" name="top"/>
  <anchor x="688" y="714" name="topright"/>
  <outline>
    <contour>
      <point x="634" y="589" type="line"/>
      <point x="662" y="729" type="line" smooth="yes"/>
      <point x="675" y="792"/>
      <point x="695" y="820"/>
      <point x="725" y="820" type="curve" smooth="yes"/>
      <point x="745" y="820"/>
      <point x="759" y="809"/>
      <point x="769" y="785" type="curve"/>
      <point x="778" y="790"/>
      <point x="781" y="797"/>
      <point x="781" y="810" type="curve" smooth="yes"/>
      <point x="781" y="829"/>
      <point x="762" y="850"/>
      <point x="727" y="850" type="curve" smooth="yes"/>
      <point x="680" y="850"/>
      <point x="663" y="806"/>
      <point x="647" y="721" type="curve" smooth="yes"/>
      <point x="628" y="623" type="line"/>
    </contour>
    <component base="G"/>
  </outline>
</glyph>
<glyph name="uni0197" format="2">
  <advance width="324"/>
  <unicode hex="0197"/>
  <anchor x="105" y="0" name="bottom"/>
  <anchor x="257" y="714" name="top"/>
  <anchor x="403" y="714" name="topright"/>
  <outline>
    <contour>
      <point x="74" y="372" type="line"/>
      <point x="284" y="372" type="line"/>
      <point x="286" y="382" type="line"/>
      <point x="76" y="382" type="line"/>
    </contour>
    <component base="I"/>
  </outline>
</glyph>
<glyph name="uni019B" format="2">
  <advance width="484"/>
  <unicode hex="019B"/>
  <anchor x="185" y="0" name="bottom"/>
  <anchor x="349" y="770" name="top"/>
  <outline>
    <contour>
      <point x="159" y="564" type="line"/>
      <point x="420" y="698" type="line"/>
      <point x="423" y="712" type="line"/>
      <point x="163" y="578" type="line"/>
    </contour>
    <component base="lambda"/>
  </outline>
</glyph>
<glyph name="Ohorn" format="2">
  <advance width="695"/>
  <unicode hex="01A0"/>
  <anchor x="291" y="0" name="bottom"/>
  <anchor x="443" y="714" name="top"/>
  <outline>
    <contour>
      <point x="297" y="-11" type="curve" smooth="yes"/>
      <point x="542" y="-11"/>
      <point x="661" y="266"/>
      <point x="661" y="450" type="curve" smooth="yes"/>
      <point x="661" y="495"/>
      <point x="655" y="535"/>
      <point x="643" y="568" type="curve"/>
      <point x="742" y="594"/>
      <point x="779" y="674"/>
      <point x="779" y="736" type="curve" smooth="yes"/>
      <point x="779" y="757"/>
      <point x="768" y="770"/>
      <point x="753" y="770" type="curve" smooth="yes"/>
      <point x="740" y="770"/>
      <point x="723" y="760"/>
      <point x="723" y="741" type="curve" smooth="yes"/>
      <point x="723" y="707"/>
      <point x="746" y="704"/>
      <point x="746" y="680" type="curve" smooth="yes"/>
      <point x="746" y="644"/>
      <point x="709" y="596"/>
      <point x="641" y="578" type="curve"/>
      <point x="598" y="684"/>
      <point x="514" y="725"/>
      <point x="424" y="725" type="curve" smooth="yes"/>
      <point x="180" y="725"/>
      <point x="57" y="458"/>
      <point x="57" y="266" type="curve" smooth="yes"/>
      <point x="57" y="85"/>
      <point x="162" y="-11"/>
    </contour>
    <contour>
      <point x="300" y="-1" type="curve" smooth="yes"/>
      <point x="185" y="-1"/>
      <point x="85" y="81"/>
      <point x="85" y="266" type="curve" smooth="yes"/>
      <point x="85" y="458"/>
      <point x="209" y="715"/>
      <point x="424" y="715" type="curve" smooth="yes"/>
      <point x="544" y="715"/>
      <point x="633" y="632"/>
      <point x="633" y="449" type="curve" smooth="yes"/>
      <point x="633" y="274"/>
      <point x="518" y="-1"/>
    </contour>
  </outline>
</glyph>
<glyph name="Uhorn" format="2">
  <advance width="683"/>
  <unicode hex="01AF"/>
  <anchor x="298" y="0" name="bottom"/>
  <anchor x="450" y="714" name="top"/>
  <outline>
    <contour>
      <point x="283" y="-10" type="curve" smooth="yes"/>
      <point x="448" y="-10"/>
      <point x="505" y="78"/>
      <point x="529" y="191" type="curve" smooth="yes"/>
      <point x="608" y="566" type="line"/>
      <point x="692" y="580"/>
      <point x="754" y="655"/>
      <point x="754" y="736" type="curve" smooth="yes"/>
      <point x="754" y="757"/>
      <point x="743" y="770"/>
      <point x="728" y="770" type="curve" smooth="yes"/>
      <point x="713" y="770"/>
      <point x="697" y="759"/>
      <point x="697" y="734" type="curve" smooth="yes"/>
      <point x="697" y="704"/>
      <point x="719" y="694"/>
      <point x="719" y="674" type="curve" smooth="yes"/>
      <point x="719" y="632"/>
      <point x="665" y="588"/>
      <point x="611" y="577" type="curve"/>
      <point x="639" y="714" type="line"/>
      <point x="511" y="714" type="line"/>
      <point x="509" y="704" type="line"/>
      <point x="554" y="704" type="line" smooth="yes"/>
      <point x="602" y="704"/>
      <point x="617" y="696"/>
      <point x="617" y="670" type="curve" smooth="yes"/>
      <point x="617" y="657"/>
      <point x="613" y="639"/>
      <point x="608" y="616" type="curve" smooth="yes"/>
      <point x="519" y="195" type="line" smooth="yes"/>
      <point x="500" y="106"/>
      <point x="458" y="3"/>
      <point x="284" y="3" type="curve" smooth="yes"/>
      <point x="179" y="3"/>
      <point x="116" y="74"/>
      <point x="116" y="159" type="curve" smooth="yes"/>
      <point x="116" y="177"/>
      <point x="119" y="218"/>
      <point x="130" y="268" type="curve" smooth="yes"/>
      <point x="205" y="616" type="line" smooth="yes"/>
      <point x="222" y="693"/>
      <point x="230" y="704"/>
      <point x="280" y="704" type="curve" smooth="yes"/>
      <point x="325" y="704" type="line"/>
      <point x="327" y="714" type="line"/>
      <point x="99" y="714" type="line"/>
      <point x="97" y="704" type="line"/>
      <point x="140" y="704" type="line" smooth="yes"/>
      <point x="173" y="704"/>
      <point x="186" y="699"/>
      <point x="186" y="673" type="curve" smooth="yes"/>
      <point x="186" y="660"/>
      <point x="183" y="642"/>
      <point x="177" y="616" type="curve" smooth="yes"/>
      <point x="102" y="267" type="line" smooth="yes"/>
      <point x="92" y="221"/>
      <point x="88" y="182"/>
      <point x="88" y="161" type="curve" smooth="yes"/>
      <point x="88" y="51"/>
      <point x="163" y="-10"/>
    </contour>
  </outline>
</glyph>
<glyph name="uhorn" format="2">
  <advance width="514"/>
  <unicode hex="01B0"/>
  <anchor x="190" y="0" name="bottom"/>
  <anchor x="304" y="536" name="top"/>
  <outline>
    <contour>
      <point x="396" y="-10" type="curve" smooth="yes"/>
      <point x="431" y="-10"/>
      <point x="456" y="11"/>
      <point x="475" y="30" type="curve"/>
      <point x="468" y="38" type="line"/>
      <point x="448" y="19"/>
      <point x="428" y="0"/>
      <point x="394" y="0" type="curve" smooth="yes"/>
      <point x="372" y="0"/>
      <point x="362" y="26"/>
      <point x="362" y="68" type="curve" smooth="yes"/>
      <point x="362" y="100"/>
      <point x="369" y="157"/>
      <point x="383" y="221" type="curve" smooth="yes"/>
      <point x="426" y="424" type="line"/>
      <point x="510" y="437"/>
      <point x="573" y="513"/>
      <point x="573" y="594" type="curve" smooth="yes"/>
      <point x="573" y="615"/>
      <point x="562" y="628"/>
      <point x="547" y="628" type="curve" smooth="yes"/>
      <point x="529" y="628"/>
      <point x="516" y="617"/>
      <point x="516" y="592" type="curve" smooth="yes"/>
      <point x="516" y="569"/>
      <point x="540" y="556"/>
      <point x="540" y="536" type="curve" smooth="yes"/>
      <point x="540" y="493"/>
      <point x="482" y="444"/>
      <point x="428" y="434" type="curve"/>
      <point x="450" y="536" type="line"/>
      <point x="422" y="536" type="line"/>
      <point x="355" y="212" type="line" smooth="yes"/>
      <point x="336" y="120"/>
      <point x="266" y="2"/>
      <point x="158" y="2" type="curve" smooth="yes"/>
      <point x="113" y="2"/>
      <point x="88" y="41"/>
      <point x="88" y="94" type="curve" smooth="yes"/>
      <point x="88" y="134"/>
      <point x="96" y="161"/>
      <point x="109" y="215" type="curve" smooth="yes"/>
      <point x="185" y="536" type="line"/>
      <point x="65" y="536" type="line"/>
      <point x="63" y="526" type="line"/>
      <point x="85" y="526" type="line" smooth="yes"/>
      <point x="128" y="526"/>
      <point x="143" y="524"/>
      <point x="143" y="499" type="curve" smooth="yes"/>
      <point x="143" y="485"/>
      <point x="139" y="464"/>
      <point x="131" y="432" type="curve" smooth="yes"/>
      <point x="84" y="230" type="line" smooth="yes"/>
      <point x="74" y="189"/>
      <point x="60" y="135"/>
      <point x="60" y="102" type="curve" smooth="yes"/>
      <point x="60" y="43"/>
      <point x="88" y="-9"/>
      <point x="157" y="-9" type="curve" smooth="yes"/>
      <point x="235" y="-9"/>
      <point x="299" y="46"/>
      <point x="344" y="142" type="curve"/>
      <point x="346" y="142" type="line"/>
      <point x="342" y="111"/>
      <point x="340" y="94"/>
      <point x="340" y="83" type="curve" smooth="yes"/>
      <point x="340" y="23"/>
      <point x="355" y="-10"/>
    </contour>
  </outline>
</glyph>
<glyph name="uni01B5" format="2">
  <advance width="526"/>
  <unicode hex="01B5"/>
  <anchor x="205" y="0" name="bottom"/>
  <anchor x="357" y="714" name="top"/>
  <anchor x="605" y="714" name="topright"/>
  <outline>
    <contour>
      <point x="105" y="369" type="line"/>
      <point x="444" y="369" type="line"/>
      <point x="447" y="379" type="line"/>
      <point x="108" y="379" type="line"/>
    </contour>
    <component base="Z"/>
  </outline>
</glyph>
<glyph name="uni01E4" format="2">
  <advance width="609"/>
  <unicode hex="01E4"/>
  <anchor x="247" y="0" name="bottom"/>
  <anchor x="399" y="714" name="top"/>
  <anchor x="688" y="714" name="topright"/>
  <outline>
    <contour>
      <point x="405" y="172" type="line"/>
      <point x="600" y="172" type="line"/>
      <point x="603" y="182" type="line"/>
      <point x="407" y="182" type="line"/>
    </contour>
    <component base="G"/>
  </outline>
</glyph>
<glyph name="Aringacute" format="2">
  <advance width="644"/>
  <unicode hex="01FA"/>
  <anchor x="271" y="0" name="bottom"/>
  <anchor x="471" y="922" name="top"/>
  <outline>
    <contour>
      <point x="-68" y="0" type="line"/>
      <point x="150" y="0" type="line"/>
      <point x="152" y="10" type="line"/>
      <point x="94" y="10" type="line" smooth="yes"/>
      <point x="56" y="10"/>
      <point x="38" y="15"/>
      <point x="38" y="31" type="curve" smooth="yes"/>
      <point x="38" y="46"/>
      <point x="53" y="66"/>
      <point x="74" y="98" type="curve" smooth="yes"/>
      <point x="183" y="262" type="line"/>
      <point x="456" y="262" type="line"/>
      <point x="479" y="115" type="line" smooth="yes"/>
      <point x="484" y="86"/>
      <point x="488" y="65"/>
      <point x="488" y="49" type="curve" smooth="yes"/>
      <point x="488" y="20"/>
      <point x="475" y="10"/>
      <point x="433" y="10" type="curve" smooth="yes"/>
      <point x="396" y="10" type="line"/>
      <point x="393" y="0" type="line"/>
      <point x="574" y="0" type="line"/>
      <point x="576" y="10" type="line"/>
      <point x="563" y="10" type="line" smooth="yes"/>
      <point x="527" y="10"/>
      <point x="523" y="16"/>
      <point x="509" y="99" type="curve" smooth="yes"/>
      <point x="429" y="590" type="line"/>
      <point x="493" y="593"/>
      <point x="540" y="630"/>
      <point x="540" y="701" type="curve" smooth="yes"/>
      <point x="540" y="773"/>
      <point x="490" y="811"/>
      <point x="422" y="811" type="curve" smooth="yes"/>
      <point x="354" y="811"/>
      <point x="304" y="773"/>
      <point x="304" y="701" type="curve" smooth="yes"/>
      <point x="304" y="642"/>
      <point x="332" y="601"/>
      <point x="394" y="594" type="curve"/>
      <point x="59" y="98" type="line" smooth="yes"/>
      <point x="1" y="12"/>
      <point x="-3" y="10"/>
      <point x="-53" y="10" type="curve" smooth="yes"/>
      <point x="-66" y="10" type="line"/>
    </contour>
    <contour>
      <point x="189" y="272" type="line"/>
      <point x="284" y="411" type="line" smooth="yes"/>
      <point x="328" y="475"/>
      <point x="351" y="511"/>
      <point x="407" y="596" type="curve"/>
      <point x="418" y="511"/>
      <point x="429" y="449"/>
      <point x="435" y="403" type="curve" smooth="yes"/>
      <point x="453" y="272" type="line"/>
    </contour>
    <contour>
      <point x="422" y="600" type="curve" smooth="yes"/>
      <point x="362" y="600"/>
      <point x="316" y="628"/>
      <point x="316" y="701" type="curve" smooth="yes"/>
      <point x="316" y="770"/>
      <point x="362" y="801"/>
      <point x="422" y="801" type="curve" smooth="yes"/>
      <point x="482" y="801"/>
      <point x="528" y="770"/>
      <point x="528" y="701" type="curve" smooth="yes"/>
      <point x="528" y="628"/>
      <point x="482" y="600"/>
    </contour>
    <contour>
      <point x="421" y="836" type="curve"/>
      <point x="418" y="830" type="line"/>
      <point x="422" y="830" type="line"/>
      <point x="470" y="851"/>
      <point x="518" y="884"/>
      <point x="553" y="911" type="curve"/>
      <point x="556" y="917" type="line"/>
      <point x="512" y="917" type="line"/>
      <point x="484" y="887"/>
      <point x="454" y="860"/>
    </contour>
  </outline>
</glyph>
<glyph name="jdotless" format="2">
  <advance width="230"/>
  <unicode hex="0237"/>
  <anchor x="8" y="-240" name="bottom"/>
  <anchor x="143" y="536" name="top"/>
  <anchor x="292" y="714" name="topright"/>
  <outline>
    <contour>
      <point x="-89" y="-240" type="curve" smooth="yes"/>
      <point x="-2" y="-240"/>
      <point x="40" y="-188"/>
      <point x="77" y="-10" type="curve" smooth="yes"/>
      <point x="190" y="536" type="line"/>
      <point x="70" y="536" type="line"/>
      <point x="68" y="526" type="line"/>
      <point x="89" y="526" type="line" smooth="yes"/>
      <point x="140" y="526"/>
      <point x="148" y="521"/>
      <point x="148" y="489" type="curve" smooth="yes"/>
      <point x="148" y="472"/>
      <point x="145" y="454"/>
      <point x="143" y="442" type="curve" smooth="yes"/>
      <point x="43" y="-44" type="line" smooth="yes"/>
      <point x="19" y="-160"/>
      <point x="-16" y="-230"/>
      <point x="-90" y="-230" type="curve" smooth="yes"/>
      <point x="-107" y="-230"/>
      <point x="-125" y="-228"/>
      <point x="-138" y="-225" type="curve"/>
      <point x="-140" y="-235" type="line"/>
      <point x="-127" y="-238"/>
      <point x="-112" y="-240"/>
    </contour>
  </outline>
</glyph>
<glyph name="uni023A" format="2">
  <advance width="644"/>
  <unicode hex="023A"/>
  <anchor x="246" y="-128" name="bottom"/>
  <anchor x="406" y="714" name="top"/>
  <anchor x="718" y="714" name="topright"/>
  <outline>
    <contour>
      <point x="109" y="-121" type="line"/>
      <point x="119" y="-121" type="line"/>
      <point x="567" y="760" type="line"/>
      <point x="555" y="760" type="line"/>
    </contour>
    <component base="A"/>
  </outline>
</glyph>
<glyph name="uni023B" format="2">
  <advance width="574"/>
  <unicode hex="023B"/>
  <anchor x="206" y="-133" name="bottom"/>
  <anchor x="404" y="714" name="top"/>
  <anchor x="653" y="714" name="topright"/>
  <outline>
    <contour>
      <point x="153" y="-70" type="line"/>
      <point x="164" y="-70" type="line"/>
      <point x="465" y="760" type="line"/>
      <point x="454" y="760" type="line"/>
    </contour>
    <component base="C"/>
  </outline>
</glyph>
<glyph name="uni023D" format="2">
  <advance width="582"/>
  <unicode hex="023D"/>
  <anchor x="235" y="0" name="bottom"/>
  <anchor x="387" y="714" name="top"/>
  <anchor x="334" y="357" name="center"/>
  <anchor x="531" y="714" name="topright"/>
  <outline>
    <contour>
      <point x="59" y="362" type="line"/>
      <point x="328" y="362" type="line"/>
      <point x="329" y="372" type="line"/>
      <point x="60" y="372" type="line"/>
    </contour>
    <component base="L"/>
  </outline>
</glyph>
<glyph name="uni0243" format="2">
  <advance width="611"/>
  <unicode hex="0243"/>
  <anchor x="260" y="0" name="bottom"/>
  <anchor x="412" y="714" name="top"/>
  <anchor x="711" y="714" name="topright"/>
  <outline>
    <contour>
      <point x="31" y="199" type="line"/>
      <point x="286" y="199" type="line"/>
      <point x="287" y="209" type="line"/>
      <point x="32" y="209" type="line"/>
    </contour>
    <component base="B"/>
  </outline>
</glyph>
<glyph name="uni0247" format="2">
  <advance width="438"/>
  <unicode hex="0247"/>
  <anchor x="107" y="-258" name="bottom"/>
  <anchor x="314" y="714" name="top"/>
  <anchor x="447" y="536" name="topright"/>
  <outline>
    <contour>
      <point x="38" y="-130" type="line"/>
      <point x="50" y="-130" type="line"/>
      <point x="393" y="691" type="line"/>
      <point x="381" y="691" type="line"/>
    </contour>
    <component base="e"/>
  </outline>
</glyph>
<glyph name="uni024C" format="2">
  <advance width="609"/>
  <unicode hex="024C"/>
  <anchor x="224" y="0" name="bottom"/>
  <anchor x="376" y="714" name="top"/>
  <anchor x="688" y="714" name="topright"/>
  <outline>
    <contour>
      <point x="169" y="332" type="line"/>
      <point x="171" y="342" type="line"/>
      <point x="59" y="342" type="line"/>
      <point x="57" y="332" type="line"/>
    </contour>
    <component base="R"/>
  </outline>
</glyph>
<glyph name="uni024D" format="2">
  <advance width="364"/>
  <unicode hex="024D"/>
  <anchor x="124" y="0" name="bottom"/>
  <anchor x="238" y="536" name="top"/>
  <anchor x="403" y="536" name="topright"/>
  <outline>
    <contour>
      <point x="10" y="275" type="line"/>
      <point x="259" y="275" type="line"/>
      <point x="261" y="285" type="line"/>
      <point x="12" y="285" type="line"/>
    </contour>
    <component base="r"/>
  </outline>
</glyph>
<glyph name="eopenreversedhook" format="2">
  <advance width="550"/>
  <unicode hex="025D"/>
  <anchor x="152" y="0" name="bottom"/>
  <anchor x="236" y="536" name="top"/>
  <outline>
    <contour>
      <point x="513" y="300" type="curve" smooth="yes"/>
      <point x="539" y="300"/>
      <point x="560" y="316"/>
      <point x="560" y="341" type="curve" smooth="yes"/>
      <point x="560" y="360"/>
      <point x="548" y="368"/>
      <point x="541" y="369" type="curve"/>
      <point x="541" y="341"/>
      <point x="523" y="328"/>
      <point x="503" y="328" type="curve" smooth="yes"/>
      <point x="479" y="328"/>
      <point x="463" y="343"/>
      <point x="450" y="400" type="curve" smooth="yes"/>
      <point x="443" y="431" type="line"/>
      <point x="360" y="402" type="line"/>
      <point x="359" y="392" type="line"/>
      <point x="435" y="419" type="line"/>
      <point x="441" y="394" type="line" smooth="yes"/>
      <point x="456" y="333"/>
      <point x="475" y="300"/>
    </contour>
    <component base="afii10073"/>
  </outline>
</glyph>
<glyph name="uni0268" format="2">
  <advance width="238"/>
  <unicode hex="0268"/>
  <anchor x="63" y="0" name="bottom"/>
  <anchor x="221" y="741" name="top"/>
  <anchor x="312" y="741" name="topright"/>
  <outline>
    <contour>
      <point x="38" y="274" type="line"/>
      <point x="211" y="274" type="line"/>
      <point x="211" y="284" type="line"/>
      <point x="38" y="284" type="line"/>
    </contour>
    <component base="i"/>
  </outline>
</glyph>
<glyph name="rlongleg" format="2">
  <advance width="364"/>
  <unicode hex="027C"/>
  <anchor x="85" y="-240" name="bottom"/>
  <anchor x="250" y="536" name="top"/>
  <outline>
    <contour>
      <point x="139" y="442" type="curve"/>
      <point x="0" y="-240" type="line"/>
      <point x="28" y="-240" type="line"/>
      <point x="143" y="319" type="line" smooth="yes"/>
      <point x="163" y="417"/>
      <point x="222" y="534"/>
      <point x="304" y="534" type="curve" smooth="yes"/>
      <point x="334" y="534"/>
      <point x="351" y="518"/>
      <point x="351" y="458" type="curve"/>
      <point x="367" y="458"/>
      <point x="378" y="470"/>
      <point x="378" y="488" type="curve" smooth="yes"/>
      <point x="378" y="514"/>
      <point x="357" y="546"/>
      <point x="313" y="546" type="curve" smooth="yes"/>
      <point x="235" y="546"/>
      <point x="194" y="486"/>
      <point x="158" y="405" type="curve"/>
      <point x="156" y="405" type="line"/>
      <point x="179" y="536" type="line"/>
      <point x="64" y="536" type="line"/>
      <point x="62" y="526" type="line"/>
      <point x="83" y="526" type="line" smooth="yes"/>
      <point x="136" y="526"/>
      <point x="145" y="521"/>
      <point x="145" y="489" type="curve" smooth="yes"/>
      <point x="145" y="472"/>
      <point x="141" y="454"/>
    </contour>
  </outline>
</glyph>
